<?xml version="1.0" encoding="UTF-8"?>
<!-- Generator: visioncortex VTracer 0.6.3 -->
<svg version="1.1" xmlns="http://www.w3.org/2000/svg" width="1280" height="1280">
<path d="M0 0 C422.4 0 844.8 0 1280 0 C1280 422.4 1280 844.8 1280 1280 C857.6 1280 435.2 1280 0 1280 C0 857.6 0 435.2 0 0 Z " fill="#FAFCFC" transform="translate(0,0)"/>
<path d="M0 0 C1.12 0.25 1.12 0.25 2.27 0.51 C4.58 1.03 6.88 1.57 9.19 2.12 C10.49 2.44 10.49 2.44 11.83 2.76 C20.22 4.78 28.58 6.91 36.94 9.06 C38.86 9.55 38.86 9.55 40.81 10.06 C47.04 11.67 53.24 13.34 59.42 15.12 C64.38 16.55 69.34 17.86 74.38 19 C75.83 19.34 77.29 19.67 78.74 20.01 C79.46 20.18 80.17 20.34 80.91 20.51 C92.34 23.17 103.61 26.28 114.89 29.49 C121.7 31.41 128.47 33.09 135.43 34.39 C137.9 34.98 139.76 35.83 142 37 C142.09 65.39 142.16 93.78 142.21 122.17 C142.23 135.36 142.26 148.54 142.3 161.72 C142.34 173.22 142.37 184.72 142.38 196.21 C142.38 202.3 142.39 208.38 142.42 214.46 C142.45 220.2 142.46 225.93 142.45 231.67 C142.45 233.76 142.46 235.86 142.48 237.95 C142.59 253.83 141.68 269.28 133.44 283.31 C133.05 284.01 132.67 284.71 132.27 285.44 C130.38 288.82 128.36 291.92 126 295 C104.49 292.14 104.49 292.14 98.12 291 C92.25 289.98 86.35 289.28 80.44 288.56 C72.65 287.61 64.88 286.61 57.12 285.44 C56.33 285.32 55.53 285.21 54.71 285.09 C49.24 284.24 49.24 284.24 47 282 C46.72 279.71 46.72 279.71 46.68 276.82 C46.66 275.73 46.64 274.65 46.62 273.54 C46.6 271.78 46.6 271.78 46.59 269.99 C46.57 268.8 46.55 267.6 46.53 266.37 C46.47 262.54 46.42 258.71 46.38 254.88 C46.34 252.28 46.3 249.69 46.26 247.1 C46.16 240.73 46.08 234.37 46 228 C45.37 227.97 44.74 227.95 44.09 227.92 C41.25 227.81 38.4 227.69 35.56 227.56 C34.57 227.52 33.58 227.48 32.55 227.44 C31.61 227.4 30.66 227.36 29.69 227.32 C28.38 227.26 28.38 227.26 27.04 227.21 C25 227 25 227 24 226 C23.89 224.52 23.85 223.04 23.84 221.56 C23.83 220.62 23.82 219.67 23.81 218.7 C23.8 217.67 23.8 216.63 23.79 215.57 C23.76 213.39 23.73 211.21 23.7 209.03 C23.66 205.59 23.63 202.15 23.6 198.71 C23.57 195.39 23.52 192.08 23.48 188.76 C23.47 187.24 23.47 187.24 23.47 185.69 C23.28 174.42 20.97 165.86 13.46 157.32 C9.94 154 6.55 152.46 2 151 C-0.64 150.01 -3.28 149.02 -6 148 C-6.33 136.12 -6.66 124.24 -7 112 C-10.47 112.99 -10.47 112.99 -14 114 C-14.33 125.55 -14.66 137.1 -15 149 C-20.44 150.98 -20.44 150.98 -26 153 C-35.16 157.78 -39.99 164.07 -43.16 173.9 C-45.44 183.34 -44.69 193.61 -44.75 203.25 C-44.78 205.56 -44.81 207.86 -44.84 210.17 C-44.91 215.78 -44.96 221.39 -45 227 C-51.27 227.33 -57.54 227.66 -64 228 C-64.33 246.15 -64.66 264.3 -65 283 C-69.05 284.35 -72.31 285.34 -76.42 286 C-77.44 286.16 -78.45 286.33 -79.5 286.5 C-80.57 286.66 -81.64 286.83 -82.75 287 C-83.87 287.18 -84.99 287.35 -86.14 287.54 C-93.09 288.61 -100.02 289.51 -107.01 290.2 C-115.16 291.04 -123.24 292.41 -131.32 293.77 C-132.39 293.94 -133.45 294.11 -134.55 294.29 C-135.99 294.53 -135.99 294.53 -137.44 294.78 C-140 295 -141.61 294.89 -144 294 C-148.28 290.4 -150.66 286.5 -153.06 281.56 C-153.41 280.87 -153.75 280.17 -154.1 279.45 C-159.47 268.21 -162.15 256.61 -162.15 244.17 C-162.15 243.3 -162.15 242.42 -162.16 241.52 C-162.17 238.59 -162.17 235.65 -162.18 232.72 C-162.18 230.62 -162.19 228.51 -162.2 226.41 C-162.22 219.51 -162.23 212.61 -162.24 205.71 C-162.24 203.33 -162.25 200.96 -162.25 198.58 C-162.27 187.43 -162.28 176.28 -162.29 165.13 C-162.3 152.24 -162.33 139.36 -162.37 126.48 C-162.4 116.52 -162.41 106.57 -162.42 96.61 C-162.42 90.66 -162.43 84.71 -162.45 78.77 C-162.48 73.18 -162.48 67.59 -162.47 62 C-162.47 59.94 -162.48 57.89 -162.49 55.84 C-162.51 53.04 -162.5 50.24 -162.49 47.44 C-162.5 46.62 -162.51 45.8 -162.52 44.96 C-162.46 39.49 -162.46 39.49 -160.16 37.03 C-157.21 35.62 -154.32 34.91 -151.12 34.19 C-149.69 33.85 -148.25 33.51 -146.82 33.17 C-146.04 32.98 -145.27 32.8 -144.47 32.61 C-139.98 31.5 -135.52 30.24 -131.06 29 C-123.71 26.97 -116.35 25.1 -108.91 23.4 C-103.38 22.12 -97.96 20.59 -92.51 19 C-88.12 17.75 -83.69 16.66 -79.26 15.57 C-73.29 14.1 -67.37 12.46 -61.47 10.75 C-57.71 9.68 -53.97 8.77 -50.14 8.04 C-44.74 6.99 -39.48 5.55 -34.19 4.06 C-32.25 3.53 -30.31 3 -28.37 2.47 C-25.87 1.79 -23.38 1.11 -20.89 0.4 C-19.18 -0.09 -17.47 -0.55 -15.75 -1 C-14.86 -1.25 -13.97 -1.5 -13.05 -1.75 C-8.5 -2.12 -4.41 -1.04 0 0 Z " fill="#5A664C" transform="translate(649,242)"/>
<path d="M0 0 C1.73 0.01 1.73 0.01 3.5 0.01 C4.76 0.01 6.01 0.02 7.3 0.02 C9.27 0.04 9.27 0.04 11.28 0.06 C12.6 0.06 13.92 0.06 15.28 0.06 C25.08 0.1 25.08 0.1 26.22 1.24 C26.31 2.84 26.34 4.44 26.34 6.03 C26.34 7.07 26.34 8.11 26.34 9.17 C26.34 10.32 26.34 11.47 26.33 12.65 C26.33 13.85 26.33 15.05 26.33 16.28 C26.33 19.58 26.33 22.88 26.32 26.18 C26.31 29.63 26.31 33.07 26.31 36.52 C26.31 43.04 26.3 49.57 26.29 56.1 C26.28 63.53 26.27 70.96 26.27 78.38 C26.26 93.67 26.24 108.96 26.22 124.24 C22.91 125.88 19.6 127.5 16.28 129.12 C15.35 129.58 14.43 130.04 13.47 130.51 C7.74 133.29 2.49 135.12 -3.78 136.24 C-5.06 133.68 -4.91 131.87 -4.92 129 C-4.92 127.89 -4.92 126.78 -4.93 125.64 C-4.93 124.42 -4.93 123.19 -4.93 121.93 C-4.93 120.65 -4.93 119.36 -4.94 118.04 C-4.95 114.51 -4.95 110.98 -4.95 107.45 C-4.95 104.51 -4.95 101.57 -4.96 98.62 C-4.97 91.68 -4.97 84.74 -4.97 77.81 C-4.97 70.64 -4.98 63.47 -4.99 56.3 C-5.01 50.16 -5.01 44.01 -5.01 37.86 C-5.01 34.19 -5.01 30.51 -5.02 26.84 C-5.03 22.74 -5.03 18.65 -5.02 14.56 C-5.03 13.33 -5.04 12.11 -5.04 10.85 C-5.04 9.74 -5.03 8.63 -5.03 7.48 C-5.03 6.51 -5.03 5.54 -5.03 4.54 C-4.64 0.97 -3.5 0.31 0 0 Z " fill="#5A664C" transform="translate(650.781494140625,492.757080078125)"/>
<path d="M0 0 C1.07 0 2.14 0.01 3.25 0.01 C4.41 0.01 5.57 0.02 6.77 0.02 C7.99 0.03 9.21 0.04 10.46 0.06 C12.3 0.06 12.3 0.06 14.17 0.06 C23.26 0.1 23.26 0.1 24.4 1.24 C24.5 2.99 24.52 4.74 24.52 6.49 C24.52 7.63 24.53 8.76 24.53 9.93 C24.52 11.19 24.52 12.45 24.52 13.75 C24.52 15.07 24.52 16.38 24.52 17.74 C24.52 21.36 24.51 24.98 24.5 28.6 C24.5 32.39 24.5 36.17 24.5 39.95 C24.49 47.11 24.48 54.28 24.47 61.44 C24.46 69.6 24.46 77.75 24.45 85.91 C24.44 102.68 24.42 119.46 24.4 136.24 C22.97 135.94 21.54 135.63 20.11 135.32 C19.31 135.15 18.52 134.98 17.69 134.8 C14.4 134 11.43 132.72 8.4 131.24 C7.39 130.75 6.38 130.26 5.34 129.75 C-3.4 125.44 -3.4 125.44 -4.6 124.24 C-4.7 122.67 -4.73 121.08 -4.73 119.5 C-4.74 118.48 -4.74 117.45 -4.74 116.4 C-4.74 115.26 -4.74 114.13 -4.74 112.96 C-4.75 111.78 -4.75 110.59 -4.75 109.37 C-4.76 106.1 -4.76 102.84 -4.77 99.57 C-4.77 96.85 -4.77 94.13 -4.77 91.41 C-4.78 84.99 -4.78 78.57 -4.78 72.15 C-4.78 65.52 -4.79 58.89 -4.81 52.26 C-4.82 46.58 -4.83 40.9 -4.83 35.21 C-4.83 31.81 -4.83 28.42 -4.84 25.02 C-4.85 21.23 -4.85 17.44 -4.84 13.65 C-4.85 12.52 -4.85 11.39 -4.86 10.22 C-4.85 9.2 -4.85 8.17 -4.85 7.11 C-4.85 6.21 -4.85 5.32 -4.85 4.39 C-4.46 1.02 -3.29 0.31 0 0 Z " fill="#5A664C" transform="translate(609.597900390625,492.757080078125)"/>
<path d="M0 0 C4.22 3.97 7.71 8.23 11 13 C11.42 13.61 11.85 14.22 12.28 14.85 C23.92 33.62 26.85 58.95 22.04 80.2 C18.13 94.53 12.61 104.8 1.85 115.21 C0.26 116.74 -1.24 118.32 -2.75 119.94 C-4.95 121.95 -6.08 122.68 -9 123 C-18.22 98.32 -14.5 63.18 -9 38 C-8.57 35.97 -8.15 33.94 -7.73 31.91 C-6.71 27.11 -5.65 22.32 -4.56 17.53 C-3.51 12.82 -2.55 8.08 -1.58 3.35 C-1 1 -1 1 0 0 Z " fill="#5A664C" transform="translate(871,421)"/>
<path d="M0 0 C5.09 3.39 6.26 9.69 7.56 15.49 C7.86 17.12 8.16 18.75 8.45 20.39 C9.05 23.24 9.9 25.92 10.81 28.69 C12.73 34.77 14.23 40.9 15.62 47.12 C15.83 48.01 16.04 48.9 16.25 49.81 C19.92 66.65 20.28 83.53 20.12 100.69 C20.11 102.67 20.11 104.66 20.1 106.64 C20.08 111.43 20.04 116.21 20 121 C19.01 121.5 19.01 121.5 18 122 C-1.84 108.62 -12.78 93.53 -17.94 70.12 C-22.11 45.42 -13.87 20.39 0 0 Z " fill="#5A664C" transform="translate(402,433)"/>
<path d="M0 0 C1 1 1 1 1.16 4.98 C1.09 9.88 0.46 14.52 -0.5 19.31 C-0.67 20.16 -0.84 21.01 -1.01 21.89 C-3.51 33.43 -7.8 44.93 -14 55 C-14.62 56.83 -14.62 56.83 -15.25 58.69 C-16.84 63.09 -19.31 66.54 -22.05 70.3 C-24.09 73.12 -25.98 76.02 -27.88 78.94 C-32.51 85.94 -37.63 93.44 -44 99 C-44.66 99 -45.32 99 -46 99 C-46 98.34 -46 97.68 -46 97 C-46.66 97 -47.32 97 -48 97 C-48.82 94.65 -49.63 92.29 -50.44 89.94 C-50.67 89.28 -50.9 88.62 -51.13 87.95 C-55.71 74.49 -55.38 59.43 -51 46 C-50.74 45.1 -50.49 44.2 -50.23 43.28 C-44.99 26.59 -31.92 13.46 -16.8 5.27 C-5.8 -0.31 -5.8 -0.31 0 0 Z " fill="#5A664C" transform="translate(475,378)"/>
<path d="M0 0 C18.33 2.86 32.58 11.7 44 26 C57.2 44.46 59.3 64.33 56.12 86.5 C55.49 90.24 54.5 93.51 53 97 C44.88 94.29 39.5 87 34.66 80.23 C32.96 77.94 31.13 75.78 29.27 73.62 C25.47 69.18 22.01 64.83 19.34 59.6 C18.23 57.45 17.08 55.37 15.88 53.27 C15.49 52.59 15.1 51.91 14.7 51.21 C13.93 49.87 13.16 48.53 12.38 47.2 C6.87 37.5 3.13 27.95 0.62 17.06 C0.35 15.95 0.08 14.84 -0.2 13.7 C-2.33 4.66 -2.33 4.66 -1 1 C-0.67 0.67 -0.34 0.34 0 0 Z " fill="#5A664C" transform="translate(797,370)"/>
<path d="M0 0 C11.39 0.83 22.33 5.16 30.06 13.75 C34.63 19.11 38.71 24.77 42 31 C42.43 31.82 42.87 32.63 43.31 33.48 C48.84 46.49 48.03 65.29 43.17 78.45 C41.85 81.34 40.44 84.17 39 87 C33.71 84.16 31.09 80.61 27.79 75.65 C26.1 73.15 24.32 70.8 22.44 68.44 C21.29 66.96 20.14 65.48 19 64 C18.51 63.36 18.02 62.73 17.51 62.07 C5.5 45.39 -2.66 21.57 -1 1 C-0.67 0.67 -0.34 0.34 0 0 Z " fill="#5A664C" transform="translate(805,454)"/>
<path d="M0 0 C5.43 10.86 -0.75 31.68 -4.19 42.69 C-10.34 59.63 -19.98 74.12 -30 89 C-33.88 87.7 -34.8 87.32 -37.06 83.69 C-43.78 68.5 -46.22 53.04 -41 37 C-33.9 19.13 -22.14 8.8 -5 1 C-2 0 -2 0 0 0 Z " fill="#5A664C" transform="translate(472,461)"/>
<path d="M0 0 C4.1 1.38 6.67 3.24 9.81 6.19 C10.68 6.99 11.55 7.8 12.45 8.63 C13.29 9.41 14.13 10.19 15 11 C16.39 12.21 17.79 13.42 19.19 14.62 C26.62 21.13 32.87 28.25 39 36 C39.76 36.93 40.51 37.86 41.29 38.81 C47.02 46.07 51.07 53.58 54.99 61.89 C56.04 64.08 57.13 66.24 58.24 68.4 C58.79 69.48 58.79 69.48 59.36 70.58 C60.06 71.95 60.76 73.32 61.47 74.68 C63.21 78.1 64.48 81.19 65 85 C51.19 83.49 39.94 79.62 29 71 C27.96 70.25 26.92 69.51 25.84 68.74 C10.64 57.4 3.23 39.16 -0.31 20.94 C-1.27 14.34 -1.41 7.65 -1 1 C-0.67 0.67 -0.34 0.34 0 0 Z " fill="#5A664C" transform="translate(395,550)"/>
<path d="M0 0 C1.48 1.02 1.48 1.02 3 3 C3.28 5.66 3.38 8.04 3.31 10.69 C3.3 11.44 3.29 12.2 3.27 12.97 C2.86 29.2 0.5 43.43 -9 57 C-9.92 58.36 -9.92 58.36 -10.86 59.75 C-20.23 73.09 -33.96 83.06 -50 87 C-53.06 87.19 -53.06 87.19 -55 87 C-56.31 83.06 -55.31 81.68 -53.75 77.88 C-52.25 74.19 -50.84 70.54 -49.67 66.74 C-47.87 61.28 -45.26 56.32 -42.56 51.25 C-42.08 50.33 -41.61 49.41 -41.12 48.46 C-38.73 43.94 -36.34 39.9 -33 36 C-32.05 34.55 -31.11 33.09 -30.19 31.62 C-27.73 27.89 -25.07 24.93 -21.83 21.87 C-19.78 19.77 -18.08 17.53 -16.31 15.19 C-11.64 9.19 -5.95 4.66 0 0 Z " fill="#5A664C" transform="translate(885,539)"/>
<path d="M0 0 C5.35 0.43 8.71 2.52 12.88 5.69 C13.49 6.14 14.1 6.6 14.73 7.07 C15.94 7.97 17.15 8.87 18.35 9.78 C19.75 10.81 21.18 11.79 22.62 12.75 C26.09 15.09 27.74 16.43 29.5 20.31 C29.66 21.53 29.83 22.75 30 24 C30.14 24.66 30.28 25.31 30.42 25.99 C31.27 32.75 27.79 38.09 23.79 43.25 C19.97 47.02 16.66 47.6 11.48 48.43 C8.75 48.76 8.75 48.76 7.38 51.5 C7.19 53.23 7.19 53.23 7 55 C6.6 56.83 6.21 58.67 5.81 60.5 C5.09 64.64 4.99 67.87 6 72 C6 73.32 6 74.64 6 76 C5.01 76.33 4.02 76.66 3 77 C0.3 75.57 0.3 75.57 -2.69 73.56 C-3.68 72.9 -4.68 72.25 -5.7 71.57 C-6.46 71.05 -7.22 70.53 -8 70 C-7.67 68.68 -7.34 67.36 -7 66 C-5.02 65.5 -5.02 65.5 -3 65 C-2.35 61.78 -1.76 58.55 -1.19 55.31 C-1 54.4 -0.82 53.49 -0.63 52.55 C-0.18 49.95 0.14 47.63 0 45 C-2.81 41.18 -5.5 39.41 -10 38 C-10.26 38.72 -10.51 39.44 -10.77 40.18 C-12.48 44.11 -14.99 47.27 -17.54 50.7 C-19.27 52.97 -19.27 52.97 -19 56 C-18.34 56 -17.68 56 -17 56 C-17.33 57.32 -17.66 58.64 -18 60 C-22.84 60 -24.33 58.73 -28.25 56 C-29.33 55.26 -30.41 54.51 -31.52 53.75 C-32.75 52.88 -32.75 52.88 -34 52 C-33.69 50.12 -33.69 50.12 -33 48 C-30 46 -30 46 -27.31 46.38 C-26.55 46.58 -25.79 46.79 -25 47 C-21.33 41.63 -17.66 36.26 -14.01 30.88 C-11.61 27.35 -9.19 23.83 -6.74 20.34 C-5.83 19.02 -4.91 17.7 -4 16.38 C-3.57 15.78 -3.15 15.18 -2.71 14.57 C-0.52 11.46 -0.52 11.46 -0.19 7.79 C-0.46 7.2 -0.72 6.61 -1 6 C-1.5 4.51 -1.5 4.51 -2 3 C-1.34 2.01 -0.68 1.02 0 0 Z " fill="#5A664C" transform="translate(855,188)"/>
<path d="M0 0 C6.7 2.33 10.89 10.99 14 17 C19.95 31.45 19.82 48.51 14 63 C11.27 68.11 7.69 72.55 4 77 C3.39 77.79 2.78 78.58 2.16 79.39 C-0.37 82.57 -2 84.28 -6 85 C-9.63 81.21 -10.18 76.79 -11.12 71.81 C-11.3 70.93 -11.47 70.04 -11.64 69.12 C-16.11 44.65 -11.49 23.35 -1 1 C-0.67 0.67 -0.34 0.34 0 0 Z " fill="#5A664C" transform="translate(820,530)"/>
<path d="M0 0 C5.1 1.7 6.67 6.37 9 11 C17.06 29.59 18.59 46.12 17.69 66.38 C17.64 67.65 17.64 67.65 17.58 68.95 C17.3 74.2 16.43 78.94 15 84 C4.12 80.42 -3.37 70.23 -8.38 60.41 C-14.05 48.48 -16.92 37.16 -13.15 24.12 C-9.96 15.46 -5.71 7.27 0 0 Z " fill="#5A664C" transform="translate(460,539)"/>
<path d="M0 0 C2 1.19 2 1.19 4 3 C4.12 5.61 4.12 5.61 4 8 C19.29 16.08 34.64 24.05 50 32 C50 32.66 50 33.32 50 34 C50.66 34 51.32 34 52 34 C51.43 37.98 50.12 40.61 48 44 C28.66 43.46 9.33 42.88 -10 42 C-8.85 42.61 -7.7 43.21 -6.51 43.84 C-5.37 44.44 -5.37 44.44 -4.21 45.05 C-2.51 45.94 -0.82 46.83 0.88 47.72 C5.39 50.09 9.9 52.48 14.39 54.89 C15.24 55.35 16.1 55.81 16.99 56.28 C18.64 57.17 20.29 58.06 21.94 58.95 C23.07 59.55 23.07 59.55 24.22 60.16 C24.88 60.52 25.54 60.87 26.22 61.24 C28.14 62.2 28.14 62.2 31 62 C31.33 61.01 31.66 60.02 32 59 C34.87 59.57 35.86 59.86 38 62 C37.61 65.73 35.62 68.96 33.94 72.25 C33.39 73.33 32.84 74.41 32.28 75.52 C31.86 76.34 31.43 77.16 31 78 C29.35 77.67 27.7 77.34 26 77 C25 74 25 74 24.86 72.07 C23.46 68.7 20.39 67.56 17.31 65.94 C16.62 65.56 15.92 65.18 15.21 64.79 C-1.56 55.69 -1.56 55.69 -19 48 C-19.33 49.32 -19.66 50.64 -20 52 C-21.65 51.67 -23.3 51.34 -25 51 C-26 48 -26 48 -24.6 44.9 C-23.95 43.72 -23.29 42.54 -22.62 41.38 C-22.3 40.78 -21.96 40.18 -21.62 39.56 C-19.19 35.19 -19.19 35.19 -18 34 C-5.85 33.44 6.37 34.33 18.5 35 C20.31 35.1 22.11 35.19 23.92 35.29 C28.28 35.52 32.64 35.76 37 36 C33.3 32.82 29.45 30.53 25.09 28.4 C24.44 28.08 23.79 27.75 23.12 27.42 C21.06 26.4 19 25.39 16.94 24.38 C15.55 23.69 14.16 23 12.77 22.31 C10.23 21.05 7.68 19.79 5.13 18.54 C2.75 17.37 0.37 16.19 -2 15 C-2.33 16.32 -2.66 17.64 -3 19 C-4.65 18.67 -6.3 18.34 -8 18 C-9 15 -9 15 -7.64 11.68 C-7 10.41 -6.35 9.14 -5.69 7.88 C-5.21 6.91 -5.21 6.91 -4.71 5.92 C-2.27 1.14 -2.27 1.14 0 0 Z " fill="#5A664C" transform="translate(284,327)"/>
<path d="M0 0 C1 -0.09 1 -0.09 2.03 -0.19 C4.02 -0.25 4.02 -0.25 7.75 0.56 C11.83 5.3 14.35 11.61 16.92 17.26 C17.29 18.06 17.66 18.86 18.04 19.68 C18.81 21.35 19.57 23.03 20.34 24.7 C21.5 27.26 22.68 29.81 23.86 32.36 C24.61 33.99 25.36 35.63 26.11 37.26 C26.46 38.02 26.81 38.78 27.17 39.56 C28.83 43.21 30.2 46.55 30.75 50.56 C31.41 50.56 32.07 50.56 32.75 50.56 C33.08 50.89 33.41 51.22 33.75 51.56 C33.42 37.04 33.09 22.52 32.75 7.56 C30.27 6.57 30.27 6.57 27.75 5.56 C28.62 1.69 28.62 1.69 29.75 0.56 C32.43 0.46 35.07 0.42 37.75 0.44 C38.5 0.43 39.25 0.43 40.02 0.43 C45.62 0.44 45.62 0.44 46.75 1.56 C46.79 3.23 46.79 4.9 46.75 6.56 C45.1 7.22 43.45 7.88 41.75 8.56 C41.42 26.71 41.09 44.86 40.75 63.56 C37.12 63.56 33.49 63.56 29.75 63.56 C27.79 61.53 27.79 61.53 26.75 58.56 C26.18 57.4 25.61 56.24 25.02 55.05 C24.39 53.71 23.76 52.37 23.13 51.02 C22.79 50.3 22.45 49.58 22.11 48.84 C21.03 46.54 19.95 44.24 18.88 41.94 C18.16 40.42 17.45 38.89 16.73 37.37 C16.03 35.88 15.33 34.39 14.63 32.9 C14.32 32.23 14 31.56 13.68 30.86 C10.99 25.12 8.38 19.34 5.75 13.56 C5.75 27.75 5.75 41.94 5.75 56.56 C7.07 57.22 8.39 57.88 9.75 58.56 C9.75 60.21 9.75 61.86 9.75 63.56 C3.81 63.56 -2.13 63.56 -8.25 63.56 C-8.58 62.24 -8.91 60.92 -9.25 59.56 C-8.59 58.9 -7.93 58.24 -7.25 57.56 C-5.93 57.56 -4.61 57.56 -3.25 57.56 C-3.58 41.06 -3.91 24.56 -4.25 7.56 C-6.73 6.57 -6.73 6.57 -9.25 5.56 C-7.93 -0.28 -5.6 0.23 0 0 Z " fill="#5A664C" transform="translate(621.25,126.4375)"/>
<path d="M0 0 C27.3 1.77 49.34 15.82 67.31 35.62 C70 38.71 70 38.71 70 41 C70.66 41.33 71.32 41.66 72 42 C53.88 45.42 37.2 42.23 22 32 C13.01 25.23 3.84 14.75 0 4 C0 2.68 0 1.36 0 0 Z " fill="#5A664C" transform="translate(442,641)"/>
<path d="M0 0 C-0.53 11.91 -9.76 24.32 -18.25 32.19 C-34.13 45.49 -47.85 47.7 -68 47 C-68 43.51 -67.39 42.82 -65.31 40.12 C-64.81 39.47 -64.31 38.81 -63.8 38.13 C-61.67 35.6 -59.36 33.32 -57 31 C-56.54 30.53 -56.08 30.05 -55.61 29.56 C-43.34 16.88 -18.81 -1.66 0 0 Z " fill="#5A664C" transform="translate(847,631)"/>
<path d="M0 0 C2.06 1.5 2.06 1.5 4 4 C3.73 5.9 3.46 7.8 3.17 9.7 C2.86 13.85 3.96 17.73 4.94 21.75 C5.33 23.41 5.71 25.07 6.09 26.73 C6.26 27.46 6.44 28.18 6.62 28.93 C7 31 7 31 7 35 C11.89 36.17 16.79 37.32 21.69 38.46 C23.16 38.8 24.64 39.15 26.11 39.5 C28.01 39.95 29.91 40.38 31.81 40.81 C32.91 41.07 34.01 41.32 35.14 41.58 C37.87 41.98 39.44 41.91 42 41 C44 44 44 44 44 47 C42.39 48.75 42.39 48.75 40.25 50.56 C39.55 51.16 38.86 51.76 38.14 52.38 C36.16 53.88 34.26 54.98 32 56 C30.51 55.01 30.51 55.01 29 54 C29.33 52.35 29.66 50.7 30 49 C23.31 47.01 16.96 45.57 10 45 C10.28 47.06 10.58 49.13 10.88 51.19 C11.04 52.34 11.2 53.48 11.37 54.67 C11.95 57.72 12.58 60.24 14 63 C15.66 63.37 17.33 63.71 19 64 C19.66 65.32 20.32 66.64 21 68 C17.37 71.63 13.74 75.26 10 79 C8.35 78.01 6.7 77.02 5 76 C5.19 74.98 5.38 73.96 5.58 72.91 C6 68.96 5.69 66.26 4.79 62.41 C4.37 60.62 4.37 60.62 3.96 58.79 C3.66 57.56 3.37 56.33 3.06 55.06 C2.77 53.81 2.48 52.55 2.18 51.26 C1.47 48.17 0.74 45.08 0 42 C-15.24 37.48 -15.24 37.48 -31 36 C-31.99 35.34 -32.98 34.68 -34 34 C-31.95 29.41 -28.87 26.16 -25 23 C-22.06 22.06 -22.06 22.06 -20 22 C-19.69 22.78 -19.38 23.57 -19.06 24.38 C-18.07 26.92 -18.07 26.92 -17 29 C-14.3 29.8 -11.67 30.49 -8.94 31.12 C-6.32 31.74 -3.7 32.36 -1 33 C-2.32 27.06 -3.64 21.12 -5 15 C-5.99 15.33 -6.98 15.66 -8 16 C-10.19 14.56 -10.19 14.56 -12 13 C-10.53 9.6 -8.63 7.39 -6 4.81 C-5.3 4.12 -4.6 3.42 -3.88 2.71 C-2 1 -2 1 0 0 Z " fill="#5A664C" transform="translate(369,226)"/>
<path d="M0 0 C1 1 1 1 1.25 3.44 C1.17 4.28 1.09 5.13 1 6 C0.01 6.66 -0.98 7.32 -2 8 C-1.36 17.41 0.6 26.56 2.49 35.78 C2.91 37.81 3.32 39.85 3.72 41.89 C4.09 43.68 4.09 43.68 4.47 45.52 C5.46 51.98 5.57 56.81 1.89 62.27 C-1.93 65.76 -7.04 66.2 -12 67 C-13.31 67.26 -13.31 67.26 -14.64 67.54 C-20.47 68.69 -24.63 68.7 -29.95 65.93 C-38.51 59.72 -38.56 47.26 -40.12 37.56 C-40.51 35.38 -40.9 33.19 -41.29 31.01 C-42.24 25.68 -43.14 20.34 -44 15 C-45.32 15 -46.64 15 -48 15 C-48.33 13.02 -48.66 11.04 -49 9 C-42.89 7.14 -37.41 5.57 -31 6 C-30.67 7.98 -30.34 9.96 -30 12 C-31.65 12.66 -33.3 13.32 -35 14 C-34.35 17.87 -33.69 21.75 -33.03 25.62 C-32.7 27.57 -32.37 29.51 -32.04 31.46 C-31.38 35.31 -30.7 39.16 -30 43 C-29.89 43.66 -29.77 44.32 -29.65 44.99 C-29.31 46.92 -28.95 48.85 -28.58 50.77 C-28.37 51.9 -28.17 53.03 -27.95 54.19 C-26.86 57.4 -25.95 58.39 -23 60 C-17.03 60.38 -10.67 58.75 -5 57 C-1.21 49.42 -5.91 36.08 -7.53 27.88 C-7.94 25.78 -8.34 23.67 -8.74 21.56 C-9 20.21 -9.26 18.87 -9.53 17.52 C-9.76 16.31 -10 15.11 -10.24 13.87 C-10.77 10.89 -10.77 10.89 -13 9 C-13.99 9 -14.98 9 -16 9 C-16.66 7.35 -17.32 5.7 -18 4 C-13.81 -0.19 -5.68 -0.44 0 0 Z " fill="#5A664C" transform="translate(587,130)"/>
<path d="M0 0 C0.99 0.33 1.98 0.66 3 1 C3.5 3.47 3.5 3.47 4 6 C3.34 6 2.68 6 2 6 C4.55 12.96 8.66 18.77 12.81 24.88 C13.86 26.43 13.86 26.43 14.93 28.02 C15.62 29.04 16.31 30.06 17.02 31.12 C18.03 32.62 18.03 32.62 19.06 34.15 C20.29 35.95 21.54 37.75 22.81 39.52 C26.88 45.27 28.4 49.22 27.6 56.4 C24.43 63.53 17.1 67.69 10.32 71.18 C6.52 72.52 3.89 71.92 0 71 C-1.01 70.81 -2.02 70.63 -3.06 70.44 C-9.81 67.13 -13.74 60.06 -17.66 53.88 C-18.07 53.24 -18.47 52.6 -18.89 51.95 C-20.57 49.29 -22.24 46.63 -23.89 43.95 C-25.11 41.98 -26.35 40.02 -27.6 38.06 C-27.97 37.45 -28.34 36.84 -28.72 36.22 C-29.88 34.32 -29.88 34.32 -32 32 C-34.56 31.66 -34.56 31.66 -37 32 C-37.99 31.34 -38.98 30.68 -40 30 C-39.88 28.27 -39.88 28.27 -39 26 C-36.28 23.86 -36.28 23.86 -32.94 21.75 C-31.83 21.04 -30.73 20.34 -29.59 19.61 C-28.74 19.08 -27.88 18.55 -27 18 C-25.06 18.81 -25.06 18.81 -23 20 C-22.67 20.99 -22.34 21.98 -22 23 C-23.98 23.99 -23.98 23.99 -26 25 C-22.57 31.44 -18.77 37.5 -14.62 43.5 C-14.09 44.29 -13.55 45.08 -12.99 45.89 C-7.13 55.66 -7.13 55.66 1 63 C7.32 64.05 10.75 61.68 15.96 58.21 C18.8 55.13 19.05 53.16 19 49 C17.75 46.48 16.6 44.59 14.94 42.38 C14.02 41.08 13.11 39.78 12.19 38.49 C11.69 37.78 11.18 37.08 10.66 36.35 C7.47 31.82 4.44 27.18 1.38 22.56 C0.15 20.73 -1.07 18.9 -2.29 17.07 C-3.19 15.71 -4.1 14.36 -5 13 C-5.76 13.21 -6.53 13.41 -7.31 13.62 C-10 14 -10 14 -13 12 C-12.87 10.27 -12.87 10.27 -12 8 C-9.38 5.82 -9.38 5.82 -6.12 3.69 C-4.52 2.61 -4.52 2.61 -2.88 1.51 C-1.93 1.01 -0.98 0.51 0 0 Z " fill="#5A664C" transform="translate(426,185)"/>
<path d="M0 0 C3 2 3 2 3.73 4.07 C5.94 16.14 6.13 30.06 -0.56 40.88 C-4.37 45.91 -9.16 49.99 -14 54 C-14.83 54.7 -15.66 55.4 -16.52 56.12 C-18.85 57.88 -20.96 59.09 -23.62 60.25 C-24.38 60.59 -25.14 60.92 -25.91 61.27 C-28 62 -28 62 -31 62 C-33.86 53.43 -27.99 38.05 -24.14 30.25 C-17.76 18.12 -10.34 8.97 0 0 Z " fill="#5A664C" transform="translate(799,602)"/>
<path d="M0 0 C5.98 0.9 9.84 5.97 14 10 C15.28 11.21 15.28 11.21 16.59 12.45 C28.65 24.62 33.07 39.84 36.55 56.21 C36.95 58.09 36.95 58.09 38 60 C23.52 56.08 12.08 49.25 3 37 C-2.4 27.6 -3.94 17.73 -3 7 C-2.25 4.36 -1.35 2.41 0 0 Z " fill="#5A664C" transform="translate(486,609)"/>
<path d="M0 0 C5.81 2.57 11.6 5.17 17.38 7.81 C19.02 8.55 20.66 9.3 22.31 10.03 C24.28 10.92 26.23 11.83 28.19 12.75 C29.85 13.52 29.85 13.52 31.54 14.3 C34 16 34 16 35.02 18.37 C35 21.63 34.12 23.46 32.56 26.31 C32.09 27.2 31.62 28.08 31.13 28.99 C30.76 29.65 30.38 30.32 30 31 C25.25 30.25 25.25 30.25 23 28 C23.35 27.44 23.7 26.89 24.06 26.31 C25.29 23.28 25.18 22.05 24 19 C21.63 17.62 19.6 16.64 17.06 15.69 C16.42 15.42 15.77 15.16 15.1 14.89 C11.66 13.46 11.66 13.46 8 13 C7.72 13.86 7.45 14.72 7.16 15.6 C6.03 18.93 4.74 22.14 3.38 25.38 C2.93 26.43 2.48 27.49 2.02 28.59 C1.69 29.38 1.35 30.18 1 31 C1.99 31.53 2.97 32.06 3.99 32.61 C5.29 33.32 6.58 34.04 7.88 34.75 C8.85 35.27 8.85 35.27 9.85 35.8 C12.57 37.32 14.7 38.57 16.51 41.14 C17 43 17 43 16 45 C11.16 44.41 7.04 42.92 2.62 40.94 C1.98 40.66 1.34 40.37 0.68 40.08 C-0.88 39.4 -2.44 38.7 -4 38 C-4.17 38.56 -4.34 39.11 -4.52 39.69 C-6.05 44.51 -7.83 48.87 -10.33 53.27 C-11.29 55.2 -11.29 55.2 -10 58 C-7.4 59.66 -7.4 59.66 -4.25 61.12 C-3.2 61.64 -2.16 62.16 -1.08 62.7 C1.66 63.86 4.07 64.55 7 65 C7.66 62.69 8.32 60.38 9 58 C10.32 58 11.64 58 13 58 C13 58.66 13 59.32 13 60 C13.66 60 14.32 60 15 60 C14.35 65.07 12.15 69.42 10 74 C5.05 73.44 1.04 71.82 -3.37 69.62 C-4.39 69.12 -4.39 69.12 -5.43 68.62 C-7.58 67.56 -9.73 66.5 -11.88 65.44 C-13.34 64.72 -14.81 64 -16.27 63.28 C-19.85 61.53 -23.43 59.77 -27 58 C-26.67 56.35 -26.34 54.7 -26 53 C-22.87 51.96 -22.01 52.07 -19 53 C-17.26 49.25 -15.52 45.5 -13.78 41.75 C-13.19 40.48 -12.6 39.21 -12.01 37.94 C-11.72 37.33 -11.44 36.72 -11.15 36.1 C-10.86 35.48 -10.58 34.87 -10.29 34.24 C-9.72 33.01 -9.14 31.77 -8.57 30.54 C-7.15 27.45 -5.7 24.37 -4.2 21.31 C-3.64 20.16 -3.08 19.01 -2.51 17.82 C-2 16.8 -1.49 15.77 -0.97 14.71 C0.06 11.83 0.13 10.79 -1 8 C-1.64 6.65 -2.3 5.31 -3 4 C-2.01 2.68 -1.02 1.36 0 0 Z " fill="#5A664C" transform="translate(799,158)"/>
<path d="M0 0 C5.18 1.92 9.48 4.44 12.38 9.31 C12.58 9.87 12.79 10.43 13 11 C12.34 11.99 11.68 12.98 11 14 C6 12 6 12 1 10 C-0.51 11.91 -2.01 13.83 -3.5 15.75 C-3.93 16.29 -4.36 16.83 -4.8 17.38 C-7.3 20.64 -8 21.75 -8 26 C-6.73 27.46 -6.73 27.46 -4.94 28.58 C-4.31 29.02 -3.67 29.45 -3.02 29.91 C-2.36 30.35 -1.69 30.79 -1 31.25 C0 31.94 0 31.94 1.02 32.64 C2.67 33.77 4.34 34.89 6 36 C11.12 34.1 13.18 29.69 16.1 25.34 C16.73 24.57 17.35 23.79 18 23 C18.99 23 19.98 23 21 23 C23 26 23 26 22.88 27.87 C21.3 31.69 18.38 34.55 15.71 37.66 C13.7 39.92 13.7 39.92 14 43 C15.59 44.54 15.59 44.54 17.72 45.92 C18.49 46.45 19.25 46.98 20.04 47.53 C20.85 48.08 21.66 48.62 22.5 49.19 C23.72 50.03 23.72 50.03 24.96 50.88 C26.97 52.26 28.98 53.64 31 55 C31.44 54.08 31.44 54.08 31.89 53.15 C33.7 49.65 36.23 46.65 38.64 43.54 C40.24 41.08 40.24 41.08 39.84 38.27 C39.2 35.83 39.2 35.83 36.94 34.69 C36.3 34.46 35.66 34.23 35 34 C35.66 32.35 36.32 30.7 37 29 C39.99 29.61 42.12 30.51 44.62 32.25 C45.22 32.65 45.81 33.04 46.41 33.45 C48.56 35.55 49.37 37.06 50 40 C48.68 42.52 48.68 42.52 46.44 45.25 C45.6 46.29 44.77 47.33 43.94 48.38 C43.47 48.94 43.01 49.51 42.53 50.1 C39.59 53.75 36.78 57.51 33.94 61.25 C32.8 62.73 31.66 64.22 30.53 65.7 C30.04 66.34 29.55 66.97 29.05 67.63 C28.7 68.08 28.36 68.53 28 69 C25.83 68.49 24 68 22 67 C22.19 66.07 22.37 65.14 22.56 64.19 C23.24 60.99 23.24 60.99 22 58 C20.13 56.92 20.13 56.92 18 56 C16.84 55.21 15.69 54.38 14.57 53.53 C13.92 53.05 13.28 52.56 12.62 52.06 C11.94 51.55 11.26 51.03 10.56 50.5 C9.86 49.97 9.16 49.44 8.43 48.89 C5 46.3 1.59 43.69 -1.8 41.05 C-2.38 40.6 -2.97 40.15 -3.57 39.68 C-5.16 38.45 -6.74 37.2 -8.33 35.96 C-10.52 34.35 -12.53 33.1 -15 32 C-16.32 32.99 -17.64 33.98 -19 35 C-20.32 34.01 -21.64 33.02 -23 32 C-21.73 28.5 -20.3 25.8 -17.99 22.89 C-17.39 22.14 -16.8 21.38 -16.19 20.6 C-15.26 19.44 -15.26 19.44 -14.31 18.25 C-13.71 17.49 -13.11 16.73 -12.49 15.95 C-11.28 14.41 -10.07 12.88 -8.86 11.35 C-5.88 7.59 -2.94 3.79 0 0 Z " fill="#5A664C" transform="translate(321,275)"/>
<path d="M0 0 C3.7 2.82 5.97 6.25 7.26 10.72 C6.93 11.71 6.6 12.7 6.26 13.72 C4.2 14.41 4.2 14.41 2.26 14.72 C1.88 14.23 1.51 13.74 1.12 13.23 C0.35 12.27 0.35 12.27 -0.43 11.29 C-0.93 10.65 -1.43 10.01 -1.94 9.35 C-4.25 7.26 -5.64 6.9 -8.74 6.72 C-14.25 8.19 -18.76 10.04 -21.68 15.04 C-21.76 19.7 -20.63 23.05 -17.74 26.72 C-14.63 28.69 -12.51 28.96 -8.85 28.36 C-6.17 27.55 -3.9 26.24 -1.43 24.91 C2.81 22.91 5.16 22.36 9.63 23.91 C14.68 26.45 16.86 29.75 19.26 34.72 C20.19 36.18 20.19 36.18 21.13 37.66 C22.69 41.9 22.22 45.36 21.26 49.72 C21.07 50.71 20.88 51.71 20.68 52.73 C18.66 56.99 15.86 58.2 11.7 60.16 C10.97 60.51 10.25 60.86 9.5 61.22 C4.96 63.27 1.22 64.7 -3.78 63.47 C-4.75 63.1 -4.75 63.1 -5.74 62.72 C-6.48 62.45 -7.22 62.19 -7.99 61.91 C-11.39 60.45 -13.31 59.44 -15.24 56.22 C-15.74 53.72 -15.74 53.72 -15.74 49.72 C-14.09 49.06 -12.44 48.4 -10.74 47.72 C-10.33 48.51 -9.92 49.29 -9.49 50.1 C-7.62 52.9 -6.91 53.75 -3.74 54.72 C2.31 55.44 7.09 53.76 12.26 50.72 C13.85 47.54 13.6 45.26 13.26 41.72 C11.98 38.44 10.58 35.39 8.26 32.72 C4.9 31.33 3.54 31.61 0.14 32.97 C-2.07 34.14 -4.28 35.3 -6.49 36.47 C-10.21 37.9 -11.94 37.74 -15.74 36.72 C-16.52 36.55 -17.29 36.38 -18.09 36.21 C-23.53 34.35 -25.82 31.74 -28.49 26.66 C-30.88 20.81 -30.99 17.01 -29 11.06 C-25.29 4.15 -17.78 0.74 -10.65 -1.8 C-6.63 -2.8 -3.62 -1.77 0 0 Z " fill="#5A664C" transform="translate(482.7421875,163.27734375)"/>
<path d="M0 0 C0.75 0.75 0.75 0.75 1.51 1.51 C6.62 6.69 6.81 10.09 6.81 17.28 C6.25 20.9 5.58 22 2.81 24.31 C0.84 25.64 0.84 25.64 -0.69 26.5 C-3.16 24.52 -3.16 24.52 -5.69 22.5 C-5.03 21.82 -4.37 21.14 -3.69 20.44 C-1.1 16.64 -0.84 15.02 -1.69 10.5 C-3.76 7.55 -6.12 5.02 -8.69 2.5 C-9.18 2 -9.18 2 -9.69 1.5 C-12.96 0.86 -14.97 1.06 -17.83 2.82 C-21.25 5.57 -23.4 7.89 -25.31 11.88 C-24.4 17.17 -21.18 19.2 -17.11 22.48 C-14.14 24.95 -12.85 26.66 -12.11 30.47 C-11.7 36.7 -11.82 41.4 -15.92 46.42 C-20.31 51 -24.39 53.26 -30.88 53.62 C-37.9 53.03 -41.14 50.62 -45.69 45.5 C-46.36 44.97 -47.03 44.44 -47.72 43.9 C-50.84 41.38 -52.44 39.6 -53.33 35.64 C-53.62 30.21 -53.28 26.47 -49.69 22.25 C-48.71 21.3 -47.72 20.38 -46.69 19.5 C-44.77 19.87 -44.77 19.87 -42.69 20.5 C-41.44 22.56 -41.44 22.56 -40.69 24.5 C-41.35 25.2 -42.01 25.9 -42.69 26.62 C-44.81 29.33 -44.81 29.33 -45.44 32.31 C-44.25 37.37 -40.57 40.23 -36.69 43.5 C-33.41 45.14 -30.21 45.29 -26.69 44.5 C-22.78 41.74 -20.97 38.68 -19.88 34.06 C-21.04 28.95 -23.9 26.02 -27.69 22.5 C-28.66 21.9 -29.63 21.3 -30.62 20.69 C-33.12 18.04 -33.19 16.89 -33.44 13.31 C-33.14 6.71 -30.2 3.08 -25.69 -1.5 C-25.21 -2.04 -24.73 -2.58 -24.24 -3.13 C-20.61 -6.77 -16.94 -7.23 -12.05 -7.65 C-6.61 -7.3 -3.64 -3.73 0 0 Z " fill="#5A664C" transform="translate(926.6875,241.5)"/>
<path d="M0 0 C1.05 0.3 2.1 0.59 3.19 0.89 C4.24 1.18 5.29 1.46 6.38 1.75 C9.19 2.71 9.19 2.71 12.19 4.71 C11.86 6.36 11.53 8.01 11.19 9.71 C9.21 9.71 7.23 9.71 5.19 9.71 C5.52 26.21 5.85 42.71 6.19 59.71 C6.85 59.71 7.51 59.71 8.19 59.71 C8.41 59.04 8.63 58.38 8.86 57.7 C10.61 53.76 12.94 50.42 15.38 46.89 C15.88 46.15 16.39 45.41 16.91 44.64 C18.52 42.29 20.13 39.93 21.75 37.58 C23.37 35.22 24.99 32.86 26.6 30.5 C27.6 29.03 28.61 27.57 29.62 26.1 C30.3 25.11 30.3 25.11 30.99 24.09 C31.39 23.51 31.8 22.92 32.21 22.32 C33.36 20.56 33.36 20.56 34.19 17.71 C31.71 16.72 31.71 16.72 29.19 15.71 C30.94 10.83 30.94 10.83 33.19 9.71 C35.4 10.25 37.58 10.89 39.75 11.58 C40.93 11.95 42.1 12.32 43.32 12.7 C46.19 13.71 46.19 13.71 47.19 14.71 C47.23 16.71 47.23 18.71 47.19 20.71 C46.43 20.79 45.67 20.87 44.89 20.96 C41.56 21.88 40.89 22.85 39.01 25.69 C38.43 26.53 37.86 27.38 37.28 28.25 C36.68 29.17 36.08 30.09 35.46 31.04 C34.52 32.45 34.52 32.45 33.55 33.89 C31.54 36.9 29.55 39.93 27.56 42.96 C26.21 44.98 24.87 47.01 23.52 49.03 C16.67 59.26 16.67 59.26 10.19 69.71 C8.56 69.42 6.94 69.13 5.31 68.83 C4.41 68.67 3.5 68.51 2.57 68.34 C0.19 67.71 0.19 67.71 -1.81 65.71 C-2.08 63.89 -2.08 63.89 -2.12 61.66 C-2.13 60.83 -2.15 59.99 -2.17 59.13 C-2.17 58.22 -2.18 57.31 -2.19 56.38 C-2.21 55.44 -2.23 54.5 -2.24 53.53 C-2.3 50.5 -2.34 47.48 -2.38 44.46 C-1.48 23.1 -1.48 23.1 -5.81 2.71 C-3.92 0.06 -3.32 -0.35 0 0 Z " fill="#5A664C" transform="translate(732.8125,136.29296875)"/>
<path d="M0 0 C3.03 1.33 3.51 3.22 4.8 6.21 C5.22 7.17 5.65 8.14 6.09 9.13 C7.05 11.89 7.05 11.89 7.05 15.89 C5.4 16.22 3.75 16.55 2.05 16.89 C2.05 16.23 2.05 15.57 2.05 14.89 C0.73 14.56 -0.59 14.23 -1.95 13.89 C-3.85 15.91 -5.75 17.93 -7.64 19.96 C-8.17 20.52 -8.7 21.08 -9.25 21.66 C-10.04 22.5 -10.04 22.5 -10.84 23.37 C-11.32 23.88 -11.79 24.38 -12.28 24.91 C-14.68 27.76 -16.78 30.86 -18.95 33.89 C-9.71 33.89 -0.47 33.89 9.05 33.89 C8.72 32.24 8.39 30.59 8.05 28.89 C9.7 28.23 11.35 27.57 13.05 26.89 C14.25 29.16 15.43 31.43 16.61 33.71 C16.95 34.35 17.29 34.99 17.65 35.65 C18.52 37.36 19.29 39.13 20.05 40.89 C19.05 43.89 19.05 43.89 16.98 45.08 C16.35 45.35 15.71 45.62 15.05 45.89 C15.05 44.9 15.05 43.91 15.05 42.89 C11.74 41.79 9.28 41.77 5.8 41.76 C3.92 41.76 3.92 41.76 2.01 41.76 C0.7 41.76 -0.61 41.77 -1.95 41.77 C-3.87 41.76 -3.87 41.76 -5.82 41.76 C-20.2 41.27 -20.2 41.27 -33.64 45.46 C-34.47 45.91 -35.3 46.37 -36.15 46.84 C-36.75 47.19 -37.34 47.53 -37.95 47.89 C-37.62 50.2 -37.29 52.51 -36.95 54.89 C-38.6 55.55 -40.25 56.21 -41.95 56.89 C-45.06 54.27 -46.45 51.18 -48.14 47.52 C-48.94 45.84 -48.94 45.84 -49.75 44.12 C-50.89 41.07 -51.22 39.1 -50.95 35.89 C-48.48 35.4 -48.48 35.4 -45.95 34.89 C-44.96 36.21 -43.97 37.53 -42.95 38.89 C-33.77 38.21 -27.74 32.13 -21.89 25.58 C-21.29 24.92 -20.68 24.25 -20.06 23.57 C-16.41 19.57 -12.8 15.53 -9.29 11.41 C-7.95 9.89 -7.95 9.89 -6.31 8.39 C-4.3 6.18 -4.39 3.79 -3.95 0.89 C-1.95 -0.11 -1.95 -0.11 0 0 Z " fill="#5A664C" transform="translate(1006.953125,350.10546875)"/>
<path d="M0 0 C4.02 3.55 6.43 7.75 9.12 12.31 C13.21 19.16 17.46 25.83 22.09 32.32 C23.14 33.83 24.08 35.41 25 37 C23.76 40.72 22.53 41.28 19.25 43.31 C18.39 43.87 17.53 44.42 16.64 44.99 C14 46 14 46 11.17 45.17 C10.1 44.59 10.1 44.59 9 44 C9 43.01 9 42.02 9 41 C12 38.81 12 38.81 15 37 C13.62 32.99 11.69 30.25 9 27 C-2.77 34.09 -14.41 41.31 -25.68 49.17 C-29.79 52 -29.79 52 -32 52 C-31.01 54.97 -30.02 57.94 -29 61 C-30.65 61.66 -32.3 62.32 -34 63 C-34 62.34 -34 61.68 -34 61 C-34.99 60.67 -35.98 60.34 -37 60 C-38.71 57.78 -40.24 55.6 -41.75 53.25 C-42.17 52.63 -42.6 52.01 -43.04 51.37 C-44.95 48.41 -46.05 46.62 -45.77 43.05 C-45.51 42.37 -45.26 41.7 -45 41 C-43.25 40.25 -43.25 40.25 -41 40 C-38.75 41.81 -38.75 41.81 -37 44 C-37 44.66 -37 45.32 -37 46 C-23.11 37.66 -9.53 28.91 4 20 C2.62 16.42 1.04 13.25 -1 10 C-1.74 10.31 -2.49 10.62 -3.25 10.94 C-5.51 11.81 -7.65 12.48 -10 13 C-10 12.34 -10 11.68 -10 11 C-10.66 11 -11.32 11 -12 11 C-11.85 9.23 -11.85 9.23 -11 7 C-8.5 5.08 -8.5 5.08 -5.44 3.25 C-4.43 2.64 -3.41 2.02 -2.37 1.39 C-1.59 0.93 -0.81 0.47 0 0 Z " fill="#5A664C" transform="translate(976,299)"/>
<path d="M0 0 C1.21 2.12 1.21 2.12 2 4 C-7.02 11.26 -18.84 11.92 -30 11 C-41.87 9.23 -53.38 2.25 -62 -6 C-62 -6.66 -62 -7.32 -62 -8 C-41.63 -14.23 -18.35 -10.88 0 0 Z " fill="#5A664C" transform="translate(568,702)"/>
<path d="M0 0 C-0.82 5.75 -5.73 8.56 -10 12 C-10.69 12.56 -11.39 13.13 -12.11 13.71 C-21.79 20.87 -34.14 23.45 -46 22 C-51.92 20.61 -57.62 18.86 -63 16 C-63 15.34 -63 14.68 -63 14 C-37.17 0.79 -37.17 0.79 -26 -1 C-25 -1.18 -25 -1.18 -23.97 -1.37 C-17.08 -2.41 -6.32 -3.16 0 0 Z " fill="#5A664C" transform="translate(786,688)"/>
<path d="M0 0 C13.64 4.11 23.95 8.49 33 20 C33.81 21.02 34.62 22.05 35.46 23.11 C42.41 32.06 42.41 32.06 43 36 C31.24 36.59 21.63 33.75 12 27 C11.36 26.61 10.73 26.21 10.07 25.8 C5.52 22.59 3.36 18.35 1 13.44 C0.68 12.79 0.37 12.14 0.04 11.47 C-1.69 7.61 -2.45 5.04 -1 1 C-0.67 0.67 -0.34 0.34 0 0 Z " fill="#5A664C" transform="translate(531,655)"/>
<path d="M0 0 C0.85 9.58 -3.33 18.21 -8.96 25.77 C-17.23 34.79 -29.28 37.28 -41 38 C-40.22 30.63 -36.28 25.85 -32 20 C-31.42 19.19 -30.85 18.38 -30.25 17.54 C-24.77 10.58 -17.44 6.83 -9.69 2.86 C-8.36 2.19 -7.06 1.47 -5.77 0.75 C-4 0 -4 0 0 0 Z " fill="#5A664C" transform="translate(760,652)"/>
<path d="M0 0 C0 17.49 0 34.98 0 53 C-6.44 51.71 -10.99 50.44 -15 45 C-16.77 38.12 -16.02 30.72 -15.75 23.69 C-15.72 21.71 -15.69 19.74 -15.66 17.76 C-15.39 3.39 -15.39 3.39 -13 1 C-8.51 -0.32 -4.9 0 0 0 Z " fill="#5A664C" transform="translate(581,549)"/>
<path d="M0 0 C2.79 0.21 2.79 0.21 6.06 0.81 C7.15 1 8.23 1.2 9.35 1.39 C12 2 12 2 13 3 C13.41 8.87 13.53 14.75 13.62 20.64 C13.67 22.62 13.73 24.6 13.81 26.58 C14.48 43.02 14.48 43.02 10.87 47.86 C7.12 50.56 3.5 52.03 -1 53 C-2.21 50.57 -2.13 49.02 -2.15 46.31 C-2.15 45.33 -2.16 44.36 -2.16 43.35 C-2.17 42.3 -2.17 41.24 -2.17 40.16 C-2.17 39.08 -2.17 38 -2.18 36.88 C-2.18 34.6 -2.19 32.31 -2.19 30.02 C-2.19 26.51 -2.21 23.01 -2.22 19.5 C-2.23 17.28 -2.23 15.06 -2.23 12.84 C-2.24 11.79 -2.24 10.73 -2.25 9.65 C-2.25 8.67 -2.25 7.7 -2.24 6.69 C-2.24 5.83 -2.25 4.97 -2.25 4.09 C-2 2 -2 2 0 0 Z " fill="#5A664C" transform="translate(702,548)"/>
<path d="M0 0 C3.21 1.07 3.73 1.59 5.7 4.16 C6.19 4.79 6.67 5.42 7.17 6.06 C7.92 7.05 7.92 7.05 8.69 8.06 C9.2 8.73 9.71 9.39 10.24 10.07 C11.5 11.71 12.75 13.35 14 15 C13.34 16.32 12.68 17.64 12 19 C8 18 8 18 6.26 17.17 C2.54 16.89 0.33 19.42 -2.38 21.69 C-2.98 22.18 -3.59 22.68 -4.22 23.19 C-9.27 27.31 -14.21 31.57 -19.14 35.84 C-23.29 39.43 -27.54 42.79 -32 46 C-31.84 46.76 -31.67 47.53 -31.5 48.31 C-31 51 -31 51 -31 54 C-31.99 54.66 -32.98 55.32 -34 56 C-39.11 52.13 -43.84 47.64 -47 42 C-46.69 39.72 -46.69 39.72 -46 38 C-44.19 37.38 -44.19 37.38 -42 37 C-41.01 37.66 -40.02 38.32 -39 39 C-34.75 38.85 -31.96 35.67 -28.94 33 C-27.77 31.99 -26.61 30.99 -25.45 29.98 C-24.87 29.48 -24.29 28.97 -23.69 28.45 C-16.31 22.09 -8.62 16.07 -1 10 C-1.34 9.38 -1.67 8.77 -2.02 8.13 C-3 6 -3 6 -2.75 3.88 C-2 2 -2 2 0 0 Z " fill="#5A664C" transform="translate(952,270)"/>
<path d="M0 0 C6.22 0.14 12.1 1.03 18 3 C19.12 6.75 19.12 6.75 18 9 C16.35 9 14.7 9 13 9 C10.86 13.58 10.19 18.15 9.46 23.1 C9.26 24.4 9.26 24.4 9.05 25.74 C8.78 27.57 8.5 29.41 8.23 31.25 C7.81 34.06 7.38 36.87 6.95 39.67 C6.68 41.46 6.41 43.25 6.14 45.04 C6.01 45.87 5.88 46.71 5.75 47.58 C5.64 48.36 5.52 49.15 5.41 49.95 C5.3 50.64 5.2 51.33 5.09 52.03 C4.99 54.26 5.25 55.91 6 58 C7.98 59.28 7.98 59.28 10 60 C10 61.98 10 63.96 10 66 C3.4 65.01 -3.2 64.02 -10 63 C-10.33 61.35 -10.66 59.7 -11 58 C-7.53 55.89 -7.53 55.89 -4.86 56.44 C-4.25 56.63 -3.63 56.81 -3 57 C-2.96 56.18 -2.91 55.37 -2.87 54.52 C-2.33 45.73 -1.25 37.13 0.16 28.44 C0.51 26.28 0.85 24.12 1.18 21.96 C2.85 11.46 2.85 11.46 4 8 C2.02 7.34 0.04 6.68 -2 6 C-1.12 1.12 -1.12 1.12 0 0 Z " fill="#5A664C" transform="translate(692,130)"/>
<path d="M0 0 C-2.81 6.49 -8.8 9.74 -15.12 12.38 C-26.1 15.98 -37.52 14.63 -48 10 C-49.86 8.36 -49.86 8.36 -51 7 C-35.49 -0.35 -16.86 -7.87 0 0 Z " fill="#5A664C" transform="translate(619,708)"/>
<path d="M0 0 C0 0.66 0 1.32 0 2 C0.66 2 1.32 2 2 2 C2 2.66 2 3.32 2 4 C0.11 4.82 -1.79 5.63 -3.69 6.44 C-5.27 7.12 -5.27 7.12 -6.89 7.81 C-16.59 11.52 -26.5 10.82 -36.15 7.29 C-40.45 5.34 -44.24 2.85 -48 0 C-47 -3 -47 -3 -45.16 -3.95 C-29.85 -8.4 -14.25 -7.13 0 0 Z " fill="#5A664C" transform="translate(723,712)"/>
<path d="M0 0 C4.06 1.73 5.81 4.26 8.25 7.85 C8.7 8.45 9.15 9.06 9.61 9.68 C12.57 13.89 13.72 16.94 12.88 22.22 C11.27 24.33 11.27 24.33 9.12 25.97 C8.08 26.8 8.08 26.8 7.02 27.64 C6.31 28.17 5.6 28.69 4.88 29.22 C4.17 29.78 3.46 30.35 2.73 30.93 C0.88 32.22 0.88 32.22 -1.12 32.22 C-1.62 31.11 -2.12 30 -2.62 28.85 C-5.33 23.43 -8.96 18.61 -13.12 14.22 C-14.12 13.89 -15.11 13.56 -16.12 13.22 C-16.46 12.23 -16.78 11.24 -17.12 10.22 C-14.93 8.51 -12.72 6.83 -10.5 5.16 C-9.88 4.67 -9.27 4.19 -8.63 3.69 C-5.61 1.45 -3.81 0.27 0 0 Z " fill="#5A664C" transform="translate(848.125,703.77734375)"/>
<path d="M0 0 C0.86 0.34 1.72 0.69 2.61 1.04 C5.25 2.64 5.91 3.44 6.81 6.38 C7.31 11.81 6.29 15.37 3.94 20.25 C3.4 21.38 2.87 22.51 2.32 23.68 C0.81 26.38 0.81 26.38 -1.19 27.38 C-7.07 27.96 -11.37 26.68 -16.19 23.38 C-18.19 20.38 -18.19 20.38 -18.02 17.64 C-17.07 13.9 -15.65 10.56 -13.94 7.12 C-13.65 6.5 -13.36 5.88 -13.07 5.23 C-11.65 2.36 -10.51 0.58 -7.78 -1.15 C-4.59 -1.74 -2.97 -1.25 0 0 Z " fill="#5A664C" transform="translate(511.1875,748.625)"/>
<path d="M0 0 C-0.23 0.64 -0.46 1.27 -0.7 1.93 C-1.15 6.49 0.5 9.94 2.19 14.12 C2.49 14.94 2.8 15.75 3.11 16.58 C5.32 22.26 5.32 22.26 10 26 C9.5 27.49 9.5 27.49 9 29 C5.44 30.69 5.44 30.69 2 32 C1.9 31.33 1.8 30.67 1.7 29.98 C0.56 22.92 -1.41 16.66 -4 10 C-4.33 16.93 -4.66 23.86 -5 31 C-9.93 29.03 -11.36 27.91 -14.69 24.06 C-15.45 23.19 -16.22 22.31 -17.01 21.41 C-19 19 -19 19 -21 16 C-18.32 26.25 -18.32 26.25 -12 34 C-12 34.99 -12 35.98 -12 37 C-14.91 38.26 -16.8 39 -20 39 C-20.5 37.51 -20.5 37.51 -21 36 C-20.01 35.5 -20.01 35.5 -19 35 C-20.65 30.99 -22.32 27 -24 23 C-24.37 22.1 -24.74 21.2 -25.12 20.27 C-25.45 19.48 -25.78 18.69 -26.12 17.88 C-26.42 17.17 -26.71 16.47 -27.01 15.74 C-28.02 13.66 -28.02 13.66 -31 12 C-31 11.34 -31 10.68 -31 10 C-28.36 9.01 -25.72 8.02 -23 7 C-22.24 7.9 -21.48 8.81 -20.7 9.74 C-19.7 10.93 -18.69 12.12 -17.69 13.31 C-16.94 14.2 -16.94 14.2 -16.17 15.12 C-15.69 15.69 -15.2 16.27 -14.7 16.86 C-14.25 17.39 -13.81 17.92 -13.35 18.47 C-11.96 20.05 -10.5 21.53 -9 23 C-9.02 22.41 -9.03 21.82 -9.05 21.21 C-9.11 18.54 -9.15 15.86 -9.19 13.19 C-9.21 12.26 -9.24 11.33 -9.26 10.37 C-9.27 9.48 -9.28 8.59 -9.29 7.67 C-9.31 6.85 -9.32 6.02 -9.34 5.18 C-8.92 2.47 -8.16 1.64 -6 0 C-3 -1 -3 -1 0 0 Z " fill="#5A664C" transform="translate(770,746)"/>
<path d="M0 0 C3.67 3.06 6.61 6 8.72 10.36 C2.37 13.53 -9.72 12.72 -16.38 10.73 C-22.31 8.14 -28.14 3.89 -31.53 -1.7 C-32.28 -3.64 -32.28 -3.64 -32.28 -6.64 C-22.08 -9.34 -8.48 -6.1 0 0 Z " fill="#5A664C" transform="translate(609.28125,685.640625)"/>
<path d="M0 0 C3.58 0.33 5.85 2.15 8.62 4.31 C9.4 4.91 10.18 5.5 10.98 6.11 C13.79 8.74 14.78 10.95 15.56 14.69 C14.67 19.93 11.93 23.49 8 27 C4.23 28.09 3.49 28.27 0 27 C-4.2 24.59 -8.12 21.9 -12 19 C-10.53 14.85 -8.46 11.46 -6 7.81 C-5.3 6.77 -4.6 5.72 -3.88 4.64 C-2 2 -2 2 0 0 Z " fill="#FBFDFD" transform="translate(863,201)"/>
<path d="M0 0 C-1.94 6.89 -8.11 13.17 -14 17 C-19.21 18.79 -23.81 19.34 -29.25 19.31 C-29.96 19.33 -30.66 19.34 -31.39 19.36 C-36.52 19.37 -36.52 19.37 -38.98 17.48 C-39.32 16.99 -39.65 16.5 -40 16 C-31.3 6.56 -14 -7 0 0 Z " fill="#5A664C" transform="translate(715,679)"/>
<path d="M0 0 C2.94 0.81 2.94 0.81 6 2 C6.33 2.99 6.66 3.98 7 5 C6.01 5.66 5.02 6.32 4 7 C3.6 10.29 3.6 10.29 3.75 14 C3.77 15.26 3.78 16.52 3.8 17.81 C3.79 20.9 3.79 20.9 5 23 C6.33 21.13 7.63 19.26 8.94 17.38 C9.67 16.33 10.4 15.29 11.15 14.21 C13 10.99 13.65 8.66 14 5 C16.88 4.88 16.88 4.88 20 5 C20.66 5.66 21.32 6.32 22 7 C21.7 8.34 21.36 9.67 21 11 C20.91 13.55 20.86 16.07 20.88 18.62 C20.87 19.31 20.87 19.99 20.86 20.69 C20.82 24.47 20.82 24.47 22 28 C23.37 25.93 24.72 23.84 26.06 21.75 C26.65 20.87 26.65 20.87 27.24 19.97 C29.51 16.6 29.51 16.6 29.62 12.7 C29.42 12.14 29.21 11.58 29 11 C29.66 10.34 30.32 9.68 31 9 C33.5 9.12 33.5 9.12 36 10 C37.31 12.06 37.31 12.06 38 14 C37.27 14.68 36.54 15.35 35.78 16.05 C32.22 19.6 29.88 23.84 27.39 28.18 C25.64 31.08 24.55 32.78 21.34 34.05 C19 34 19 34 17 32 C16.85 29.09 16.81 26.28 16.88 23.38 C16.88 22.57 16.89 21.77 16.9 20.95 C16.93 18.96 16.96 16.98 17 15 C16.34 14.67 15.68 14.34 15 14 C14.62 15.07 14.62 15.07 14.23 16.17 C12.91 19.2 11.31 21.63 9.38 24.31 C8.74 25.2 8.11 26.08 7.46 26.99 C6.74 27.98 6.74 27.98 6 29 C4.02 28.67 2.04 28.34 0 28 C-0.39 23.71 -0.76 19.42 -1.12 15.12 C-1.24 13.9 -1.35 12.68 -1.46 11.42 C-1.61 9.67 -1.61 9.67 -1.76 7.88 C-1.9 6.26 -1.9 6.26 -2.04 4.61 C-2 2 -2 2 0 0 Z " fill="#5A664C" transform="translate(529,757)"/>
<path d="M0 0 C2.44 1.12 2.44 1.12 5 3 C6.21 7.54 5.86 11.29 5.06 15.88 C4.87 17.03 4.67 18.18 4.47 19.37 C4.32 20.24 4.16 21.1 4 22 C8.91 22 12.13 18.48 15.99 15.65 C19 14 19 14 21.8 14.09 C24 15 24 15 25.31 17.56 C25.65 18.77 25.65 18.77 26 20 C25.39 20.1 24.78 20.2 24.15 20.31 C20.55 21.47 19.18 24.79 17.31 27.88 C16.91 28.51 16.51 29.15 16.09 29.81 C14.41 32.51 13.01 34.97 12 38 C12.66 38.33 13.32 38.66 14 39 C12.38 39.75 12.38 39.75 10 40 C6.75 38.19 6.75 38.19 4 36 C4 35.34 4 34.68 4 34 C4.87 33.69 5.73 33.38 6.62 33.06 C11.21 30.26 13.31 26.55 16 22 C10.66 24.47 10.66 24.47 5.88 27.81 C4 29 4 29 -2 28 C-1.34 23.38 -0.68 18.76 0 14 C-3.5 17.5 -5.12 19.59 -7 24 C-7 24.99 -7 25.98 -7 27 C-9.97 25.88 -12.33 24.78 -15 23 C-15 22.01 -15 21.02 -15 20 C-14.26 19.95 -13.53 19.91 -12.77 19.86 C-8.88 18.65 -7.87 16.63 -5.69 13.25 C-4.99 12.2 -4.29 11.16 -3.57 10.08 C-1.96 6.93 -1.84 5.43 -2 2 C-1.34 1.34 -0.68 0.68 0 0 Z " fill="#5C684E" transform="translate(440,709)"/>
<path d="M0 0 C2.59 -0.16 5.16 -0.28 7.75 -0.38 C8.84 -0.45 8.84 -0.45 9.96 -0.53 C12.11 -0.59 12.11 -0.59 16 0 C18.59 2.82 19.81 4.76 20.39 8.55 C20.32 9.7 20.32 9.7 20.25 10.88 C20.21 11.66 20.18 12.44 20.14 13.24 C20.07 14.11 20.07 14.11 20 15 C18.02 15.99 18.02 15.99 16 17 C17.49 21.46 17.49 21.46 19 26 C19.66 26 20.32 26 21 26 C21 26.66 21 27.32 21 28 C18.69 28 16.38 28 14 28 C13.69 26.91 13.38 25.81 13.06 24.69 C12.42 22.45 11.74 20.21 11 18 C9.02 18 7.04 18 5 18 C5.66 20.97 6.32 23.94 7 27 C4.36 27 1.72 27 -1 27 C-1.33 26.01 -1.66 25.02 -2 24 C-1.34 23.67 -0.68 23.34 0 23 C0.2 19.92 0.38 16.83 0.56 13.75 C0.62 12.88 0.67 12 0.73 11.11 C0.78 10.26 0.83 9.42 0.88 8.55 C0.93 7.77 0.97 7 1.02 6.2 C1 3.97 0.63 2.13 0 0 Z " fill="#5A664C" transform="translate(605,774)"/>
<path d="M0 0 C5.99 0.31 10.53 3.18 15 7 C16.75 9.75 17.03 10.67 16.75 14 C16.09 16.65 15.45 18.7 14 21 C10.49 22.76 6.68 22.56 2.98 21.33 C1.3 20.6 -0.35 19.81 -2 19 C-2.8 22.29 -3.1 23.71 -2 27 C-5.79 26.47 -8.17 25.62 -11 23 C-11 22.34 -11 21.68 -11 21 C-10.42 20.96 -9.83 20.92 -9.23 20.88 C-5.78 19.52 -4.97 17.09 -3.25 13.88 C-2.64 12.76 -2.02 11.64 -1.39 10.49 C0.11 6.72 0.27 4.02 0 0 Z " fill="#5A664C" transform="translate(475,733)"/>
<path d="M0 0 C0.56 0.23 1.11 0.45 1.69 0.69 C1.79 2.2 1.79 2.2 1.89 3.74 C2.64 8.96 5.67 12.55 8.71 16.7 C9.95 18.48 9.95 18.48 11.69 21.69 C10.96 24.11 10.96 24.11 9.69 25.69 C5.97 25.11 3.27 24.09 0.04 22.18 C-0.8 21.69 -1.64 21.2 -2.51 20.69 C-3.37 20.17 -4.23 19.66 -5.12 19.12 C-6.01 18.6 -6.89 18.08 -7.8 17.55 C-9.98 16.27 -12.15 14.98 -14.31 13.69 C-13.19 15.67 -12.07 17.65 -10.94 19.62 C-10.31 20.73 -9.68 21.83 -9.04 22.96 C-7.59 25.76 -7.59 25.76 -5.31 26.69 C-5.31 27.35 -5.31 28.01 -5.31 28.69 C-3.99 29.02 -2.67 29.35 -1.31 29.69 C-2.41 32.68 -2.99 33.53 -5.94 34.94 C-6.72 35.18 -7.5 35.43 -8.31 35.69 C-10.31 32.69 -10.31 32.69 -10.7 30.39 C-11.5 26.85 -13.16 24.49 -15.19 21.5 C-15.89 20.45 -16.58 19.41 -17.3 18.33 C-19.22 15.52 -19.22 15.52 -22.31 13.69 C-22.31 13.03 -22.31 12.37 -22.31 11.69 C-19.66 9.58 -18.07 8.66 -14.66 8.79 C-10.18 9.99 -6.79 12.22 -2.94 14.75 C-2.2 15.22 -1.47 15.69 -0.71 16.18 C1.1 17.34 2.89 18.51 4.69 19.69 C4.19 18.92 3.7 18.15 3.19 17.35 C2.55 16.35 1.91 15.35 1.25 14.31 C0.61 13.31 -0.03 12.32 -0.68 11.29 C-2.31 8.69 -2.31 8.69 -3.31 6.69 C-4.3 6.36 -5.29 6.03 -6.31 5.69 C-6.64 4.7 -6.97 3.71 -7.31 2.69 C-2.88 -0.39 -2.88 -0.39 0 0 Z " fill="#5A664C" transform="translate(821.3125,722.3125)"/>
<path d="M0 0 C-1 4 -1 4 -1.56 5.88 C-2.04 8.18 -1.91 9.81 -1.56 12.12 C-0.92 17.1 -0.91 21.99 -1 27 C-5.53 27.36 -5.53 27.36 -7.59 25.79 C-8.03 25.22 -8.48 24.65 -8.94 24.06 C-9.43 23.43 -9.93 22.8 -10.44 22.14 C-18 11.74 -18 11.74 -18 8 C-18.99 8.5 -18.99 8.5 -20 9 C-19.72 11.42 -19.42 13.83 -19.12 16.25 C-19.05 16.93 -18.97 17.61 -18.89 18.32 C-18.43 21.91 -17.91 24.89 -16 28 C-18.71 29.35 -21.01 29.07 -24 29 C-24.33 28.01 -24.66 27.02 -25 26 C-24.34 26 -23.68 26 -23 26 C-23.28 23.1 -23.58 20.21 -23.88 17.31 C-23.95 16.5 -24.03 15.68 -24.11 14.84 C-24.56 10.57 -25.1 6.91 -27 3 C-23.91 1.24 -22.77 1 -19 1 C-17.57 2.54 -17.57 2.54 -16.27 4.68 C-15.8 5.45 -15.32 6.21 -14.84 6.99 C-14.35 7.8 -13.87 8.61 -13.38 9.44 C-12.41 11.02 -11.44 12.6 -10.46 14.18 C-9.82 15.24 -9.82 15.24 -9.17 16.33 C-8.09 18.15 -8.09 18.15 -6 19 C-6.48 9.8 -6.48 9.8 -9 1 C-3.38 -1.12 -3.38 -1.12 0 0 Z " fill="#5B674D" transform="translate(685,773)"/>
<path d="M0 0 C1.08 0.1 2.16 0.2 3.28 0.3 C4.9 0.43 4.9 0.43 6.56 0.56 C7.88 0.8 7.88 0.8 9.21 1.05 C11.68 5.97 11.38 11.8 10.21 17.05 C7.18 21.37 2.68 24.36 -1.79 27.05 C-2.45 27.05 -3.11 27.05 -3.79 27.05 C-5.79 23.04 -4.97 17.95 -4.97 13.55 C-4.98 12.48 -5 11.4 -5.01 10.3 C-5.01 9.28 -5.01 8.26 -5.02 7.2 C-5.02 6.26 -5.02 5.32 -5.03 4.35 C-4.65 0.75 -3.56 0.06 0 0 Z " fill="#5A664C" transform="translate(735.78515625,551.953125)"/>
<path d="M0 0 C0 9.24 0 18.48 0 28 C-3.47 26.02 -3.47 26.02 -7 24 C-7.73 23.61 -8.46 23.22 -9.21 22.82 C-11.42 21.37 -12.61 20.28 -14 18 C-14.81 12.91 -14.96 8.09 -14 3 C-9.94 -1.18 -5.45 -1.36 0 0 Z " fill="#5A664C" transform="translate(550,553)"/>
<path d="M0 0 C4.33 0.51 6.49 1.89 9.69 4.81 C10.45 5.5 11.22 6.19 12.01 6.89 C13.88 8.87 14.95 10.51 16 13 C14.71 14.38 13.37 15.71 12 17 C11.34 17 10.68 17 10 17 C10.08 16.26 10.17 15.51 10.25 14.75 C10.23 11.88 10.23 11.88 8.25 9.62 C6.18 7.78 6.18 7.78 3.94 8.06 C1.75 9.12 0.48 10.08 -1 12 C-1.35 15.24 -1.35 15.24 1.5 17.56 C2.74 18.77 2.74 18.77 4 20 C4 20.66 4 21.32 4 22 C1.08 20.93 -0.78 20.22 -3 18 C-4.99 17.78 -4.99 17.78 -7 19 C-8.58 21.25 -9.75 23.54 -11 26 C-5.67 28.26 -5.67 28.26 0 29 C-0.25 30.88 -0.25 30.88 -1 33 C-3.05 34.13 -3.05 34.13 -5 35 C-7.18 33.24 -9.34 31.47 -11.5 29.69 C-12.12 29.19 -12.74 28.69 -13.38 28.17 C-14.98 26.85 -16.49 25.43 -18 24 C-18 23.01 -18 22.02 -18 21 C-16.35 21 -14.7 21 -13 21 C-12.77 20.46 -12.55 19.92 -12.32 19.37 C-10.26 15.67 -7.36 12.65 -4.54 9.51 C-1.86 6.41 -0.37 4.12 0 0 Z " fill="#5A664C" transform="translate(418,687)"/>
<path d="M0 0 C2.04 0.12 4.08 0.24 6.12 0.38 C7.26 0.44 8.4 0.51 9.57 0.59 C12.95 0.99 15.82 1.81 19 3 C19 5.97 19 8.94 19 12 C15.12 9.38 15.12 9.38 14 6 C11.03 5.5 11.03 5.5 8 5 C5.69 7.72 5.69 7.72 6.38 10.19 C6.58 10.79 6.79 11.38 7 12 C9.97 12.5 9.97 12.5 13 13 C13.33 14.32 13.66 15.64 14 17 C11.98 16.9 9.96 16.8 7.95 16.71 C6.98 16.85 6.98 16.85 6 17 C3.72 19.82 3.72 19.82 4 23 C8.46 23.99 8.46 23.99 13 25 C13.33 24.01 13.66 23.02 14 22 C14.66 22 15.32 22 16 22 C16 24.31 16 26.62 16 29 C2.37 28.22 2.37 28.22 -4 26 C-3.3 25.03 -3.3 25.03 -2.58 24.04 C-0.57 20.17 -0.18 16.73 0.25 12.44 C0.34 11.68 0.43 10.93 0.52 10.15 C0.92 6.49 1.03 3.52 0 0 Z " fill="#5A664C" transform="translate(575,770)"/>
<path d="M0 0 C2.04 2.04 3 3.08 3 6 C1.42 5.69 1.42 5.69 -0.19 5.38 C-4 5 -5.67 5.28 -9 7 C-9 8.65 -9 10.3 -9 12 C-6.24 12.86 -6.24 12.86 -3 13 C-0.34 11.17 -0.34 11.17 2 9 C4 8.06 4 8.06 6 8 C10.63 10.26 10.63 10.26 12 13 C12.77 19.62 12.77 19.62 10.94 22.89 C8.82 25.35 7.21 26.85 3.93 27.25 C0.8 26.97 -1.52 26.38 -4 24.44 C-4.33 23.96 -4.66 23.49 -5 23 C-4.67 22.34 -4.34 21.68 -4 21 C-3.37 21.1 -2.75 21.19 -2.1 21.29 C-1.28 21.4 -0.47 21.51 0.38 21.62 C1.19 21.74 2 21.86 2.84 21.98 C3.55 21.98 4.26 21.99 5 22 C5.66 21.34 6.32 20.68 7 20 C6.68 16.4 6.68 16.4 6 13 C4.87 13.64 3.73 14.28 2.56 14.94 C1.92 15.3 1.29 15.66 0.63 16.03 C-0.98 16.9 -0.98 16.9 -2 18 C-5.87 18.54 -8.29 18.18 -11.44 15.94 C-14 13 -14 13 -14.31 9.56 C-12.01 3.3 -7.1 -1.61 0 0 Z " fill="#5A664C" transform="translate(872,686)"/>
<path d="M0 0 C2 3 2 3 2 7 C0.68 6.34 -0.64 5.68 -2 5 C-2 4.34 -2 3.68 -2 3 C-3.26 3.1 -4.52 3.21 -5.81 3.31 C-6.52 3.37 -7.23 3.43 -7.96 3.49 C-10.61 4.15 -11.57 4.64 -13 7 C-12.7 10.46 -12.7 10.46 -11.69 14.19 C-11.38 15.46 -11.08 16.73 -10.76 18.04 C-10.51 19.02 -10.26 19.99 -10 21 C-4.95 21.96 -4.95 21.96 0 21 C0 19.35 0 17.7 0 16 C-2.48 15.01 -2.48 15.01 -5 14 C-5 13.34 -5 12.68 -5 12 C-2.36 11.34 0.28 10.68 3 10 C4.58 14.16 5.4 17.54 5 22 C2.53 25.71 1.18 25.83 -2.98 26.71 C-6.95 27.28 -9.23 26.43 -12.69 24.5 C-16.74 20.11 -17.03 14.55 -17.38 8.75 C-16.94 4.35 -16.36 2.85 -13 0 C-8.38 -2.02 -4.48 -2.77 0 0 Z " fill="#5A664C" transform="translate(713,770)"/>
<path d="M0 0 C3.62 0.94 3.62 0.94 7 3 C8.68 7.04 8.44 8.81 6.93 12.9 C5.69 15.65 4.39 18.33 3 21 C-1.91 21.16 -4.71 20.45 -9 18 C-8.37 14.14 -7.23 10.87 -5.62 7.31 C-5.2 6.36 -4.78 5.41 -4.35 4.43 C-3 2 -3 2 0 0 Z " fill="#FBFDFD" transform="translate(506,751)"/>
<path d="M0 0 C3.85 1.28 4.8 3 7.19 6.25 C7.9 7.2 8.62 8.16 9.36 9.14 C11.09 12.16 11.59 13.59 11 17 C8.5 19.31 8.5 19.31 6 21 C1.36 19.62 -0.57 17.51 -3.38 13.62 C-4.44 12.19 -4.44 12.19 -5.52 10.73 C-7 8 -7 8 -6.91 5.79 C-5.37 2.76 -2.92 1.58 0 0 Z " fill="#FBFDFD" transform="translate(846,708)"/>
<path d="M0 0 C0.66 0.33 1.32 0.66 2 1 C1.77 1.7 1.55 2.39 1.32 3.11 C0.89 6.96 2.09 8.82 3.94 12.19 C7 17.85 7 17.85 7 20 C7.66 20 8.32 20 9 20 C9 20.66 9 21.32 9 22 C10.32 22.33 11.64 22.66 13 23 C13 23.66 13 24.32 13 25 C7.38 28 7.38 28 4 28 C3.67 27.01 3.34 26.02 3 25 C3.66 25 4.32 25 5 25 C3.57 22.2 2.13 19.41 0.69 16.62 C0.28 15.83 -0.12 15.04 -0.54 14.22 C-0.93 13.46 -1.33 12.7 -1.74 11.91 C-2.28 10.86 -2.28 10.86 -2.83 9.79 C-4.03 7.69 -4.03 7.69 -7 6 C-6 3 -6 3 -3.06 1.25 C-2.05 0.84 -1.04 0.42 0 0 Z " fill="#5A664C" transform="translate(788,740)"/>
<path d="M0 0 C2.64 0 5.28 0 8 0 C8 1.32 8 2.64 8 4 C7.67 4.33 7.34 4.66 7 5 C6.87 7.95 6.81 10.86 6.81 13.81 C6.8 14.63 6.79 15.45 6.78 16.3 C6.77 17.09 6.77 17.89 6.77 18.71 C6.77 19.43 6.76 20.16 6.76 20.91 C6.93 23.43 6.93 23.43 9 27 C6.03 27 3.06 27 0 27 C0.33 26.01 0.66 25.02 1 24 C1.08 22.37 1.11 20.74 1.1 19.11 C1.09 18.18 1.09 17.24 1.09 16.27 C1.08 15.3 1.07 14.32 1.06 13.31 C1.06 11.83 1.06 11.83 1.05 10.32 C1.04 7.88 1.02 5.44 1 3 C0.34 3 -0.32 3 -1 3 C-0.67 2.01 -0.34 1.02 0 0 Z " fill="#5A664C" transform="translate(638,775)"/>
<path d="M0 0 C3.65 1.25 4.78 1.67 7 5 C6.44 10.56 6.44 10.56 5 12 C1.53 12.31 -0.39 12.39 -3.38 10.5 C-3.91 10 -4.45 9.51 -5 9 C-3.91 5.22 -3.09 2.53 0 0 Z " fill="#FBFDFD" transform="translate(481,739)"/>
<path d="M0 0 C0.97 0.16 1.94 0.33 2.94 0.5 C5.23 3.94 5.2 5.47 4.94 9.5 C3.94 10.5 3.94 10.5 1.87 10.6 C1.05 10.59 0.22 10.57 -0.62 10.56 C-1.45 10.55 -2.28 10.54 -3.13 10.54 C-3.77 10.52 -4.41 10.51 -5.06 10.5 C-6.06 7.33 -6.19 5.84 -5 2.69 C-3.06 0.5 -3.06 0.5 0 0 Z " fill="#FBFDFD" transform="translate(616.0625,777.5)"/>
<path d="M0 0 C0.99 0.66 1.98 1.32 3 2 C2.88 3.81 2.88 3.81 2 6 C-1.06 7.75 -1.06 7.75 -4 9 C-4.33 8.34 -4.66 7.68 -5 7 C-3.57 4.27 -2.18 2.18 0 0 Z " fill="#5A664C" transform="translate(406,671)"/>
<path d="M0 0 C4.21 1.5 5.74 4.29 8 8 C4 8 2.2 6.27 -1 4 C-0.67 2.68 -0.34 1.36 0 0 Z " fill="#5A664C" transform="translate(873,670)"/>
<path d="M0 0 C0.99 0.99 1.98 1.98 3 3 C0.03 5.48 0.03 5.48 -3 8 C-3.66 7.67 -4.32 7.34 -5 7 C-3.75 3.35 -3.33 2.22 0 0 Z " fill="#5A664C" transform="translate(411,676)"/>
<path d="M0 0 C3 1 3 1 4.75 3.44 C5.37 4.71 5.37 4.71 6 6 C5.67 6.66 5.34 7.32 5 8 C3.02 6.68 1.04 5.36 -1 4 C-0.67 2.68 -0.34 1.36 0 0 Z " fill="#5A664C" transform="translate(878,665)"/>
</svg>
