<?xml version="1.0" encoding="UTF-8"?>
<!-- Generator: visioncortex VTracer 0.6.3 -->
<svg version="1.1" xmlns="http://www.w3.org/2000/svg" width="1280" height="1280">
<path d="M0 0 C422.4 0 844.8 0 1280 0 C1280 422.4 1280 844.8 1280 1280 C857.6 1280 435.2 1280 0 1280 C0 857.6 0 435.2 0 0 Z " fill="#1E2731" transform="translate(0,0)"/>
<path d="M0 0 C0.75 -0 1.49 -0.01 2.26 -0.01 C4.79 -0.02 7.31 -0.01 9.84 0 C11.66 -0 13.48 -0.01 15.3 -0.01 C20.32 -0.02 25.33 -0.01 30.35 -0 C35.76 0.01 41.16 -0 46.57 -0.01 C57.16 -0.02 67.75 -0.01 78.35 0 C90.67 0.01 103 0.01 115.33 0.01 C137.31 0.01 159.3 0.02 181.28 0.04 C202.64 0.06 223.99 0.06 245.35 0.06 C268.58 0.05 291.81 0.05 315.04 0.06 C317.51 0.07 319.99 0.07 322.46 0.07 C323.68 0.07 324.9 0.07 326.15 0.07 C334.76 0.07 343.36 0.07 351.96 0.07 C362.43 0.07 372.91 0.07 383.38 0.09 C388.73 0.1 394.08 0.1 399.43 0.1 C404.32 0.09 409.21 0.1 414.1 0.11 C415.87 0.11 417.65 0.11 419.42 0.11 C421.82 0.1 424.22 0.11 426.62 0.12 C427.33 0.12 428.03 0.11 428.75 0.11 C433.52 0.15 433.52 0.15 435.75 2.37 C436.01 5.31 436.01 5.31 436.02 9.17 C436.03 9.88 436.03 10.59 436.04 11.32 C436.05 13.73 436.05 16.13 436.05 18.54 C436.06 20.27 436.07 22 436.07 23.73 C436.1 28.51 436.11 33.29 436.11 38.07 C436.12 43.21 436.14 48.36 436.16 53.51 C436.21 65.94 436.23 78.38 436.25 90.82 C436.26 95.5 436.27 100.18 436.28 104.87 C436.32 125.49 436.36 146.12 436.38 166.75 C436.38 171.8 436.39 176.85 436.39 181.9 C436.4 183.16 436.4 184.41 436.4 185.71 C436.42 206.05 436.48 226.39 436.55 246.73 C436.63 267.6 436.67 288.47 436.68 309.35 C436.68 321.07 436.7 332.79 436.76 344.52 C436.81 354.5 436.83 364.49 436.81 374.47 C436.8 379.56 436.8 384.66 436.85 389.75 C436.89 394.42 436.89 399.08 436.85 403.75 C436.85 405.44 436.86 407.12 436.88 408.81 C437.07 421.44 437.07 421.44 433.75 426.3 C431.31 428.72 431.31 428.72 428.89 430.66 C425.78 433.16 424.8 435.52 423.31 439.19 C422.86 440.27 422.41 441.35 421.94 442.46 C421.55 443.42 421.15 444.38 420.75 445.37 C420.1 446.72 419.44 448.05 418.75 449.37 C419.41 449.37 420.07 449.37 420.75 449.37 C421.01 448.78 421.26 448.19 421.53 447.57 C422.86 445.18 424.15 443.93 426.25 442.19 C429.61 439.34 432.92 436.45 436.19 433.5 C437.03 432.74 437.88 431.98 438.75 431.2 C441.4 429.1 441.4 429.1 441.89 425.99 C441.9 424.93 441.91 423.87 441.92 422.79 C441.94 420.99 441.94 420.99 441.96 419.16 C441.97 417.86 441.98 416.56 442 415.22 C442.01 413.88 442.03 412.54 442.04 411.21 C442.11 405.51 442.17 399.81 442.23 394.11 C442.26 390.62 442.3 387.14 442.35 383.66 C442.37 381.68 442.38 379.7 442.4 377.72 C442.41 376.53 442.43 375.33 442.45 374.09 C442.46 373.04 442.47 371.98 442.48 370.89 C442.75 368.37 442.75 368.37 444.75 366.37 C446.96 366.13 446.96 366.13 449.75 366.15 C450.79 366.15 451.83 366.15 452.9 366.15 C454.59 366.16 454.59 366.16 456.32 366.18 C457.47 366.18 458.62 366.19 459.81 366.19 C463.5 366.2 467.19 366.22 470.87 366.25 C473.37 366.26 475.87 366.27 478.36 366.28 C484.49 366.3 490.62 366.33 496.75 366.37 C497.86 370.1 497.86 370.1 496.86 372.55 C496.39 373.33 495.91 374.11 495.42 374.91 C494.9 375.79 494.37 376.68 493.82 377.58 C493.24 378.53 492.66 379.47 492.06 380.44 C491.47 381.41 490.88 382.38 490.28 383.39 C486.36 389.84 482.35 396.24 478.31 402.62 C477.82 403.41 477.32 404.19 476.81 405 C474.77 408.22 472.71 411.43 470.6 414.6 C470.03 415.48 469.46 416.35 468.87 417.25 C468.4 417.95 467.93 418.65 467.44 419.37 C466.44 422.26 467.51 423.63 468.75 426.37 C469.55 427.88 470.39 429.36 471.26 430.83 C472.02 432.11 472.02 432.11 472.79 433.42 C473.33 434.33 473.88 435.25 474.44 436.19 C475 437.14 475.57 438.09 476.15 439.07 C481.25 447.64 486.54 456.1 491.9 464.52 C492.8 465.95 492.8 465.95 493.73 467.41 C494.26 468.25 494.8 469.09 495.35 469.95 C496.75 472.37 497.74 474.78 498.75 477.37 C497.51 477.35 496.28 477.32 495 477.28 C483.28 477.02 471.56 476.85 459.84 476.78 C453.81 476.74 447.79 476.67 441.76 476.51 C412.28 474.18 412.28 474.18 386.49 485.29 C383.6 488.56 381.08 491.87 378.89 495.66 C378.52 496.22 378.14 496.79 377.75 497.37 C377.09 497.37 376.43 497.37 375.75 497.37 C375.53 497.93 375.31 498.48 375.09 499.05 C373.32 502.11 370.92 504.24 368.31 506.56 C367.77 507.05 367.23 507.54 366.67 508.04 C361.5 512.66 356.2 517.09 350.75 521.37 C350.06 521.92 349.37 522.47 348.65 523.03 C244.32 605.3 244.32 605.3 212.96 602.09 C209.55 601.33 206.81 600.19 203.66 598.67 C202.5 598.11 201.33 597.55 200.13 596.97 C198.88 596.36 197.63 595.74 196.37 595.12 C195.74 594.81 195.1 594.5 194.44 594.18 C155.77 575.32 118.75 552.94 84.58 526.77 C82.82 525.43 81.06 524.11 79.29 522.79 C72.23 517.49 65.68 511.85 59.29 505.77 C58.2 504.79 57.09 503.84 55.95 502.92 C52.11 499.78 49.25 496.83 46.65 492.59 C41.99 485.71 36.59 479.79 28.28 477.77 C13.15 475.29 -2.58 476.21 -17.84 476.61 C-23.87 476.74 -29.89 476.77 -35.92 476.8 C-47.7 476.89 -59.47 477.09 -71.25 477.37 C-71.25 473.65 -70.15 472.14 -68.24 468.95 C-67.27 467.3 -67.27 467.3 -66.27 465.63 C-65.75 464.75 -65.75 464.75 -65.21 463.86 C-64.12 462.05 -63.04 460.23 -61.96 458.42 C-58.44 452.51 -54.83 446.68 -51.04 440.94 C-50.39 439.96 -49.74 438.97 -49.07 437.96 C-47.84 436.11 -46.6 434.27 -45.33 432.44 C-42.9 428.8 -41.32 426.34 -40.99 421.93 C-42.83 416.76 -45.56 412.37 -48.5 407.75 C-49.12 406.75 -49.74 405.75 -50.38 404.73 C-51.68 402.65 -52.98 400.57 -54.29 398.5 C-56.8 394.49 -59.3 390.48 -61.78 386.46 C-62.91 384.65 -64.03 382.83 -65.16 381.03 C-65.67 380.21 -66.18 379.39 -66.7 378.55 C-67.37 377.48 -67.37 377.48 -68.05 376.39 C-68.45 375.73 -68.84 375.06 -69.25 374.37 C-69.65 373.71 -70.06 373.05 -70.47 372.36 C-71.43 369.92 -70.97 368.83 -70.25 366.37 C-62.86 366.35 -55.48 366.33 -48.09 366.32 C-45.57 366.31 -43.06 366.31 -40.54 366.3 C-36.94 366.29 -33.33 366.28 -29.72 366.28 C-28.03 366.27 -28.03 366.27 -26.29 366.26 C-24.73 366.26 -24.73 366.26 -23.14 366.26 C-22.22 366.26 -21.29 366.26 -20.35 366.25 C-18.25 366.37 -18.25 366.37 -17.25 367.37 C-17.16 369.21 -17.15 371.05 -17.16 372.88 C-17.16 374.65 -17.16 374.65 -17.16 376.46 C-17.17 377.74 -17.18 379.03 -17.18 380.35 C-17.17 383.05 -17.16 385.75 -17.15 388.45 C-17.13 392.72 -17.12 396.99 -17.15 401.27 C-17.17 404.05 -17.17 406.82 -17.15 409.6 C-17.13 412.22 -17.13 414.84 -17.17 417.46 C-17.09 425.32 -17.09 425.32 -12.82 431.62 C-11.66 432.57 -10.47 433.49 -9.25 434.37 C-8.58 435 -7.9 435.63 -7.2 436.27 C-1.65 441.09 4.04 445.74 9.75 450.37 C5.17 440.52 0.22 433.11 -7.81 425.77 C-10.82 422.82 -11.22 421.3 -11.37 417.12 C-11.38 415.74 -11.38 414.35 -11.37 412.97 C-11.37 412.2 -11.37 411.44 -11.37 410.65 C-11.37 408.04 -11.37 405.43 -11.36 402.82 C-11.36 400.92 -11.36 399.02 -11.36 397.12 C-11.36 391.83 -11.35 386.53 -11.34 381.23 C-11.33 376.64 -11.33 372.04 -11.32 367.45 C-11.31 355.16 -11.3 342.86 -11.28 330.57 C-11.26 320.13 -11.24 309.69 -11.23 299.25 C-11.18 261.13 -11.11 223 -11.02 184.88 C-11.01 181.36 -11 177.84 -10.99 174.32 C-10.99 173.44 -10.98 172.57 -10.98 171.67 C-10.95 157.25 -10.92 142.82 -10.9 128.4 C-10.88 113.37 -10.85 98.35 -10.8 83.32 C-10.78 74.15 -10.76 64.98 -10.75 55.81 C-10.75 49.6 -10.73 43.39 -10.71 37.18 C-10.69 33.61 -10.68 30.03 -10.69 26.46 C-10.69 22.6 -10.67 18.74 -10.65 14.87 C-10.65 13.74 -10.66 12.61 -10.66 11.44 C-10.65 10.41 -10.65 9.38 -10.64 8.32 C-10.63 7.43 -10.63 6.54 -10.63 5.63 C-10.25 3.37 -10.25 3.37 -9.18 1.59 C-6.26 -0.25 -3.35 -0.04 0 0 Z " fill="#385F3B" transform="translate(426.25081729888916,337.62526988983154)"/>
<path d="M0 0 C1.79 0 1.79 0 3.61 0 C4.61 -0 4.61 -0 5.63 -0.01 C7.88 -0.01 10.13 -0.01 12.39 0 C14.01 0 15.63 -0 17.25 -0.01 C21.73 -0.01 26.2 -0.01 30.68 0 C35.49 0.01 40.31 0 45.13 0 C54.58 -0 64.02 0 73.47 0.01 C84.46 0.02 95.45 0.02 106.44 0.02 C126.04 0.02 145.64 0.03 165.24 0.04 C184.28 0.06 203.32 0.06 222.36 0.06 C223.53 0.06 224.71 0.06 225.91 0.06 C227.67 0.06 227.67 0.06 229.46 0.06 C251.11 0.06 272.75 0.07 294.4 0.08 C302.07 0.08 309.74 0.08 317.41 0.08 C326.75 0.08 336.08 0.09 345.42 0.1 C350.19 0.1 354.96 0.1 359.73 0.1 C364.09 0.1 368.45 0.11 372.81 0.11 C374.39 0.11 375.98 0.12 377.56 0.11 C379.7 0.11 381.84 0.12 383.98 0.12 C385.77 0.12 385.77 0.12 387.59 0.12 C390.23 0.25 390.23 0.25 391.23 1.25 C391.33 2.78 391.36 4.31 391.36 5.84 C391.36 6.84 391.36 7.84 391.36 8.86 C391.36 9.97 391.36 11.08 391.35 12.23 C391.35 13.98 391.35 13.98 391.36 15.77 C391.36 19.03 391.35 22.29 391.35 25.54 C391.34 29.05 391.35 32.56 391.35 36.07 C391.35 42.15 391.34 48.24 391.34 54.32 C391.33 63.12 391.33 71.91 391.33 80.71 C391.32 94.98 391.32 109.25 391.31 123.52 C391.3 137.38 391.29 151.25 391.29 165.11 C391.29 166.39 391.29 166.39 391.29 167.7 C391.29 171.98 391.28 176.27 391.28 180.55 C391.27 216.12 391.25 251.68 391.23 287.25 C378.69 287.25 366.15 287.25 353.23 287.25 C352.23 285.25 352.23 285.25 352.79 283.3 C353.23 282.23 353.23 282.23 353.67 281.12 C353.96 280.4 354.25 279.68 354.54 278.93 C354.77 278.37 355 277.82 355.23 277.25 C347.66 277.59 341 281.24 335.13 285.93 C332.23 287.95 329.66 287.51 326.23 287.25 C324.53 285.54 324.82 283.08 324.55 280.75 C323.58 274.59 321.51 269.85 317.23 265.25 C316.57 265.25 315.91 265.25 315.23 265.25 C314.57 267.04 313.93 268.83 313.3 270.62 C312.94 271.62 312.58 272.62 312.21 273.65 C311.38 276.7 310.96 279.35 310.67 282.47 C310.59 283.37 310.5 284.27 310.42 285.19 C310.36 285.87 310.3 286.55 310.23 287.25 C300.73 287.27 291.23 287.29 281.73 287.3 C277.32 287.31 272.91 287.31 268.5 287.32 C264.24 287.34 259.99 287.34 255.74 287.34 C254.11 287.35 252.48 287.35 250.86 287.36 C248.59 287.36 246.32 287.36 244.05 287.36 C242.75 287.37 241.46 287.37 240.12 287.37 C237.23 287.25 237.23 287.25 236.23 286.25 C235.77 282.85 235.62 279.42 235.42 276 C235.34 275.04 235.27 274.09 235.19 273.11 C234.78 265.98 234.78 265.98 237.22 262.08 C237.88 261.47 238.55 260.87 239.23 260.25 C238.9 259.92 238.57 259.59 238.23 259.25 C237.98 254.78 238.05 250.29 238.05 245.81 C238.03 244.55 238.02 243.28 238.01 241.97 C238.01 240.77 238 239.56 238 238.32 C238 237.2 237.99 236.09 237.99 234.94 C238.23 232.25 238.23 232.25 240.23 230.25 C241.55 230.58 242.87 230.91 244.23 231.25 C244.56 240.16 244.89 249.07 245.23 258.25 C249.19 258.58 253.15 258.91 257.23 259.25 C257.07 257.3 256.91 255.34 256.74 253.33 C255.47 231.43 255.47 231.43 260.14 225.83 C262.97 223.22 266.07 221.19 269.43 219.32 C272.31 217.61 274.71 215.45 277.23 213.25 C269.72 209.49 256.36 211.16 248.23 212.25 C243.38 213.97 240.48 217.38 237.23 221.25 C234.95 223.31 232.6 225.29 230.23 227.25 C230.24 226.69 230.24 226.12 230.25 225.54 C230.27 222.94 230.28 220.35 230.3 217.75 C230.3 216.86 230.31 215.98 230.32 215.06 C230.34 210.89 230.24 206.93 229.55 202.82 C229.23 199.25 229.23 199.25 230.35 197.18 C231.22 196.44 231.22 196.44 232.11 195.69 C232.77 195.13 233.43 194.56 234.1 193.98 C234.81 193.41 235.51 192.84 236.23 192.25 C236.86 191.62 237.49 190.98 238.14 190.33 C243.98 184.89 249.84 184.28 257.46 183.65 C261.88 183.18 265.21 182.09 269.23 180.25 C268.21 180.28 267.18 180.32 266.12 180.36 C246.39 180.83 246.39 180.83 238.61 174.75 C236.23 172.25 236.23 172.25 235.23 169.25 C235.89 169.25 236.55 169.25 237.23 169.25 C236.9 168.59 236.57 167.93 236.23 167.25 C234.72 162.7 234.3 158.57 236.1 154.1 C236.79 152.75 237.5 151.42 238.26 150.11 C239.27 148.17 239.78 146.38 240.23 144.25 C240.89 144.25 241.55 144.25 242.23 144.25 C241.49 135.87 240.56 129.19 234.23 123.25 C233.16 122.61 232.09 121.97 230.98 121.31 C227.88 118.99 227.82 118.54 227.17 114.94 C227.1 114.22 227.02 113.5 226.95 112.76 C224.53 104.26 217.47 100.32 210.47 95.88 C202.44 90.54 198.47 83.57 196.23 74.25 C196.05 71.19 196.05 71.19 196.23 69.25 C197.55 69.58 198.87 69.91 200.23 70.25 C200.23 70.91 200.23 71.57 200.23 72.25 C200.89 71.92 201.55 71.59 202.23 71.25 C201.76 70.65 201.28 70.05 200.8 69.44 C198.6 66.36 198.11 63.92 198.14 60.24 C198.14 59.48 198.14 58.72 198.14 57.94 C198.15 57.16 198.16 56.37 198.17 55.56 C198.17 54.76 198.18 53.97 198.18 53.15 C198.2 51.18 198.21 49.22 198.23 47.25 C199.22 47.25 200.21 47.25 201.23 47.25 C197.07 36.53 197.07 36.53 188.87 28.93 C184.11 26.98 179.18 25.64 174.23 24.25 C172.88 23.62 171.53 22.98 170.23 22.25 C169.62 24.53 169.17 26.72 168.86 29.06 C167.29 37.07 163.41 41.73 158.1 47.8 C155.93 50.13 155.93 50.13 156.23 53.25 C158.87 53.58 161.51 53.91 164.23 54.25 C164.56 53.26 164.89 52.27 165.23 51.25 C169.26 48.64 172.99 47.16 177.8 47.5 C178.6 47.75 179.4 47.99 180.23 48.25 C178.94 53.44 176.58 56.39 172.73 59.94 C169.94 62.58 167.38 65.02 165.23 68.25 C161.78 66.82 160.13 65.15 157.98 62.12 C157.46 61.4 156.94 60.68 156.4 59.93 C156.02 59.37 155.63 58.82 155.23 58.25 C151.52 59.46 147.81 60.69 144.11 61.94 C143.06 62.28 142.01 62.62 140.94 62.97 C135.08 64.95 130.5 66.69 126.23 71.25 C125.9 72.57 125.57 73.89 125.23 75.25 C128.86 75.58 132.49 75.91 136.23 76.25 C135.9 74.93 135.57 73.61 135.23 72.25 C137.96 68.6 141.19 67.16 145.36 65.5 C146.41 65.07 147.47 64.64 148.55 64.2 C151.23 63.25 151.23 63.25 153.23 63.25 C155.66 66.89 155.39 68.96 155.23 73.25 C153.87 73.06 153.87 73.06 152.48 72.87 C149.07 72.9 149.07 72.9 147.17 75.62 C146.49 76.81 145.85 78.03 145.23 79.25 C144.82 80.06 144.41 80.87 143.98 81.7 C143.11 83.44 142.25 85.18 141.4 86.94 C140.23 89.25 140.23 89.25 138.42 91.81 C136.66 95.43 136.44 99.3 137.23 103.25 C138.22 103.91 139.21 104.57 140.23 105.25 C142.49 103.14 142.49 103.14 144.23 100.25 C143.87 99.34 143.51 98.43 143.14 97.5 C142.23 94.25 142.23 94.25 143.57 90.82 C144.23 89.66 144.91 88.51 145.61 87.37 C145.95 86.78 146.29 86.19 146.65 85.58 C147.49 84.12 148.36 82.69 149.23 81.25 C153.23 81.25 153.23 81.25 154.63 82.59 C155.05 83.21 155.47 83.83 155.9 84.47 C156.61 85.49 156.61 85.49 157.34 86.53 C157.84 87.26 158.34 88 158.86 88.75 C164.5 96.61 170.25 102.13 178.49 107.29 C179.58 107.98 180.67 108.67 181.8 109.37 C182.81 109.98 183.82 110.58 184.86 111.19 C187.23 113.25 187.23 113.25 188.14 116.3 C188.23 119.25 188.23 119.25 187.23 122.25 C186.46 128.08 187.8 131.97 190.23 137.25 C194.39 146.45 194.39 146.45 193.23 152.25 C189.07 161.36 181.93 171.82 174.23 178.25 C171.71 178.56 171.71 178.56 168.85 178.33 C150.49 177.55 139.23 182.17 124.14 192.39 C121.21 194.27 118.22 195.81 115.11 197.36 C111.12 199.49 111.12 199.49 108.56 203.15 C108.18 206.75 108.01 210.25 108.05 213.87 C108.05 215.17 108.06 216.46 108.06 217.79 C108.2 220.49 108.42 222.69 109.23 225.25 C111.54 225.91 113.85 226.57 116.23 227.25 C116.22 226.44 116.21 225.63 116.2 224.8 C116.16 221.16 116.13 217.52 116.11 213.87 C116.09 212.6 116.07 211.33 116.06 210.02 C116.05 208.81 116.04 207.6 116.04 206.35 C116.03 205.23 116.02 204.11 116.01 202.96 C116.23 200.25 116.23 200.25 118.23 198.25 C119.22 198.25 120.21 198.25 121.23 198.25 C122.57 200.93 122.45 203.13 122.55 206.13 C122.59 207.3 122.63 208.47 122.68 209.67 C122.72 210.89 122.75 212.11 122.8 213.37 C122.84 214.61 122.88 215.84 122.93 217.11 C123.03 220.15 123.13 223.2 123.23 226.25 C124.4 226.31 125.57 226.37 126.78 226.43 C128.32 226.52 129.87 226.6 131.42 226.69 C132.19 226.73 132.96 226.77 133.75 226.81 C137.67 227.02 141.4 227.34 145.23 228.25 C142.23 230.25 142.23 230.25 139.67 231.37 C136.86 233.54 136.22 235.21 135.43 238.62 C135.12 241.4 135.12 241.4 135.79 244.72 C136.37 249.13 136.57 251.98 135.23 256.25 C131.71 259.45 127.55 261.49 123.25 263.49 C117.98 265.94 117.98 265.94 114.19 270.25 C112.45 275.66 112.48 281.62 112.23 287.25 C107.27 287.27 102.3 287.29 97.33 287.3 C95.64 287.31 93.95 287.32 92.26 287.32 C89.84 287.34 87.41 287.34 84.99 287.35 C83.85 287.35 83.85 287.35 82.68 287.36 C80.87 287.36 79.05 287.31 77.23 287.25 C75.06 285.08 75.41 280.1 75.07 277.06 C74.57 272.9 73.69 269.17 72.23 265.25 C67.02 267.13 65.76 271.39 63.49 276.12 C61.94 279.97 61.39 283.12 61.23 287.25 C56.27 287.64 53.85 286.78 49.8 283.94 C43.93 280 39.23 277.65 32.23 276.25 C33.22 279.88 34.21 283.51 35.23 287.25 C29.7 287.27 24.16 287.29 18.63 287.3 C16.74 287.31 14.86 287.32 12.97 287.32 C10.27 287.34 7.56 287.34 4.86 287.35 C4.01 287.35 3.17 287.36 2.29 287.36 C0.27 287.36 -1.75 287.31 -3.77 287.25 C-5.38 285.64 -4.89 283.92 -4.9 281.7 C-4.9 280.71 -4.9 279.72 -4.91 278.7 C-4.9 277.6 -4.9 276.5 -4.9 275.36 C-4.9 274.2 -4.91 273.04 -4.91 271.85 C-4.91 268.62 -4.91 265.38 -4.91 262.15 C-4.91 258.67 -4.92 255.19 -4.92 251.71 C-4.93 244.89 -4.93 238.07 -4.93 231.24 C-4.93 225.7 -4.94 220.16 -4.94 214.61 C-4.95 198.91 -4.95 183.21 -4.95 167.51 C-4.95 166.67 -4.95 165.82 -4.95 164.95 C-4.95 164.1 -4.95 163.25 -4.95 162.38 C-4.95 148.62 -4.96 134.87 -4.98 121.12 C-4.99 107.01 -5 92.91 -5 78.8 C-5 70.88 -5 62.95 -5.01 55.03 C-5.02 48.28 -5.02 41.53 -5.01 34.78 C-5.01 31.34 -5.01 27.89 -5.02 24.45 C-5.03 20.72 -5.02 16.99 -5.01 13.27 C-5.02 12.17 -5.02 11.07 -5.03 9.94 C-5.03 8.94 -5.02 7.95 -5.02 6.93 C-5.02 6.07 -5.02 5.21 -5.02 4.32 C-4.6 0.88 -3.32 0.3 0 0 Z " fill="#F5F3E9" transform="translate(445.7671738266945,362.7504523396492)"/>
<path d="M0 0 C1.55 0 1.55 0 3.14 0 C4.92 -0.01 4.92 -0.01 6.74 -0.01 C8.08 -0.01 9.41 -0 10.75 0 C12.15 0 13.56 -0 14.97 -0.01 C18.85 -0.01 22.73 -0.01 26.61 0 C30.79 0.01 34.97 0 39.15 0 C47.35 -0 55.54 0 63.74 0.01 C73.27 0.02 82.81 0.02 92.34 0.02 C109.34 0.02 126.35 0.03 143.35 0.04 C159.87 0.06 176.39 0.06 192.91 0.06 C194.44 0.06 194.44 0.06 195.99 0.06 C197.01 0.06 198.02 0.06 199.07 0.06 C217.85 0.06 236.63 0.07 255.41 0.08 C262.06 0.08 268.72 0.08 275.37 0.08 C283.47 0.08 291.57 0.09 299.68 0.1 C303.81 0.1 307.95 0.1 312.09 0.1 C315.87 0.1 319.65 0.11 323.43 0.11 C324.81 0.11 326.18 0.12 327.56 0.11 C329.41 0.11 331.27 0.12 333.12 0.12 C334.16 0.12 335.19 0.12 336.26 0.12 C338.57 0.25 338.57 0.25 339.57 1.25 C339.98 5.34 340.09 9.43 340.19 13.54 C340.23 14.91 340.29 16.29 340.38 17.66 C340.75 23.95 340.94 29.15 337.41 34.54 C334.91 37.28 332.32 39.77 329.57 42.25 C328.42 43.54 327.29 44.85 326.19 46.19 C318.96 54.49 310.96 62.13 302.57 69.25 C301.11 70.54 301.11 70.54 299.63 71.85 C285.23 84.54 269.51 95.59 253.57 106.25 C252.45 107 252.45 107 251.32 107.76 C230.24 121.84 208.32 134.28 185.68 145.66 C183.54 146.75 181.42 147.87 179.31 149.02 C178.27 149.58 177.22 150.14 176.14 150.72 C175.22 151.23 174.29 151.74 173.33 152.26 C168.63 153.94 165.53 152.67 161.07 150.72 C159.78 150.07 158.49 149.41 157.2 148.74 C156.5 148.38 155.8 148.03 155.08 147.66 C152.8 146.49 150.53 145.31 148.25 144.12 C147.47 143.72 146.69 143.32 145.89 142.9 C131.76 135.58 118.07 127.69 104.57 119.25 C102.88 118.21 101.2 117.18 99.52 116.14 C87.89 108.95 76.67 101.22 65.57 93.25 C64.75 92.66 63.92 92.08 63.08 91.47 C52.07 83.59 41.62 75.32 31.57 66.25 C31.04 65.78 30.51 65.31 29.97 64.83 C-3.82 34.65 -3.82 34.65 -4.69 25.55 C-4.69 24.49 -4.7 23.43 -4.7 22.34 C-4.7 20.61 -4.7 20.61 -4.71 18.84 C-4.7 17.64 -4.69 16.43 -4.68 15.19 C-4.69 13.98 -4.7 12.77 -4.71 11.52 C-4.7 10.37 -4.7 9.21 -4.7 8.03 C-4.7 6.97 -4.69 5.91 -4.69 4.82 C-4.34 1.34 -3.5 0.36 0 0 Z " fill="#F5F3E9" transform="translate(471.4337483048439,759.7504523396492)"/>
<path d="M0 0 C1.89 0 1.89 0 3.83 0 C4.88 -0 4.88 -0 5.96 -0.01 C8.34 -0.01 10.73 -0.01 13.11 0 C14.83 0 16.55 -0 18.26 -0.01 C23 -0.01 27.74 -0.01 32.47 0 C37.57 0.01 42.67 0 47.78 0 C57.78 -0 67.77 0 77.77 0.01 C89.41 0.02 101.04 0.02 112.67 0.02 C133.42 0.02 154.17 0.03 174.92 0.04 C195.07 0.06 215.23 0.06 235.39 0.06 C236.63 0.06 237.87 0.06 239.15 0.06 C240.39 0.06 241.63 0.06 242.9 0.06 C265.82 0.06 288.73 0.07 311.64 0.08 C319.76 0.08 327.88 0.08 336 0.08 C345.89 0.08 355.77 0.09 365.66 0.1 C370.71 0.1 375.76 0.1 380.8 0.1 C385.42 0.1 390.03 0.11 394.65 0.11 C396.32 0.11 398 0.12 399.68 0.11 C401.94 0.11 404.21 0.12 406.47 0.12 C407.73 0.12 409 0.12 410.3 0.12 C413.09 0.25 413.09 0.25 414.09 1.25 C414.18 2.84 414.21 4.43 414.21 6.03 C414.21 7.07 414.21 8.11 414.21 9.18 C414.21 10.33 414.21 11.49 414.21 12.68 C414.21 14.51 414.21 14.51 414.21 16.37 C414.21 19.77 414.21 23.16 414.2 26.56 C414.2 30.22 414.2 33.87 414.2 37.53 C414.2 43.87 414.2 50.2 414.19 56.54 C414.18 65.71 414.18 74.87 414.18 84.04 C414.18 98.91 414.17 113.78 414.16 128.64 C414.15 143.09 414.14 157.54 414.14 171.99 C414.14 173.32 414.14 173.32 414.14 174.68 C414.14 179.15 414.14 183.61 414.14 188.07 C414.13 225.13 414.11 262.19 414.09 299.25 C413.1 298.92 412.11 298.59 411.09 298.25 C410.59 152.72 410.59 152.72 410.09 4.25 C337.24 4.22 337.24 4.22 264.39 4.2 C254.58 4.2 244.78 4.2 234.97 4.19 C233.74 4.19 232.51 4.19 231.24 4.19 C211.37 4.19 191.5 4.18 171.62 4.17 C151.24 4.16 130.86 4.16 110.48 4.16 C97.9 4.15 85.31 4.15 72.72 4.14 C64.11 4.14 55.49 4.13 46.87 4.14 C41.89 4.14 36.91 4.14 31.93 4.13 C27.38 4.13 22.83 4.13 18.27 4.13 C16.62 4.13 14.97 4.13 13.31 4.12 C11.08 4.12 8.84 4.12 6.61 4.13 C4.74 4.13 4.74 4.13 2.84 4.13 C0.17 3.94 0.17 3.94 -0.91 5.25 C-1.02 6.82 -1.05 8.39 -1.05 9.96 C-1.06 10.99 -1.06 12.02 -1.07 13.07 C-1.07 14.21 -1.07 15.36 -1.07 16.53 C-1.08 17.73 -1.08 18.93 -1.09 20.17 C-1.1 23.52 -1.11 26.87 -1.12 30.22 C-1.12 33.83 -1.14 37.43 -1.15 41.04 C-1.17 47.3 -1.19 53.55 -1.21 59.8 C-1.23 68.85 -1.26 77.89 -1.29 86.93 C-1.33 101.6 -1.38 116.27 -1.42 130.94 C-1.46 145.19 -1.5 159.44 -1.54 173.69 C-1.55 174.57 -1.55 175.45 -1.55 176.35 C-1.56 180.76 -1.58 185.16 -1.59 189.57 C-1.71 226.13 -1.81 262.69 -1.91 299.25 C-2.9 298.92 -3.89 298.59 -4.91 298.25 C-4.96 260.57 -5 222.9 -5.02 185.23 C-5.02 180.78 -5.02 176.34 -5.02 171.89 C-5.03 171.01 -5.03 170.13 -5.03 169.21 C-5.03 154.87 -5.05 140.53 -5.07 126.19 C-5.09 111.48 -5.1 96.78 -5.1 82.07 C-5.11 72.99 -5.11 63.91 -5.13 54.83 C-5.14 48.61 -5.14 42.39 -5.14 36.17 C-5.14 32.58 -5.14 28.98 -5.15 25.39 C-5.16 21.5 -5.16 17.62 -5.16 13.73 C-5.16 12.58 -5.17 11.44 -5.17 10.25 C-5.17 9.22 -5.16 8.18 -5.16 7.12 C-5.16 6.22 -5.16 5.32 -5.16 4.4 C-4.75 0.82 -3.45 0.3 0 0 Z " fill="#F6F4EA" transform="translate(434.9146504998207,350.7504523396492)"/>
<path d="M0 0 C3.31 1.1 3.98 1.88 6.14 4.5 C10.13 9.2 14.39 13.58 18.75 17.94 C19.54 18.73 20.34 19.52 21.16 20.34 C26.85 25.97 32.69 31.08 39 36 C40.84 37.56 42.67 39.12 44.5 40.69 C68.11 60.29 94.41 76.78 121 92 C122.32 92.77 123.64 93.53 124.96 94.3 C137.72 101.65 150.89 108.31 164 115 C165.03 115.55 166.07 116.1 167.13 116.66 C170.84 118.39 174.02 118.7 178 118 C181.01 116.87 183.72 115.36 186.5 113.75 C187.93 112.95 189.35 112.16 190.78 111.36 C191.48 110.96 192.18 110.57 192.9 110.16 C196.21 108.33 199.6 106.67 203 105 C204.07 104.46 205.13 103.92 206.23 103.37 C207.21 102.87 208.18 102.38 209.19 101.88 C210.17 101.38 211.15 100.88 212.17 100.37 C215 99 215 99 217.76 97.92 C220.13 96.95 221.25 95.83 223 94 C223.66 94 224.32 94 225 94 C225.45 93.53 225.91 93.05 226.38 92.56 C228.27 90.74 229.5 90.62 232 90 C233.02 89.02 234.02 88.02 235 87 C235.66 87 236.32 87 237 87 C237.66 86.34 238.32 85.68 239 85 C239.99 84.67 240.98 84.34 242 84 C242.66 83.34 243.32 82.68 244 82 C244.99 81.67 245.98 81.34 247 81 C247.66 80.34 248.32 79.68 249 79 C250.33 78.33 251.67 77.67 253 77 C253.66 76.34 254.32 75.68 255 75 C256.49 74.5 256.49 74.5 258 74 C258.66 73.34 259.32 72.68 260 72 C261.33 71.33 262.67 70.67 264 70 C264.66 69.34 265.32 68.68 266 68 C267.33 67.33 268.67 66.67 270 66 C270.66 65.34 271.32 64.68 272 64 C274.08 62.7 276.2 61.46 278.32 60.22 C278.87 59.82 279.43 59.41 280 59 C280 58.34 280 57.68 280 57 C280.62 56.88 281.24 56.75 281.88 56.62 C284.19 56.13 284.19 56.13 286 54 C287.32 52.99 288.66 51.99 290 51 C293.06 48.73 296.04 46.39 299 44 C299.8 43.36 300.61 42.72 301.44 42.06 C306.79 37.75 311.76 33.35 316.5 28.38 C319 26 319 26 320.9 25.09 C323.4 23.79 325.04 22.21 327.04 20.23 C327.78 19.48 328.53 18.74 329.3 17.98 C330.07 17.2 330.83 16.42 331.62 15.62 C332.4 14.86 333.18 14.09 333.98 13.3 C334.72 12.55 335.46 11.81 336.23 11.04 C337.24 10.02 337.24 10.02 338.28 8.98 C339.94 7.06 340.99 5.32 342 3 C342.66 3 343.32 3 344 3 C343.56 7.4 340.59 9.82 337.6 12.76 C337.05 13.31 336.5 13.86 335.94 14.43 C334.77 15.59 333.6 16.76 332.42 17.92 C330.66 19.66 328.91 21.41 327.16 23.16 C320.41 29.89 313.49 36.1 306 42 C304.75 43.02 303.49 44.05 302.24 45.08 C293.13 52.5 283.69 59.36 274 66 C273.4 66.41 272.8 66.83 272.18 67.26 C245.73 85.38 217.92 101.15 189.4 115.76 C187.28 116.86 185.17 117.98 183.07 119.11 C182.02 119.67 180.96 120.23 179.88 120.81 C179.03 121.27 178.18 121.73 177.3 122.21 C173.2 123.62 170.25 122.11 166.37 120.4 C164.96 119.71 163.55 119.01 162.15 118.31 C161.38 117.93 160.62 117.55 159.83 117.17 C157.34 115.93 154.86 114.69 152.38 113.44 C151.53 113.01 150.68 112.59 149.8 112.15 C134.42 104.44 119.62 96.07 105 87 C103.44 86.04 101.88 85.09 100.32 84.14 C86.51 75.65 73.09 66.56 60 57 C59.36 56.53 58.72 56.07 58.06 55.59 C48.93 48.91 40.15 41.95 31.67 34.47 C30.53 33.46 29.38 32.47 28.22 31.48 C22.59 26.65 17.26 21.52 12 16.29 C10.99 15.3 9.98 14.3 8.96 13.32 C7.47 11.87 6 10.42 4.53 8.96 C3.66 8.1 2.79 7.24 1.89 6.36 C0 4 0 4 0 0 Z " fill="#F5F3E9" transform="translate(467,803)"/>
<path d="M0 0 C0.66 0 1.32 0 2 0 C4.64 4.73 4.92 8.69 4 14 C2.53 18.07 0.59 21.92 -1.37 25.78 C-4.01 31 -4.59 35.23 -4 41 C-2.65 44.45 -2.65 44.45 -1 47 C-0.01 46.5 -0.01 46.5 1 46 C1.66 48.31 2.32 50.62 3 53 C-7.23 53 -17.46 53 -28 53 C-26.25 44.23 -20.91 37.32 -14.38 31.34 C-12.88 30.03 -12.88 30.03 -12 28 C-12.35 25.79 -12.71 23.58 -13.06 21.38 C-13.64 14.77 -13.64 14.77 -10.95 11.51 C-9.16 10.18 -7.33 8.9 -5.46 7.69 C-2.22 5.47 -1.27 3.63 0 0 Z " fill="#F6F4EA" transform="translate(673,488)"/>
<path d="M0 0 C2.98 2.5 3.95 5.05 5.19 8.69 C5.53 9.68 5.88 10.68 6.23 11.7 C6.48 12.46 6.74 13.22 7 14 C8.34 14.07 8.34 14.07 9.7 14.15 C10.87 14.22 12.04 14.3 13.25 14.38 C14.41 14.44 15.57 14.51 16.77 14.59 C19.71 14.96 21.5 15.48 24 17 C22.21 18.17 20.42 19.34 18.62 20.5 C17.63 21.15 16.63 21.8 15.6 22.47 C13 24 13 24 11 24 C12.24 30.17 13.9 36.07 16 42 C14.58 41.06 13.17 40.13 11.75 39.19 C10.96 38.67 10.17 38.14 9.36 37.61 C7 36 7 36 5.02 34.24 C3.05 32.77 3.05 32.77 0.55 33.09 C-2.42 34.15 -4.38 35.56 -6.81 37.56 C-7.6 38.2 -8.39 38.84 -9.21 39.5 C-9.8 40 -10.39 40.49 -11 41 C-12 38 -12 38 -11 34.25 C-9.92 30.14 -9.67 27.14 -11 23 C-13.96 20.07 -17.06 18.31 -21 17 C-21 16.34 -21 15.68 -21 15 C-15.39 15 -9.78 15 -4 15 C-3.53 13.08 -3.05 11.16 -2.56 9.19 C-1.79 6.08 -1.01 3.04 0 0 Z " fill="#385F3B" transform="translate(643,838)"/>
<path d="M0 0 C0.77 -0.03 1.54 -0.06 2.33 -0.09 C6.04 -0.13 8.02 -0.11 11.14 2.04 C12.82 4.61 13.11 5.9 13 8.94 C12.98 10.1 12.98 10.1 12.96 11.29 C12.62 13.31 12.62 13.31 10.62 15.31 C10.91 19.63 11.91 22.01 14.62 25.31 C14.62 25.97 14.62 26.63 14.62 27.31 C8.16 27.68 8.16 27.68 5.88 26.12 C1.62 19.96 1.62 19.96 1.62 17.31 C0.97 17.31 0.3 17.31 -0.38 17.31 C0.28 20.61 0.95 23.91 1.62 27.31 C-2 27.31 -5.63 27.31 -9.38 27.31 C-9.71 25.99 -10.03 24.67 -10.38 23.31 C-9.72 23.31 -9.05 23.31 -8.38 23.31 C-8.52 20.58 -8.66 17.85 -8.81 15.12 C-8.85 14.36 -8.89 13.59 -8.93 12.79 C-9.15 8.88 -9.46 5.14 -10.38 1.31 C-7.12 -0.32 -3.58 0.04 0 0 Z " fill="#F6F4EA" transform="translate(727.375,691.6875)"/>
<path d="M0 0 C3.67 0.46 3.67 0.46 6.22 2.8 C7.31 4.3 7.31 4.3 8.42 5.84 C11.57 10.14 11.57 10.14 15.67 13.46 C15.46 12.85 15.24 12.23 15.02 11.6 C14.74 10.79 14.46 9.98 14.17 9.15 C13.89 8.35 13.62 7.55 13.33 6.72 C12.67 4.46 12.67 4.46 12.67 1.46 C13.67 0.46 13.67 0.46 15.52 0.36 C17.57 0.4 19.62 0.43 21.67 0.46 C22.8 5.21 22.8 5.21 21.67 7.46 C21.52 8.98 21.42 10.51 21.36 12.03 C21.31 12.93 21.27 13.82 21.23 14.75 C21.19 15.68 21.15 16.62 21.11 17.59 C21.07 18.53 21.02 19.48 20.98 20.45 C20.87 22.79 20.77 25.12 20.67 27.46 C18.85 28.07 18.85 28.07 16.67 28.46 C11.5 25.13 8.54 20.67 5.19 15.57 C3.84 13.35 3.84 13.35 1.67 12.46 C1.95 14.09 2.25 15.71 2.55 17.34 C2.79 18.69 2.79 18.69 3.04 20.08 C3.5 22.63 3.5 22.63 5.67 24.46 C5.67 25.45 5.67 26.44 5.67 27.46 C2.37 27.46 -0.93 27.46 -4.33 27.46 C-4.66 26.8 -4.99 26.14 -5.33 25.46 C-5 24.8 -4.67 24.14 -4.33 23.46 C-4.23 20.66 -4.19 17.89 -4.2 15.09 C-4.2 14.32 -4.2 13.55 -4.19 12.76 C-4.19 11.64 -4.19 11.64 -4.2 10.5 C-4.2 9.82 -4.2 9.14 -4.2 8.44 C-4.26 6.41 -4.26 6.41 -4.96 4.33 C-5.08 3.72 -5.2 3.1 -5.33 2.46 C-3.33 0.46 -3.33 0.46 0 0 Z " fill="#F6F4EA" transform="translate(449.328125,691.5390625)"/>
<path d="M0 0 C0.9 0.02 1.81 0.05 2.74 0.07 C4.11 0.1 4.11 0.1 5.5 0.12 C6.2 0.15 6.9 0.17 7.62 0.2 C8.24 2.57 8.24 2.57 8.62 5.2 C7.96 5.86 7.3 6.52 6.62 7.2 C6.26 9.76 6.26 9.76 6.3 12.63 C6.29 13.6 6.27 14.57 6.25 15.57 C6.42 18.18 6.42 18.18 7.82 19.98 C10.05 21.49 11.98 21.84 14.62 22.2 C14.5 19.61 14.38 17.03 14.24 14.45 C14.21 13.72 14.18 12.99 14.15 12.23 C13.94 8.46 13.7 5.42 11.62 2.2 C13.62 0.2 13.62 0.2 16 0 C16.9 0.02 17.81 0.05 18.74 0.07 C19.65 0.09 20.56 0.11 21.5 0.12 C22.2 0.15 22.9 0.17 23.62 0.2 C24.74 4.95 24.74 4.95 23.62 7.2 C23.46 9.11 23.34 11.03 23.24 12.95 C22.8 18.76 21.84 22.97 17.62 27.2 C13.47 28.73 8.89 28.95 4.68 27.55 C1.21 25.85 -0.14 24.73 -1.76 21.13 C-2.41 17.01 -2.85 12.91 -3.14 8.75 C-3.3 6.22 -3.3 6.22 -4.04 3.99 C-4.15 3.4 -4.26 2.8 -4.38 2.2 C-2.38 0.2 -2.38 0.2 0 0 Z " fill="#F6F4EA" transform="translate(591.3828125,691.8046875)"/>
<path d="M0 0 C5.24 0.87 7.21 4.55 10.38 8.56 C11.69 9.91 13.01 11.26 14.38 12.56 C14.21 11.49 14.04 10.42 13.88 9.31 C13.38 5.56 13.38 5.56 13.38 1.56 C14.38 0.56 14.38 0.56 17.88 0.44 C21.38 0.56 21.38 0.56 22.38 1.56 C22.5 4.06 22.5 4.06 22.38 6.56 C22.04 6.89 21.72 7.22 21.38 7.56 C21.22 9.12 21.12 10.69 21.06 12.25 C21.02 13.2 20.97 14.14 20.93 15.12 C20.89 16.11 20.85 17.1 20.81 18.12 C20.77 19.12 20.73 20.12 20.68 21.15 C20.58 23.62 20.47 26.09 20.38 28.56 C16.07 28.4 14.65 27.85 11.6 24.69 C10.72 23.52 9.85 22.33 9 21.12 C8.55 20.53 8.1 19.93 7.64 19.31 C4.38 14.88 4.38 14.88 4.38 12.56 C3.72 12.56 3.05 12.56 2.38 12.56 C2.49 14 2.62 15.44 2.75 16.88 C2.82 17.68 2.89 18.48 2.96 19.3 C3.27 21.83 3.27 21.83 5.38 24.56 C5.38 25.55 5.38 26.54 5.38 27.56 C3.92 27.62 2.46 27.66 1 27.69 C-0.22 27.72 -0.22 27.72 -1.46 27.76 C-3.62 27.56 -3.62 27.56 -5.62 25.56 C-5.29 24.9 -4.97 24.24 -4.62 23.56 C-3.97 23.56 -3.3 23.56 -2.62 23.56 C-2.66 22.9 -2.7 22.24 -2.73 21.56 C-2.89 18.58 -3.04 15.6 -3.19 12.62 C-3.24 11.58 -3.3 10.54 -3.36 9.47 C-3.41 8.48 -3.45 7.49 -3.5 6.47 C-3.55 5.56 -3.6 4.64 -3.65 3.7 C-3.61 0.52 -3.12 0.67 0 0 Z " fill="#F5F3E9" transform="translate(622.625,691.4375)"/>
<path d="M0 0 C5.63 4.83 9.68 11.63 11 19 C11.6 27.04 11.97 34.31 7 41 C4.75 43.5 4.75 43.5 3 45 C3 44.01 3 43.02 3 42 C2.34 42 1.68 42 1 42 C0.19 39.75 -0.63 37.5 -1.44 35.25 C-1.67 34.62 -1.9 33.98 -2.13 33.33 C-6.21 22 -5.88 13.12 -1 2 C-0.67 1.34 -0.34 0.68 0 0 Z " fill="#385F3B" transform="translate(777,475)"/>
<path d="M0 0 C5.35 4.83 6.62 12.11 7.16 19.05 C7.51 27.77 5.2 34.28 -0.6 40.79 C-2 42 -2 42 -4 42 C-4.33 42.66 -4.66 43.32 -5 44 C-5 43.01 -5 42.02 -5 41 C-5.66 41 -6.32 41 -7 41 C-9.92 29.22 -10.8 17.19 -4.46 6.38 C-3.03 4.21 -1.56 2.09 0 0 Z " fill="#385F3B" transform="translate(794,506)"/>
<path d="M0 0 C3 1 3 1 3.95 2.76 C7.87 15.33 6.49 26.82 2 39 C1.33 41 0.66 43 0 45 C-6.08 40.72 -9.1 36.04 -10.42 28.65 C-11.05 18.18 -5.76 8.4 0 0 Z " fill="#385F3B" transform="translate(500,475)"/>
<path d="M0 0 C6.75 0.63 12.1 4.76 16.62 9.56 C22.47 16.64 26.27 25.01 28 34 C19.2 32.93 12.97 29.97 6.69 23.69 C1.84 15.97 -0.18 9.1 0 0 Z " fill="#385F3B" transform="translate(470,606)"/>
<path d="M0 0 C5.18 4.44 8.02 10.31 9 17 C9.12 19.56 9.19 22.07 9.19 24.62 C9.19 25.33 9.19 26.03 9.19 26.75 C9.13 32.65 8.36 38.26 7 44 C6.67 43.34 6.34 42.68 6 42 C5.24 41.73 4.47 41.46 3.69 41.19 C-0.8 39.2 -2.51 35.96 -4.69 31.69 C-8.02 22.33 -7.06 13.69 -2.91 4.61 C-2.01 3.03 -1.02 1.51 0 0 Z " fill="#385F3B" transform="translate(484,506)"/>
<path d="M0 0 C7.53 0.32 12.78 3.69 17.99 9.05 C25.03 17.55 27.58 26.08 28 37 C13.99 28.53 3.38 19.48 -1 3 C-0.67 2.01 -0.34 1.02 0 0 Z " fill="#385F3B" transform="translate(741,463)"/>
<path d="M0 0 C-0.52 11.55 -7.77 21.39 -16 29 C-23.7 35 -23.7 35 -27 35 C-29.04 27.35 -26.24 21.39 -22.75 14.54 C-18.69 7.77 -8.59 -2.86 0 0 Z " fill="#385F3B" transform="translate(538,464)"/>
<path d="M0 0 C-3.73 17.9 -3.73 17.9 -10 25 C-10.77 25.89 -10.77 25.89 -11.55 26.8 C-16.29 31.54 -21.5 32.32 -28 33 C-29.77 27.7 -26.34 22.83 -24 18 C-18.94 8.85 -11.28 -0.34 0 0 Z " fill="#385F3B" transform="translate(810,607)"/>
<path d="M0 0 C3 2 3 2 3.36 3.81 C3.13 13.65 2.01 22.79 -5.05 30.14 C-9.07 33.9 -12.46 36.86 -18 38 C-20.23 28.54 -16.83 19.85 -12.19 11.56 C-9.06 6.68 -5.23 2.61 0 0 Z " fill="#385F3B" transform="translate(808,573)"/>
<path d="M0 0 C3 2 3 2 3.67 4.17 C4.8 13.93 5.51 24.04 -0.65 32.18 C-3.27 35.29 -5.61 37.74 -9 40 C-9.99 40 -10.98 40 -12 40 C-15.17 33.66 -13.39 23.12 -11.38 16.56 C-8.86 9.93 -5.03 4.91 0 0 Z " fill="#385F3B" transform="translate(804,539)"/>
<path d="M0 0 C1.24 0.02 1.24 0.02 2.5 0.04 C3.32 0.04 4.15 0.05 5 0.06 C5.64 0.07 6.28 0.09 6.93 0.1 C7.56 2.47 7.56 2.47 7.93 5.1 C7.27 5.76 6.61 6.42 5.93 7.1 C5.65 9.43 5.65 9.43 5.75 12.04 C5.75 12.91 5.76 13.79 5.77 14.69 C5.84 17.24 5.84 17.24 6.93 20.1 C10.45 21.33 10.45 21.33 13.93 22.1 C13.99 19.7 14.03 17.31 14.06 14.91 C14.08 14.24 14.09 13.56 14.11 12.87 C14.15 8.81 13.73 5.75 11.93 2.1 C13.93 0.1 13.93 0.1 16.1 -0.1 C17.32 -0.06 17.32 -0.06 18.56 -0.03 C19.78 -0 19.78 -0 21.04 0.03 C21.97 0.06 21.97 0.06 22.93 0.1 C24.06 4.85 24.06 4.85 22.93 7.1 C22.69 10.34 22.55 13.59 22.41 16.84 C21.75 21.36 20.23 24.05 16.68 26.91 C12.02 28.92 8.4 28.64 3.68 26.91 C0.46 24.79 -0.46 23.6 -2.07 20.1 C-2.58 16.85 -2.71 13.63 -2.82 10.35 C-2.86 9.47 -2.9 8.6 -2.95 7.7 C-3.14 3.02 -3.14 3.02 -3.07 1.1 C-2.07 0.1 -2.07 0.1 0 0 Z " fill="#F6F4EA" transform="translate(531.06640625,691.90234375)"/>
<path d="M0 0 C4.33 0.36 6.18 1.7 9 4.94 C16.79 14.29 19.64 24.09 21 36 C20.67 36.66 20.34 37.32 20 38 C11.62 34.34 4.08 29.61 0.44 20.88 C-1.57 14.38 -1.58 7.73 -1 1 C-0.67 0.67 -0.34 0.34 0 0 Z " fill="#385F3B" transform="translate(469,573)"/>
<path d="M0 0 C5.85 2.47 9.25 7.64 12.12 13.15 C15.23 21.61 14.25 31.13 14 40 C7.76 37.73 2.88 34.38 -0.4 28.48 C-4.36 18.65 -4.03 9.71 0 0 Z " fill="#385F3B" transform="translate(473,539)"/>
<path d="M0 0 C1.21 -0 1.21 -0 2.44 -0.01 C4.44 0.12 4.44 0.12 5.44 1.12 C5.48 3.12 5.48 5.13 5.44 7.12 C6.76 7.12 8.08 7.12 9.44 7.12 C9.44 5.14 9.44 3.16 9.44 1.12 C12.39 -0.35 15.18 0.06 18.44 0.12 C19.31 2.19 19.31 2.19 19.44 5.12 C18.07 7.1 16.56 8.76 14.88 10.48 C13.21 12.17 13.21 12.17 12.44 15.12 C13.87 17.64 13.87 17.64 15.88 20.19 C19.44 24.94 19.44 24.94 19.44 27.12 C15.48 27.12 11.52 27.12 7.44 27.12 C7.44 26.13 7.44 25.14 7.44 24.12 C6 21.95 6 21.95 4.44 20.12 C3.69 23.6 3.69 23.6 3.44 27.12 C0.47 27.12 -2.5 27.12 -5.56 27.12 C-5.89 26.13 -6.22 25.14 -6.56 24.12 C-5.13 21.86 -5.13 21.86 -3.12 19.44 C-2.14 18.23 -2.14 18.23 -1.13 16.99 C-0.61 16.37 -0.1 15.76 0.44 15.12 C-2.2 10.34 -2.2 10.34 -5.31 5.88 C-6.56 4.12 -6.56 4.12 -6.56 1.12 C-4.18 -0.06 -2.65 -0.01 0 0 Z " fill="#F6F4EA" transform="translate(505.5625,691.875)"/>
<path d="M0 0 C0.71 2.19 0.71 2.19 1 5 C-3.77 13.58 -11.33 20.13 -20.69 22.94 C-24.52 23.95 -27.16 24 -31 23 C-28.88 14.74 -23.96 7.83 -17 3 C-11.25 -0.21 -6.41 -0.35 0 0 Z " fill="#385F3B" transform="translate(534,497)"/>
<path d="M0 0 C5.91 -1.1 11.87 -0.49 17.09 2.54 C23.49 7.43 27.94 13.61 31 21 C31 21.99 31 22.98 31 24 C20.2 23.31 11.84 19.58 4 12 C1.77 9.12 -0.18 6.15 -2 3 C-1.34 2.01 -0.68 1.02 0 0 Z " fill="#385F3B" transform="translate(745,497)"/>
<path d="M0 0 C1.27 -0 1.27 -0 2.57 -0 C3.91 0 3.91 0 5.28 0.01 C6.17 0 7.07 0 7.99 -0 C8.84 -0 9.69 -0 10.56 0 C11.35 0 12.13 0 12.94 0 C14.78 0.13 14.78 0.13 15.78 1.13 C15.82 3.47 15.82 5.8 15.78 8.13 C15.06 7.78 14.34 7.43 13.59 7.07 C10.47 6.03 8.9 6.24 5.78 7.13 C5.78 8.12 5.78 9.11 5.78 10.13 C8.09 10.79 10.4 11.45 12.78 12.13 C12.78 13.78 12.78 15.43 12.78 17.13 C10.8 17.13 8.82 17.13 6.78 17.13 C6.45 18.45 6.12 19.77 5.78 21.13 C11.36 21.26 11.36 21.26 16.78 20.13 C16.78 22.44 16.78 24.75 16.78 27.13 C13.32 27.19 9.86 27.23 6.41 27.26 C5.42 27.27 4.44 27.29 3.42 27.31 C2.48 27.32 1.54 27.32 0.57 27.33 C-0.73 27.34 -0.73 27.34 -2.06 27.36 C-4.22 27.13 -4.22 27.13 -6.22 25.13 C-5.89 24.47 -5.56 23.81 -5.22 23.13 C-4.56 23.13 -3.9 23.13 -3.22 23.13 C-3.36 20.4 -3.51 17.67 -3.66 14.95 C-3.7 14.18 -3.73 13.41 -3.78 12.62 C-3.96 9.38 -4.18 6.33 -4.82 3.14 C-4.95 2.48 -5.08 1.82 -5.22 1.13 C-3.66 -0.42 -2.16 0 0 0 Z " fill="#F6F4EA" transform="translate(697.21875,691.8671875)"/>
<path d="M0 0 C1.27 -0 1.27 -0 2.57 -0 C3.91 0 3.91 0 5.28 0.01 C6.17 0 7.07 0 7.99 -0 C8.84 -0 9.69 -0 10.56 0 C11.35 0 12.13 0 12.94 0 C14.78 0.13 14.78 0.13 15.78 1.13 C15.82 3.47 15.82 5.8 15.78 8.13 C11.91 7.26 11.91 7.26 10.78 6.13 C9.12 6.09 7.45 6.09 5.78 6.13 C5.45 7.45 5.12 8.77 4.78 10.13 C5.92 10.28 7.05 10.42 8.22 10.57 C11.78 11.13 11.78 11.13 12.78 12.13 C12.82 13.8 12.82 15.47 12.78 17.13 C10.47 17.13 8.16 17.13 5.78 17.13 C5.45 18.45 5.12 19.77 4.78 21.13 C10.58 21.38 10.58 21.38 15.78 19.13 C16.44 20.12 17.1 21.11 17.78 22.13 C17.45 23.78 17.12 25.43 16.78 27.13 C9.52 27.13 2.26 27.13 -5.22 27.13 C-5.55 26.47 -5.88 25.81 -6.22 25.13 C-5.89 24.47 -5.56 23.81 -5.22 23.13 C-4.56 23.13 -3.9 23.13 -3.22 23.13 C-3.36 20.4 -3.51 17.67 -3.66 14.95 C-3.7 14.18 -3.73 13.41 -3.78 12.62 C-3.96 9.38 -4.18 6.33 -4.82 3.14 C-4.95 2.48 -5.08 1.82 -5.22 1.13 C-3.66 -0.42 -2.16 0 0 0 Z " fill="#F6F4EA" transform="translate(480.21875,691.8671875)"/>
<path d="M0 0 C3.11 0.33 4.65 0.67 6.95 2.86 C12.92 10.87 14.91 16.97 14 27 C13.2 30.74 12.18 34.37 11 38 C4.07 32.84 0.72 27.16 -2 19 C-2.12 16.9 -2.18 14.79 -2.19 12.69 C-2.2 11.58 -2.22 10.47 -2.23 9.32 C-1.99 5.9 -1.22 3.19 0 0 Z " fill="#385F3B" transform="translate(767,601)"/>
<path d="M0 0 C0.99 0.66 1.98 1.32 3 2 C2.65 9.79 2.01 16.77 -1 24 C-1.59 25.61 -1.59 25.61 -2.19 27.25 C-4.69 31.04 -7.93 33.05 -12 35 C-12.66 35 -13.32 35 -14 35 C-16.99 29.9 -16.76 24.74 -16 19 C-13.34 10.9 -9.43 5.24 -2 1 C-1.34 0.67 -0.68 0.34 0 0 Z " fill="#39603C" transform="translate(508,574)"/>
<path d="M0 0 C6.67 2.88 11 7.4 14 14 C15.3 18.63 16.23 23.26 17 28 C5.58 23.81 -3.31 19.09 -9 8 C-9.37 7.32 -9.74 6.64 -10.12 5.93 C-11.22 3.52 -11.15 1.62 -11 -1 C-7.41 -2.79 -3.67 -1.17 0 0 Z " fill="#385F3B" transform="translate(768,523)"/>
<path d="M0 0 C-0.41 7.77 -5.13 14.56 -10.62 19.81 C-15.47 23.79 -21.15 25.89 -27 28 C-29.2 20.64 -24.51 14.14 -21.38 7.62 C-16.55 2.3 -6.76 -4.51 0 0 Z " fill="#385F3B" transform="translate(522,523)"/>
<path d="M0 0 C6.08 0.76 8.99 2.46 13 7 C18.91 14.83 19.04 23.59 18 33 C17.34 33.66 16.68 34.32 16 35 C7.44 28.95 2.49 23.43 0 13 C-0.3 8.64 -0.25 4.36 0 0 Z " fill="#385F3B" transform="translate(768,574)"/>
<path d="M0 0 C1.86 1.58 2.89 2.51 3.42 4.93 C3.47 7.31 3.52 9.68 3.5 12.06 C3.5 12.92 3.49 13.78 3.49 14.66 C3.22 24.47 -0.45 30.89 -7 38 C-7.5 36.51 -7.5 36.51 -8 35 C-8.66 35 -9.32 35 -10 35 C-13.44 25.87 -13.91 18.71 -9.88 9.69 C-7.35 4.99 -4.56 2.69 0 0 Z " fill="#385F3B" transform="translate(510,601)"/>
<path d="M0 0 C-0.76 11.72 -4.05 18.77 -12.56 26.97 C-15.82 29.68 -17.74 31 -22 31 C-24 27.01 -23.46 22.68 -22.32 18.5 C-19.21 10.04 -15.46 4.92 -7.25 1 C-2.31 -1.16 -2.31 -1.16 0 0 Z " fill="#385F3B" transform="translate(514,548)"/>
<path d="M0 0 C8.09 2.09 14 5.31 18.38 12.62 C20.69 17.43 21.12 20.91 21.06 26.25 C21.05 27.33 21.04 28.41 21.04 29.52 C21.02 30.34 21.01 31.16 21 32 C13.36 29.87 7.74 25.06 3.32 18.5 C0.68 13.49 -1.79 7.74 -2 2 C-1.34 1.34 -0.68 0.68 0 0 Z " fill="#385F3B" transform="translate(766,547)"/>
<path d="M0 0 C1.24 0.02 1.24 0.02 2.5 0.04 C3.32 0.04 4.15 0.05 5 0.06 C5.64 0.07 6.28 0.09 6.93 0.1 C7.26 1.75 7.59 3.4 7.93 5.1 C7.27 5.1 6.61 5.1 5.93 5.1 C6.39 6.7 6.85 8.31 7.31 9.91 C7.56 10.8 7.82 11.7 8.08 12.62 C8.89 15.3 8.89 15.3 10.93 18.1 C11.47 16.69 11.99 15.27 12.5 13.85 C12.79 13.06 13.08 12.27 13.38 11.46 C13.99 8.85 13.8 7.6 12.93 5.1 C12.6 4.11 12.27 3.12 11.93 2.1 C13.93 0.1 13.93 0.1 16.1 -0.1 C17.32 -0.06 17.32 -0.06 18.56 -0.03 C19.78 -0 19.78 -0 21.04 0.03 C21.97 0.06 21.97 0.06 22.93 0.1 C24.15 3.75 23.62 4.46 22.1 7.88 C21.69 8.8 21.29 9.73 20.87 10.68 C20.44 11.64 20 12.61 19.56 13.6 C18.72 15.5 17.88 17.41 17.04 19.32 C16.66 20.16 16.28 21.01 15.89 21.88 C14.85 24.2 14.85 24.2 13.93 27.1 C10.62 27.79 10.62 27.79 6.93 28.1 C4.27 26.1 3.25 23.89 2.11 20.82 C1.8 20 1.5 19.17 1.18 18.32 C0.87 17.47 0.56 16.61 0.25 15.72 C-0.23 14.45 -0.23 14.45 -0.72 13.14 C-2.25 8.96 -3.37 5.61 -3.07 1.1 C-2.07 0.1 -2.07 0.1 0 0 Z " fill="#F6F4EA" transform="translate(667.06640625,691.90234375)"/>
<path d="M0 0 C0.89 -0.01 1.77 -0.03 2.69 -0.04 C5 0.19 5 0.19 7 2.19 C7.12 5.81 7.12 5.81 7 9.19 C2.25 8.44 2.25 8.44 0 6.19 C-2.11 6.51 -2.11 6.51 -4 7.19 C-1.51 9.25 0.89 11.12 3.69 12.75 C6 14.19 6 14.19 8 17.19 C8.43 20.59 8.39 22.49 6.69 25.5 C2.42 28.18 -2.03 28.28 -7 28.19 C-10.69 27.25 -10.69 27.25 -13 26.19 C-12.67 23.88 -12.34 21.57 -12 19.19 C-8.3 20.08 -4.65 21.13 -1 22.19 C-1.11 20.23 -1.11 20.23 -2 18.19 C-3.64 17.46 -5.31 16.8 -7 16.19 C-9.81 14.44 -9.81 14.44 -12 12.19 C-12.62 9.25 -12.62 9.25 -12 6.19 C-8.15 1.63 -5.87 0.04 0 0 Z " fill="#F6F4EA" transform="translate(570,691.8125)"/>
<path d="M0 0 C2 2 2 2 2.12 5.62 C2.08 6.74 2.04 7.85 2 9 C-2.75 8.25 -2.75 8.25 -5 6 C-7.11 6.32 -7.11 6.32 -9 7 C-6.51 9.06 -4.11 10.94 -1.31 12.56 C1 14 1 14 3 17 C3.43 20.41 3.39 22.31 1.69 25.31 C-2.52 27.95 -7.09 28.21 -12 28 C-14.79 27.16 -14.79 27.16 -17 26 C-17.88 23.5 -17.88 23.5 -18 21 C-17.67 20.34 -17.34 19.68 -17 19 C-13.3 19.89 -9.65 20.95 -6 22 C-6.11 20.04 -6.11 20.04 -7 18 C-8.64 17.27 -10.31 16.61 -12 16 C-16.79 12.62 -16.79 12.62 -18 9 C-16.76 5.7 -15.55 3.5 -12.94 1.12 C-8.7 -0.5 -4.49 -0.61 0 0 Z " fill="#F6F4EA" transform="translate(761,692)"/>
<path d="M0 0 C1.46 -0.05 2.92 -0.09 4.38 -0.12 C5.19 -0.15 6 -0.17 6.84 -0.2 C9 0 9 0 11 2 C10.62 5.62 10.62 5.62 10 9 C11.32 9 12.64 9 14 9 C14.21 5.11 14.21 5.11 13 2 C15 0 15 0 16.95 -0.2 C18.96 -0.13 20.98 -0.07 23 0 C23.71 2.2 23.71 2.2 24 5 C22.6 7.43 22.6 7.43 20.62 9.88 C17.48 14.09 15.89 16.72 16 22 C16.66 22.66 17.32 23.32 18 24 C18 24.99 18 25.98 18 27 C13.71 27 9.42 27 5 27 C5 24 5 24 6 23 C6.96 17.51 5.56 14.97 2.44 10.38 C1.45 9.03 1.45 9.03 0.43 7.65 C-1 5 -1 5 -0.71 2.16 C-0.48 1.45 -0.24 0.74 0 0 Z " fill="#F6F4EA" transform="translate(810,692)"/>
<path d="M0 0 C0.92 0.01 1.83 0.01 2.78 0.02 C3.77 0.02 4.76 0.02 5.78 0.03 C6.82 0.03 7.86 0.04 8.93 0.05 C10.5 0.06 10.5 0.06 12.1 0.06 C14.69 0.08 17.28 0.09 19.87 0.11 C21.37 3.48 21.87 5.32 21.87 9.11 C18.94 8.49 16.51 7.53 13.87 6.11 C11.94 8.04 12.65 11.37 12.62 13.93 C12.59 15.17 12.57 16.41 12.54 17.7 C12.89 21.31 13.52 22.47 15.87 25.11 C15.87 25.77 15.87 26.43 15.87 27.11 C11.58 27.11 7.29 27.11 2.87 27.11 C2.87 24.11 2.87 24.11 3.87 23.11 C3.94 20.25 3.96 17.41 3.93 14.55 C3.92 13.74 3.92 12.94 3.92 12.11 C3.9 10.11 3.89 8.11 3.87 6.11 C3.25 6.61 2.64 7.12 2.01 7.63 C-0.13 9.11 -0.13 9.11 -2.38 8.8 C-2.96 8.57 -3.54 8.35 -4.13 8.11 C-3.12 0.17 -3.12 0.17 0 0 Z " fill="#F6F4EA" transform="translate(785.133056640625,691.886474609375)"/>
<path d="M0 0 C5.98 0.12 5.98 0.12 7.09 1.23 C7.18 3.3 7.2 5.38 7.19 7.45 C7.18 8.71 7.18 9.97 7.18 11.27 C7.17 12.61 7.16 13.95 7.15 15.29 C7.15 16.64 7.14 17.98 7.14 19.33 C7.13 22.63 7.11 25.93 7.09 29.23 C5.44 29.26 3.8 29.28 2.15 29.29 C1.24 29.3 0.32 29.32 -0.62 29.33 C-2.91 29.23 -2.91 29.23 -3.91 28.23 C-4.16 23.92 -4.1 19.61 -4.1 15.29 C-4.12 13.46 -4.12 13.46 -4.13 11.6 C-4.14 10.44 -4.14 9.28 -4.14 8.08 C-4.14 7.01 -4.15 5.93 -4.15 4.83 C-3.86 1.72 -3.25 0.39 0 0 Z " fill="#F6F4EA" transform="translate(653.91015625,592.76953125)"/>
<path d="M0 0 C0.99 0 1.98 0 3 0 C2.56 4.4 -0.41 6.82 -3.4 9.76 C-3.95 10.31 -4.5 10.86 -5.06 11.43 C-6.23 12.59 -7.4 13.76 -8.58 14.92 C-10.34 16.66 -12.09 18.41 -13.84 20.16 C-20.59 26.89 -27.51 33.1 -35 39 C-36.25 40.02 -37.51 41.05 -38.76 42.08 C-47.87 49.5 -57.31 56.36 -67 63 C-67.6 63.41 -68.2 63.83 -68.82 64.26 C-83.92 74.6 -99.49 84.41 -115.38 93.5 C-116.03 93.88 -116.68 94.26 -117.36 94.65 C-118.87 95.5 -120.43 96.26 -122 97 C-122.66 96.67 -123.32 96.34 -124 96 C-118.25 91 -118.25 91 -116 91 C-115.55 90.53 -115.09 90.05 -114.62 89.56 C-112.73 87.74 -111.5 87.62 -109 87 C-107.98 86.02 -106.98 85.02 -106 84 C-105.34 84 -104.68 84 -104 84 C-103.01 83.01 -103.01 83.01 -102 82 C-100.51 81.5 -100.51 81.5 -99 81 C-98.01 80.01 -98.01 80.01 -97 79 C-95.51 78.5 -95.51 78.5 -94 78 C-93.01 77.01 -93.01 77.01 -92 76 C-90.67 75.33 -89.33 74.67 -88 74 C-87.34 73.34 -86.68 72.68 -86 72 C-85.01 71.67 -84.02 71.34 -83 71 C-82.34 70.34 -81.68 69.68 -81 69 C-79.67 68.33 -78.33 67.67 -77 67 C-76.34 66.34 -75.68 65.68 -75 65 C-73.67 64.33 -72.33 63.67 -71 63 C-70.34 62.34 -69.68 61.68 -69 61 C-66.92 59.7 -64.8 58.46 -62.68 57.22 C-62.13 56.82 -61.57 56.41 -61 56 C-61 55.34 -61 54.68 -61 54 C-60.38 53.88 -59.76 53.75 -59.12 53.62 C-56.81 53.13 -56.81 53.13 -55 51 C-53.68 49.99 -52.34 48.99 -51 48 C-47.94 45.73 -44.96 43.39 -42 41 C-41.2 40.36 -40.39 39.72 -39.56 39.06 C-34.21 34.75 -29.24 30.35 -24.5 25.38 C-22 23 -22 23 -20.1 22.09 C-15.83 19.88 -12.67 16 -9.31 12.62 C-8.53 11.86 -7.74 11.09 -6.94 10.3 C-6.19 9.55 -5.44 8.81 -4.68 8.04 C-3.99 7.36 -3.31 6.68 -2.61 5.98 C-0.95 3.93 -0.4 2.58 0 0 Z " fill="#F6F4EA" transform="translate(808,806)"/>
<path d="M0 0 C0.9 0.02 1.81 0.05 2.74 0.07 C4.11 0.1 4.11 0.1 5.5 0.12 C6.2 0.15 6.9 0.17 7.62 0.2 C7.95 1.85 8.28 3.5 8.62 5.2 C7.96 5.2 7.3 5.2 6.62 5.2 C6.56 7.99 6.52 10.78 6.49 13.57 C6.48 14.36 6.46 15.16 6.44 15.98 C6.42 18.05 6.51 20.12 6.62 22.2 C7.28 22.86 7.94 23.52 8.62 24.2 C8.62 25.19 8.62 26.18 8.62 27.2 C4.66 27.2 0.7 27.2 -3.38 27.2 C-3.71 26.54 -4.04 25.88 -4.38 25.2 C-4.05 24.54 -3.72 23.88 -3.38 23.2 C-3.28 20.39 -3.24 17.62 -3.26 14.82 C-3.25 14.05 -3.25 13.28 -3.25 12.49 C-3.25 11.37 -3.25 11.37 -3.25 10.23 C-3.25 9.56 -3.25 8.88 -3.25 8.18 C-3.31 6.14 -3.31 6.14 -4.02 4.07 C-4.14 3.45 -4.26 2.83 -4.38 2.2 C-2.38 0.2 -2.38 0.2 0 0 Z " fill="#F6F4EA" transform="translate(770.3828125,691.8046875)"/>
<path d="M0 0 C0.9 0.02 1.81 0.05 2.74 0.07 C4.11 0.1 4.11 0.1 5.5 0.12 C6.2 0.15 6.9 0.17 7.62 0.2 C7.95 1.85 8.28 3.5 8.62 5.2 C7.96 5.2 7.3 5.2 6.62 5.2 C6.56 7.99 6.52 10.78 6.49 13.57 C6.48 14.36 6.46 15.16 6.44 15.98 C6.42 18.05 6.51 20.12 6.62 22.2 C7.28 22.86 7.94 23.52 8.62 24.2 C8.62 25.19 8.62 26.18 8.62 27.2 C4.66 27.2 0.7 27.2 -3.38 27.2 C-3.71 26.54 -4.04 25.88 -4.38 25.2 C-4.05 24.54 -3.72 23.88 -3.38 23.2 C-3.28 20.39 -3.24 17.62 -3.26 14.82 C-3.25 14.05 -3.25 13.28 -3.25 12.49 C-3.25 11.37 -3.25 11.37 -3.25 10.23 C-3.25 9.56 -3.25 8.88 -3.25 8.18 C-3.31 6.14 -3.31 6.14 -4.02 4.07 C-4.14 3.45 -4.26 2.83 -4.38 2.2 C-2.38 0.2 -2.38 0.2 0 0 Z " fill="#F6F4EA" transform="translate(652.3828125,691.8046875)"/>
<path d="M0 0 C5.98 0.12 5.98 0.12 7.09 1.23 C7.18 2.79 7.2 4.36 7.19 5.92 C7.18 6.87 7.18 7.81 7.18 8.78 C7.17 9.78 7.16 10.77 7.15 11.79 C7.15 12.79 7.14 13.79 7.14 14.81 C7.13 17.29 7.11 19.76 7.09 22.23 C5.44 22.26 3.8 22.28 2.15 22.29 C1.24 22.3 0.32 22.32 -0.62 22.33 C-2.91 22.23 -2.91 22.23 -3.91 21.23 C-4.16 18.09 -4.1 14.94 -4.1 11.79 C-4.11 10.91 -4.12 10.02 -4.13 9.11 C-4.14 8.27 -4.14 7.42 -4.14 6.55 C-4.14 5.77 -4.15 4.99 -4.15 4.19 C-3.81 1.4 -2.8 0.34 0 0 Z " fill="#F6F4EA" transform="translate(580.91015625,627.76953125)"/>
<path d="M0 0 C1.28 3.84 0.47 4.91 -1.12 8.56 C-1.59 9.62 -2.05 10.68 -2.52 11.77 C-4.57 16.24 -6.73 20.64 -9 25 C-10.46 25.03 -11.92 25.05 -13.38 25.06 C-14.19 25.07 -15 25.09 -15.84 25.1 C-18 25 -18 25 -20 24 C-18.63 18.47 -16.09 15.42 -12.25 11.44 C-11.74 10.89 -11.22 10.34 -10.7 9.77 C-7.34 6.21 -3.81 3.06 0 0 Z " fill="#F5F3E9" transform="translate(648,516)"/>
<path d="M0 0 C2.38 1.19 2.38 1.19 3.38 3.19 C4.57 14.03 4.57 14.03 2.04 18.6 C0.57 20.28 -0.9 21.77 -2.62 23.19 C-3.28 22.86 -3.95 22.53 -4.62 22.19 C-3.99 21.4 -3.35 20.62 -2.69 19.81 C-0.64 17.39 -0.64 17.39 0.38 15.19 C-0.25 14.99 -0.88 14.8 -1.52 14.6 C-2.34 14.34 -3.16 14.08 -4 13.81 C-5.22 13.43 -5.22 13.43 -6.46 13.04 C-8.62 12.19 -8.62 12.19 -10.62 10.19 C-10.47 6.59 -10.03 4.69 -7.75 1.88 C-4.91 -0.38 -3.52 -1.09 0 0 Z " fill="#385F3B" transform="translate(666.625,790.8125)"/>
<path d="M0 0 C0.99 0 1.98 0 3 0 C4.38 2.77 4.11 5.01 4.1 8.1 C4.09 9.92 4.09 9.92 4.09 11.77 C4.08 13.04 4.07 14.32 4.06 15.62 C4.06 16.9 4.05 18.18 4.05 19.5 C4.04 22.67 4.02 25.83 4 29 C2.33 29.04 0.67 29.04 -1 29 C-3.65 26.35 -2.19 18.63 -2.19 15.06 C-2.21 13.23 -2.21 13.23 -2.22 11.37 C-2.23 10.21 -2.23 9.04 -2.23 7.85 C-2.23 6.78 -2.24 5.7 -2.24 4.6 C-2 2 -2 2 0 0 Z " fill="#F6F4EA" transform="translate(666,561)"/>
<path d="M0 0 C0.9 0.02 1.81 0.05 2.74 0.07 C4.11 0.1 4.11 0.1 5.5 0.12 C6.2 0.15 6.9 0.17 7.62 0.2 C7.95 1.19 8.28 2.18 8.62 3.2 C5.98 3.53 3.34 3.86 0.62 4.2 C0.29 5.52 -0.04 6.84 -0.38 8.2 C1.93 8.86 4.24 9.52 6.62 10.2 C6.62 10.86 6.62 11.52 6.62 12.2 C4.31 12.86 2 13.52 -0.38 14.2 C-0.38 15.85 -0.38 17.5 -0.38 19.2 C2.92 19.86 6.22 20.52 9.62 21.2 C9.62 21.86 9.62 22.52 9.62 23.2 C7.47 23.22 5.33 23.24 3.18 23.26 C1.98 23.27 0.79 23.28 -0.44 23.29 C-3.38 23.2 -3.38 23.2 -4.38 22.2 C-4.63 18.89 -4.57 15.57 -4.57 12.26 C-4.58 11.33 -4.59 10.39 -4.61 9.43 C-4.61 8.54 -4.61 7.65 -4.61 6.73 C-4.62 5.5 -4.62 5.5 -4.63 4.24 C-4.25 1.07 -3.12 0.26 0 0 Z " fill="#385F3B" transform="translate(584.3828125,790.8046875)"/>
<path d="M0 0 C0.33 0.99 0.66 1.98 1 3 C-0.61 2.72 -0.61 2.72 -2.25 2.44 C-5.4 2.07 -7.1 1.96 -10 3 C-10 3.99 -10 4.98 -10 6 C-9.3 6.33 -8.6 6.65 -7.88 6.99 C-6.97 7.43 -6.06 7.86 -5.12 8.31 C-4.22 8.74 -3.32 9.17 -2.38 9.61 C0 11 0 11 2 14 C2.25 17.06 2.25 17.06 2 20 C-0.84 22.84 -3.04 22.74 -7 23 C-10.44 22.06 -10.44 22.06 -13 21 C-13 20.34 -13 19.68 -13 19 C-9.7 19 -6.4 19 -3 19 C-2.67 17.68 -2.34 16.36 -2 15 C-5.65 11.96 -9.74 10.03 -14 8 C-13.62 5.06 -13.62 5.06 -13 2 C-12.34 1.67 -11.68 1.34 -11 1 C-10.34 0.34 -9.68 -0.32 -9 -1 C-5.2 -2.27 -3.61 -1.57 0 0 Z " fill="#385F3B" transform="translate(610,792)"/>
<path d="M0 0 C0.99 0.33 1.98 0.66 3 1 C3 10.24 3 19.48 3 29 C1.35 28.67 -0.3 28.34 -2 28 C-2.06 23.71 -2.09 19.42 -2.12 15.12 C-2.14 13.9 -2.16 12.68 -2.18 11.42 C-2.18 10.25 -2.19 9.08 -2.2 7.88 C-2.21 6.8 -2.22 5.73 -2.23 4.61 C-2 2 -2 2 0 0 Z " fill="#F6F4EA" transform="translate(675,593)"/>
<path d="M0 0 C0.99 0.33 1.98 0.66 3 1 C3 7.93 3 14.86 3 22 C1.35 22 -0.3 22 -2 22 C-4.16 19.84 -3.23 15.11 -3.25 12.12 C-3.27 11.3 -3.29 10.47 -3.31 9.61 C-3.32 8.82 -3.32 8.02 -3.33 7.2 C-3.34 6.46 -3.35 5.73 -3.36 4.98 C-2.91 2.48 -1.91 1.6 0 0 Z " fill="#F6F4EA" transform="translate(614,628)"/>
<path d="M0 0 C2.22 3.32 2.2 4.28 2.06 8.12 C2.01 9.75 1.98 11.37 2 13 C2.33 13.33 2.66 13.66 3 14 C3.46 19.26 3.46 19.26 1.88 21.81 C-0.78 23.49 -2.88 23.81 -6 24 C-8.88 23.06 -8.88 23.06 -11 22 C-10.67 21.34 -10.34 20.68 -10 20 C-8.33 20.31 -8.33 20.31 -6.62 20.62 C-5.43 20.75 -4.23 20.87 -3 21 C-2.34 20.34 -1.68 19.68 -1 19 C-1.32 15.4 -1.32 15.4 -2 12 C-3.32 12 -4.64 12 -6 12 C-6 11.01 -6 10.02 -6 9 C-4.68 8.67 -3.36 8.34 -2 8 C-2.33 6.35 -2.66 4.7 -3 3 C-4.65 3 -6.3 3 -8 3 C-7.67 2.01 -7.34 1.02 -7 0 C-3.87 -1.04 -2.98 -1.15 0 0 Z " fill="#39603C" transform="translate(685,791)"/>
<path d="M0 0 C4.29 0 8.58 0 13 0 C13.33 0.99 13.66 1.98 14 3 C12.35 3.66 10.7 4.32 9 5 C8.67 10.94 8.34 16.88 8 23 C7.34 23 6.68 23 6 23 C4.35 19.7 4.62 16.01 4.44 12.38 C4.39 11.57 4.35 10.77 4.31 9.95 C4.2 7.96 4.1 5.98 4 4 C2.35 3.67 0.7 3.34 -1 3 C-0.67 2.01 -0.34 1.02 0 0 Z " fill="#385F3B" transform="translate(616,791)"/>
<path d="M0 0 C0.99 0.33 1.98 0.66 3 1 C3 7.93 3 14.86 3 22 C1.35 21.67 -0.3 21.34 -2 21 C-2.06 17.88 -2.09 14.75 -2.12 11.62 C-2.14 10.74 -2.16 9.85 -2.18 8.93 C-2.18 8.08 -2.19 7.23 -2.2 6.35 C-2.21 5.57 -2.22 4.78 -2.23 3.97 C-2 2 -2 2 0 0 Z " fill="#F6F4EA" transform="translate(602,628)"/>
<path d="M0 0 C0.99 0 1.98 0 3 0 C3 7.26 3 14.52 3 22 C2.01 21.67 1.02 21.34 0 21 C-0.06 19.96 -0.12 18.93 -0.18 17.86 C-0.27 16.49 -0.35 15.12 -0.44 13.75 C-0.48 13.07 -0.52 12.39 -0.56 11.68 C-0.73 8.92 -0.91 6.32 -1.66 3.64 C-1.77 3.1 -1.88 2.56 -2 2 C-1.34 1.34 -0.68 0.68 0 0 Z " fill="#385F3B" transform="translate(648,792)"/>
<path d="M0 0 C0.66 0.33 1.32 0.66 2 1 C2 7.93 2 14.86 2 22 C1.01 21.34 0.02 20.68 -1 20 C-1.22 17.1 -1.22 17.1 -1.06 13.62 C-0.8 8.02 -0.8 8.02 -3 3 C-2.01 2.01 -1.02 1.02 0 0 Z " fill="#385F3B" transform="translate(696,792)"/>
<path d="M0 0 C0.99 0.33 1.98 0.66 3 1 C3.33 3.31 3.66 5.62 4 8 C1.69 8.62 1.69 8.62 -1 9 C-1.99 8.34 -2.98 7.68 -4 7 C-3.69 4.62 -3.69 4.62 -3 2 C-2.01 1.34 -1.02 0.68 0 0 Z " fill="#F6F4EA" transform="translate(663,793)"/>
<path d="M0 0 C0.99 0.33 1.98 0.66 3 1 C3.33 3.31 3.66 5.62 4 8 C2.33 8.04 0.67 8.04 -1 8 C-2 7 -2 7 -2.19 4.56 C-2 2 -2 2 0 0 Z " fill="#385F3B" transform="translate(729,696)"/>
</svg>
