<svg version="1.1" id="Layer_1" xmlns="http://www.w3.org/2000/svg" xmlns:xlink="http://www.w3.org/1999/xlink" x="0px" y="0px"
	 width="100%" viewBox="0 0 1080 1080" enable-background="new 0 0 1080 1080" xml:space="preserve">
<path fill="#FFFFFF" opacity="1.000000" stroke="none" 
	d="
M681.000000,1081.000000 
	C454.026123,1081.000000 227.552277,1081.000000 1.039205,1081.000000 
	C1.039205,721.067688 1.039205,361.135345 1.039205,1.101518 
	C360.890747,1.101518 720.781555,1.101518 1080.836182,1.101518 
	C1080.836182,360.999939 1080.836182,720.999939 1080.836182,1081.000000 
	C947.801575,1081.000000 814.650818,1081.000000 681.000000,1081.000000 
M498.859833,531.469238 
	C542.262329,521.625000 571.418335,495.490906 583.531067,452.885315 
	C595.705200,410.063721 583.324707,372.866180 551.391418,341.622498 
	C583.403320,324.647583 615.002808,307.891388 647.744324,290.529572 
	C637.354797,288.895935 628.392273,287.462555 619.421997,286.080170 
	C570.092346,278.478149 520.762085,270.880219 471.427399,263.310883 
	C467.550964,262.716125 463.933502,262.209747 459.942871,264.329529 
	C400.193115,296.067871 340.334106,327.600525 280.505554,359.190582 
	C271.741913,363.817871 263.002655,368.491425 253.116562,373.747284 
	C293.861389,380.044098 333.316284,386.141571 372.876923,392.255371 
	C372.413208,394.241669 372.098389,395.698669 371.732269,397.142670 
	C360.577301,441.139801 378.073303,487.881042 415.370514,513.566772 
	C440.449890,530.838379 468.132965,536.379150 498.859833,531.469238 
M365.773407,490.691254 
	C348.740082,463.529205 343.540039,434.155914 349.851318,402.502594 
	C305.111328,395.532990 260.838470,388.636169 214.989700,381.493866 
	C260.573639,357.442932 304.822693,334.096344 349.369232,310.592743 
	C302.655975,269.393646 248.353897,247.180145 187.171783,239.592560 
	C187.171783,326.760437 187.171783,413.322510 187.171783,499.469208 
	C293.355042,512.538086 370.613129,564.211182 411.557678,665.302429 
	C411.882721,621.917664 411.915710,578.926453 411.759216,535.935913 
	C411.753113,534.258118 410.349945,531.842590 408.893860,531.026062 
	C391.415680,521.224487 377.030914,508.170441 365.773407,490.691254 
M73.955772,462.500000 
	C73.955772,506.284454 73.955772,550.068909 73.955772,594.011108 
	C75.419273,594.109375 76.389389,594.209839 77.361435,594.234558 
	C129.536652,595.563721 181.515030,599.090271 232.874023,608.929443 
	C286.564178,619.215210 338.877838,633.240356 383.997833,666.388977 
	C383.935486,665.846924 384.031555,665.267944 383.795624,664.904541 
	C383.165588,663.934265 382.414520,663.038635 381.673859,662.144592 
	C360.070862,636.068115 332.935760,617.426880 302.127991,604.106812 
	C246.552399,580.078186 187.941391,572.645630 127.944832,573.311340 
	C121.866997,573.378784 115.787766,573.320374 109.328117,573.320374 
	C109.328117,493.224182 109.328117,413.119873 109.328117,332.754944 
	C97.380180,332.754944 85.813461,332.754944 73.955658,332.754944 
	C73.955658,375.865540 73.955658,418.682770 73.955772,462.500000 
M395.609589,659.852844 
	C386.215881,641.489746 374.154938,624.991577 360.091492,609.989197 
	C316.240967,563.211060 261.552460,536.814209 199.209335,525.044189 
	C188.617859,523.044617 177.916855,521.625122 166.783386,519.861084 
	C166.783386,439.264252 166.783386,358.709167 166.783386,278.121460 
	C154.697632,278.121460 143.117722,278.121460 131.501709,278.121460 
	C131.501709,365.588287 131.501709,452.761841 131.501709,539.603027 
	C236.745163,544.416809 325.683197,583.183899 395.900177,662.759460 
	C395.900177,661.829895 395.900177,661.174194 395.609589,659.852844 
M549.502197,568.966309 
	C544.202576,568.966309 538.902954,568.966309 533.736145,568.966309 
	C532.047058,573.098816 534.420227,573.006165 536.970398,573.084167 
	C544.473816,573.313477 547.672180,575.181213 547.811401,581.289185 
	C548.215027,599.006714 547.954346,616.739258 547.954346,634.465942 
	C546.445496,634.267151 545.867920,632.873779 544.916199,631.817566 
	C526.966370,611.896179 508.980774,592.007019 490.966003,572.144409 
	C489.890472,570.958496 488.528046,569.182251 487.264069,569.152100 
	C477.012634,568.907593 466.752808,569.014771 456.495514,569.014771 
	C456.269714,569.656372 456.043915,570.297913 455.818085,570.939514 
	C457.228821,571.714111 458.558594,572.893311 460.064056,573.194641 
	C467.325562,574.648315 468.917816,575.869873 468.924011,581.018250 
	C468.950989,603.505005 468.993408,625.992065 468.893463,648.478394 
	C468.848419,658.606812 466.658936,660.945618 455.211273,662.547363 
	C456.757751,664.099731 457.691986,665.862305 458.653320,665.877258 
	C470.749817,666.065125 482.850281,666.000610 494.949707,666.000610 
	C495.218994,665.411682 495.488312,664.822754 495.757599,664.233826 
	C494.453461,663.385559 493.249207,662.064392 491.829254,661.764587 
	C481.239990,659.528564 479.878784,657.959290 479.878754,647.193237 
	C479.878693,634.367432 479.878754,621.541626 479.878754,608.715820 
	C479.878754,602.965759 479.878723,597.215698 479.878723,591.465637 
	C480.433411,591.083191 480.988129,590.700684 481.542816,590.318237 
	C482.030487,591.360901 482.303314,592.595764 483.038177,593.417297 
	C493.809021,605.458374 504.641541,617.444275 515.459229,629.443420 
	C525.607666,640.700256 535.747925,651.964478 545.909851,663.209106 
	C548.543884,666.123718 551.609009,667.720581 555.674072,666.299500 
	C559.855103,664.837830 558.860291,661.318726 558.865906,658.297302 
	C558.910156,634.478088 558.890564,610.658691 558.890625,586.839355 
	C558.890686,577.451416 559.997009,576.116821 569.188293,573.284180 
	C570.469543,572.889343 571.381714,571.297180 572.464722,570.259216 
	C572.125427,569.828247 571.786133,569.397278 571.446777,568.966309 
	C564.465027,568.966309 557.483215,568.966309 549.502197,568.966309 
M692.510681,666.005920 
	C701.638550,666.005920 710.766479,666.005920 719.894348,666.005920 
	C720.168701,665.458496 720.442993,664.911072 720.717346,664.363647 
	C719.402039,663.408020 718.194214,662.220459 716.746765,661.550171 
	C714.468384,660.495178 712.028748,659.788391 709.657410,658.934204 
	C710.659241,656.464905 711.242615,653.698975 712.742981,651.583191 
	C716.882935,645.745300 721.404968,640.178406 725.778381,634.506226 
	C728.061035,631.545654 730.348999,628.589233 732.996155,625.162903 
	C740.574280,635.182617 747.641724,644.419006 754.582764,653.749390 
	C758.140686,658.532104 757.156738,661.032288 751.266113,661.707947 
	C748.329407,662.044861 747.364075,662.856812 748.672302,665.993286 
	C763.728088,665.993286 778.868774,666.030273 794.008240,665.916077 
	C795.100281,665.907837 796.184021,664.797119 797.271606,664.198975 
	C797.177673,663.752625 797.083740,663.306213 796.989807,662.859802 
	C795.465027,662.467529 793.955200,661.998962 792.412781,661.696777 
	C786.777283,660.592590 782.210754,657.819580 778.731567,653.226562 
	C768.272705,639.419373 757.840637,625.591309 747.269836,611.870178 
	C745.614929,609.721924 745.716553,608.279541 747.349182,606.261414 
	C751.747864,600.823975 756.081726,595.324585 760.214661,589.683716 
	C766.767151,580.740479 773.815674,572.680054 786.743225,572.271790 
	C785.879578,570.592407 784.825684,569.088684 783.752075,569.074463 
	C771.285156,568.909180 758.815308,568.968689 746.489258,568.968689 
	C744.710815,573.707642 747.976196,572.921448 750.284668,573.192566 
	C756.067322,573.871765 757.805237,575.545776 755.589661,578.687561 
	C750.444885,585.983093 744.860779,592.968750 738.950134,600.743958 
	C732.376709,592.012817 726.354248,584.013550 719.459045,574.855042 
	C724.504517,573.891602 728.112427,573.202698 731.724792,572.512878 
	C732.800781,569.451599 731.319946,568.900757 728.579163,568.925720 
	C717.414185,569.027588 706.247803,568.967590 695.081909,568.967346 
	C689.794495,568.967224 684.507019,568.967285 679.219604,568.967285 
	C678.977295,569.526978 678.734985,570.086731 678.492615,570.646423 
	C679.709290,571.504456 680.835571,572.906494 682.158264,573.126160 
	C687.836243,574.069153 693.465881,575.165161 697.311401,579.870483 
	C707.192810,591.961121 716.904663,604.190369 727.028687,616.792969 
	C717.227356,629.025085 707.976929,641.002991 698.223755,652.556519 
	C693.446960,658.215088 687.359375,662.359863 678.897888,662.839661 
	C679.730957,664.356445 680.810730,665.760132 682.028259,665.891846 
	C685.158020,666.230652 688.348877,666.005615 692.510681,666.005920 
M620.844971,596.497192 
	C620.844971,590.379944 620.844971,584.262756 620.844971,577.751831 
	C629.661865,577.751831 637.950989,577.586731 646.228882,577.820740 
	C650.436768,577.939575 652.678467,580.971741 653.788208,584.739075 
	C654.395996,586.802429 654.378479,589.064636 655.095886,591.075684 
	C655.552124,592.354675 656.839355,593.337219 657.753967,594.452698 
	C658.259521,594.186951 658.765137,593.921204 659.270691,593.655457 
	C658.890381,587.041626 658.226929,580.427490 658.233276,573.814026 
	C658.237244,569.672180 656.586792,568.865173 652.850098,568.892273 
	C632.187988,569.042053 611.524109,568.928406 590.861450,569.036743 
	C589.376099,569.044495 587.896179,570.100403 586.413696,570.668945 
	C587.762939,571.476746 589.023804,572.731812 590.475952,573.018799 
	C599.064270,574.716125 601.052551,576.987305 601.053894,585.721191 
	C601.056946,605.217896 601.054810,624.714661 601.054810,644.211365 
	C601.054810,660.508789 601.061890,660.598572 584.824768,661.869446 
	C581.298462,662.145447 581.636963,663.585266 582.523315,665.828186 
	C609.419495,665.828186 636.053589,665.828186 663.215820,665.828186 
	C663.993896,656.892822 664.759888,648.096680 665.525818,639.300537 
	C664.836914,639.093567 664.148071,638.886658 663.459167,638.679688 
	C662.643677,640.440186 661.532776,642.125854 661.064270,643.974304 
	C659.119202,651.647644 654.921692,656.771545 649.131775,657.039978 
	C641.486145,657.394348 633.794678,657.394409 626.161682,656.921021 
	C624.349121,656.808594 621.255554,654.267944 621.192505,652.743164 
	C620.754700,642.164856 620.961548,631.559814 620.961548,620.687012 
	C627.510315,620.687012 633.491760,620.637512 639.472107,620.699524 
	C647.002136,620.777588 648.955933,622.665771 650.203552,630.216187 
	C650.407776,631.452087 651.807129,632.490601 652.654114,633.620300 
	C653.047607,633.332886 653.441162,633.045471 653.834717,632.757996 
	C653.834717,622.185791 653.834717,611.613586 653.834717,601.041382 
	C653.373779,600.794739 652.912903,600.548096 652.451965,600.301453 
	C651.657104,601.511780 650.376221,602.640564 650.156860,603.947449 
	C649.442749,608.202820 647.441345,611.483093 643.031372,611.723633 
	C635.780151,612.118958 628.491638,611.830750 620.844910,611.830750 
	C620.844910,606.768066 620.844910,602.131897 620.844971,596.497192 
M833.498962,568.965515 
	C824.719788,568.965515 815.940613,568.965515 807.161438,568.965515 
	C806.935303,569.534668 806.709106,570.103882 806.482910,570.673035 
	C807.753296,571.448853 808.934814,572.630859 810.309143,572.931335 
	C816.755615,574.340515 818.990784,576.915161 818.997009,583.575623 
	C819.012939,600.566223 819.024597,617.556946 818.998779,634.547485 
	C818.980896,646.314392 824.116455,655.507324 834.491760,660.490051 
	C841.832642,664.015503 850.087708,666.675049 858.154724,667.459900 
	C884.422363,670.015442 904.960571,658.226074 905.031799,626.318481 
	C905.062622,612.492859 905.029663,598.667053 905.048096,584.841370 
	C905.058777,576.815308 907.287231,574.330017 915.196899,572.821960 
	C916.315613,572.608704 917.187927,571.103699 918.174316,570.196594 
	C917.872803,569.843872 917.571228,569.491150 917.269714,569.138428 
	C905.312317,569.138428 893.354919,569.138428 881.397522,569.138428 
	C881.102661,569.494934 880.807800,569.851501 880.512939,570.208008 
	C881.482605,571.103638 882.335815,572.583740 883.440125,572.803833 
	C893.588013,574.826599 895.875488,577.367249 895.947327,587.884460 
	C896.045227,602.209167 896.058594,616.535461 895.967468,630.860229 
	C895.867432,646.582703 887.695435,656.059326 872.224304,658.656189 
	C855.128723,661.525696 842.377136,653.653259 839.395142,638.197998 
	C838.801514,635.121399 838.797180,631.902039 838.784546,628.747437 
	C838.725281,613.922546 838.744019,599.097290 838.763123,584.272156 
	C838.773865,575.963684 840.424988,574.184509 848.556763,572.828491 
	C849.759033,572.628052 850.753723,571.182495 851.844421,570.312988 
	C851.535645,569.863831 851.226807,569.414673 850.918030,568.965515 
	C845.444641,568.965515 839.971313,568.965515 833.498962,568.965515 
M961.643127,572.275269 
	C971.584778,572.384827 979.343872,576.038513 983.903687,585.425110 
	C984.578552,586.814392 986.698669,587.501587 988.150085,588.513672 
	C988.556458,588.159058 988.962830,587.804443 989.369202,587.449829 
	C988.652100,581.648804 987.934998,575.847778 987.336670,571.007568 
	C981.311401,569.671448 976.287537,568.718323 971.351013,567.430298 
	C959.947876,564.455017 949.550903,566.360962 940.330505,573.716736 
	C934.931641,578.023682 932.279602,583.641174 932.808228,590.755554 
	C933.608215,601.521851 939.903503,608.791504 947.912354,614.910950 
	C953.725647,619.352783 960.109863,623.081299 965.696899,627.773865 
	C969.689270,631.127075 973.575378,635.105103 976.101440,639.595947 
	C980.566956,647.535217 977.495605,657.063599 970.447510,660.113342 
	C959.519897,664.841919 946.367371,660.259033 940.837402,649.804443 
	C939.751587,647.751587 938.810791,645.584595 937.446350,643.733154 
	C936.812805,642.873535 935.324402,642.643982 934.223450,642.128784 
	C933.777954,643.130920 932.881897,644.169800 932.960083,645.129333 
	C933.468262,651.367126 934.188171,657.587646 934.723083,662.706970 
	C940.470215,664.018494 945.264771,664.951538 949.969849,666.217102 
	C962.983948,669.717773 975.090271,667.979309 985.923523,659.829712 
	C992.281616,655.046753 995.497742,648.558044 995.067200,640.363953 
	C994.571716,630.935669 990.255615,623.394836 983.346313,617.483704 
	C977.294739,612.306519 970.489990,608.019897 964.264954,603.031616 
	C960.143311,599.728882 955.803589,596.365417 952.711243,592.179626 
	C945.999146,583.094299 949.735107,574.476440 961.643127,572.275269 
M513.332458,723.487427 
	C513.332458,727.921570 513.332458,732.355713 513.332458,736.722900 
	C515.681152,736.722900 517.418701,736.722900 519.807983,736.722900 
	C519.807983,728.787537 519.807983,721.148987 519.807983,712.192017 
	C525.657410,720.019714 530.812378,726.517639 535.487427,733.344116 
	C537.807739,736.732239 540.295654,737.872009 543.859985,736.624939 
	C543.859985,724.821045 543.859985,713.241150 543.859985,701.343872 
	C541.793701,701.479980 540.071594,701.593445 537.821533,701.741638 
	C537.821533,709.952515 537.821533,717.607910 537.821533,726.238464 
	C532.058411,718.507080 526.838196,711.809998 521.984619,704.857117 
	C519.729553,701.626587 517.299072,700.501831 513.332458,702.100647 
	C513.332458,708.892883 513.332458,715.692566 513.332458,723.487427 
M732.705505,729.782349 
	C731.759888,728.310364 730.814270,726.838440 729.791504,725.246399 
	C735.592407,722.056946 737.652283,717.299744 736.706848,711.271606 
	C735.964172,706.535889 733.050232,703.011963 728.451355,702.361389 
	C721.816589,701.422974 715.035706,701.517639 708.420776,701.176819 
	C708.420776,713.735901 708.420776,725.303223 708.420776,737.073242 
	C710.508850,736.976440 712.248108,736.895752 714.269043,736.802063 
	C714.269043,733.085815 714.269043,729.810669 714.269043,726.783020 
	C721.017456,724.873413 725.944214,726.367859 728.337097,733.140076 
	C729.832397,737.371765 733.036682,737.610474 737.237488,736.617004 
	C735.790833,734.458252 734.433289,732.432617 732.705505,729.782349 
M665.391235,706.949280 
	C670.996277,706.949280 676.601318,706.949280 682.288696,706.949280 
	C682.288696,704.875854 682.288696,703.325195 682.288696,701.742981 
	C673.729858,701.742981 665.514160,701.742981 657.378601,701.742981 
	C657.378601,713.654907 657.378601,725.213989 657.378601,736.797852 
	C666.074219,736.797852 674.466919,736.797852 683.147766,736.797852 
	C683.057312,734.972168 682.979431,733.401123 682.878296,731.360718 
	C676.139099,731.360718 669.737488,731.360718 663.427917,731.360718 
	C663.427917,727.973083 663.427917,725.078186 663.427917,721.856201 
	C669.154358,721.856201 674.593811,721.856201 680.526367,721.856201 
	C680.434875,719.813599 680.360291,718.148376 680.269531,716.121216 
	C674.204529,716.121216 668.767151,716.121216 662.564148,716.121216 
	C663.226501,712.737061 663.788513,709.865784 665.391235,706.949280 
M763.619202,705.166199 
	C759.473267,712.156982 761.144043,717.164917 768.666748,720.067749 
	C770.985535,720.962463 773.672302,721.219543 775.664368,722.554016 
	C777.583374,723.839661 778.822388,726.140381 780.360168,727.995056 
	C778.211548,729.170776 775.930664,731.506775 773.941833,731.280090 
	C769.826294,730.811157 765.866150,728.978821 761.366638,727.556885 
	C760.935303,728.479126 760.211609,730.026550 759.536499,731.470093 
	C766.242737,737.134644 774.811279,738.802124 781.168701,735.770081 
	C784.887207,733.996521 787.200317,731.214722 787.165955,726.810730 
	C787.133484,722.630798 785.090454,719.866821 781.372925,718.348267 
	C778.151428,717.032227 774.635620,716.317444 771.622437,714.659851 
	C770.071289,713.806641 769.332092,711.477356 768.226013,709.815063 
	C769.829407,708.867126 771.491272,707.041870 773.024719,707.144043 
	C776.867615,707.400146 780.652344,708.529175 784.678162,709.352661 
	C785.242004,708.104614 785.901672,706.644409 786.533936,705.245056 
	C779.181458,699.973877 771.145142,699.822693 763.619202,705.166199 
M462.156158,705.091736 
	C462.613892,699.592651 459.104309,701.634888 456.795807,701.723389 
	C456.795807,710.350342 456.076813,718.696899 457.012238,726.853699 
	C457.832672,734.007751 464.254608,737.473572 472.913574,737.120300 
	C480.346069,736.817078 486.132141,732.696716 486.688141,725.917969 
	C487.346313,717.893372 486.842804,709.773376 486.842804,701.778137 
	C484.715851,701.778137 482.985901,701.778137 481.055939,701.778137 
	C481.055939,708.614441 481.114105,715.092651 481.039948,721.569336 
	C480.962402,728.341492 477.613708,731.940918 471.623199,731.881348 
	C465.693726,731.822327 462.313751,728.167786 462.179596,721.451843 
	C462.076691,716.298035 462.157135,711.140564 462.156158,705.091736 
M603.067383,709.554321 
	C606.707764,718.635681 610.348145,727.717041 614.299561,737.574341 
	C616.551392,736.885803 620.081055,736.821777 620.682495,735.462219 
	C625.553284,724.451172 629.874634,713.197083 634.397766,701.931702 
	C630.056274,700.536682 627.994446,701.700256 626.634216,705.741150 
	C623.981140,713.622559 620.716492,721.298096 617.289978,730.128784 
	C613.922974,721.300293 610.722046,713.667053 608.137756,705.830444 
	C606.713257,701.510864 604.395142,700.508301 600.123047,701.911743 
	C601.048828,704.255188 601.949463,706.534668 603.067383,709.554321 
M852.077759,728.443604 
	C852.077759,731.224304 852.077759,734.005066 852.077759,736.839600 
	C854.361389,736.839600 856.141541,736.839600 858.162598,736.839600 
	C858.162598,726.871399 858.162598,717.093323 858.162598,706.832642 
	C861.967712,706.832642 865.539917,706.832642 869.456482,706.832642 
	C869.332458,704.758606 869.238831,703.192200 869.142639,701.583740 
	C859.609802,701.583740 850.522034,701.583740 841.189575,701.583740 
	C841.189575,703.347717 841.189575,704.923096 841.189575,707.039185 
	C844.805115,707.039185 848.356567,707.039185 852.077759,707.039185 
	C852.077759,714.203247 852.077759,720.829895 852.077759,728.443604 
M892.144409,709.446228 
	C896.896484,718.048279 903.478333,726.017700 900.708862,737.114319 
	C903.390137,736.978699 905.132935,736.890503 907.398926,736.775879 
	C903.937988,722.337952 915.501648,713.428894 919.376892,701.782654 
	C915.533020,700.614136 913.305908,701.799133 911.631653,705.288818 
	C909.519897,709.690491 906.797791,713.799316 903.987610,718.639709 
	C901.048340,713.663391 898.334351,709.519104 896.093689,705.132935 
	C894.289612,701.601562 891.980286,700.534302 888.114929,702.000732 
	C889.455627,704.432495 890.652039,706.602478 892.144409,709.446228 
M571.792725,736.744019 
	C573.554626,736.850159 575.316528,736.956360 577.145325,737.066528 
	C577.145325,724.977112 577.145325,713.377991 577.145325,701.723083 
	C575.151306,701.723083 573.419983,701.723083 571.368225,701.723083 
	C571.368225,713.356140 571.368225,724.648987 571.792725,736.744019 
M812.092590,704.894775 
	C812.092590,715.500244 812.092590,726.105774 812.092590,736.771729 
	C814.343445,736.771729 816.080750,736.771729 817.854858,736.771729 
	C817.854858,724.950623 817.854858,713.380310 817.854858,699.896606 
	C815.269531,701.732483 813.681519,702.860107 812.092590,704.894775 
z"/>
<path fill="#014AAD" opacity="1.000000" stroke="none" 
	d="
M498.450806,531.597900 
	C468.132965,536.379150 440.449890,530.838379 415.370514,513.566772 
	C378.073303,487.881042 360.577301,441.139801 371.732269,397.142670 
	C372.098389,395.698669 372.413208,394.241669 372.876923,392.255371 
	C333.316284,386.141571 293.861389,380.044098 253.116562,373.747284 
	C263.002655,368.491425 271.741913,363.817871 280.505554,359.190582 
	C340.334106,327.600525 400.193115,296.067871 459.942871,264.329529 
	C463.933502,262.209747 467.550964,262.716125 471.427399,263.310883 
	C520.762085,270.880219 570.092346,278.478149 619.421997,286.080170 
	C628.392273,287.462555 637.354797,288.895935 647.744324,290.529572 
	C615.002808,307.891388 583.403320,324.647583 551.391418,341.622498 
	C583.324707,372.866180 595.705200,410.063721 583.531067,452.885315 
	C571.418335,495.490906 542.262329,521.625000 498.450806,531.597900 
z"/>
<path fill="#014BAD" opacity="1.000000" stroke="none" 
	d="
M365.953094,491.005951 
	C377.030914,508.170441 391.415680,521.224487 408.893860,531.026062 
	C410.349945,531.842590 411.753113,534.258118 411.759216,535.935913 
	C411.915710,578.926453 411.882721,621.917664 411.557678,665.302429 
	C370.613129,564.211182 293.355042,512.538086 187.171783,499.469208 
	C187.171783,413.322510 187.171783,326.760437 187.171783,239.592560 
	C248.353897,247.180145 302.655975,269.393646 349.369232,310.592743 
	C304.822693,334.096344 260.573639,357.442932 214.989700,381.493866 
	C260.838470,388.636169 305.111328,395.532990 349.851318,402.502594 
	C343.540039,434.155914 348.740082,463.529205 365.953094,491.005951 
z"/>
<path fill="#014BAD" opacity="1.000000" stroke="none" 
	d="
M73.955719,462.000000 
	C73.955658,418.682770 73.955658,375.865540 73.955658,332.754944 
	C85.813461,332.754944 97.380180,332.754944 109.328117,332.754944 
	C109.328117,413.119873 109.328117,493.224182 109.328117,573.320374 
	C115.787766,573.320374 121.866997,573.378784 127.944832,573.311340 
	C187.941391,572.645630 246.552399,580.078186 302.127991,604.106812 
	C332.935760,617.426880 360.070862,636.068115 381.673859,662.144592 
	C382.414520,663.038635 383.165588,663.934265 383.795624,664.904541 
	C384.031555,665.267944 383.935486,665.846924 383.997833,666.388977 
	C338.877838,633.240356 286.564178,619.215210 232.874023,608.929443 
	C181.515030,599.090271 129.536652,595.563721 77.361435,594.234558 
	C76.389389,594.209839 75.419273,594.109375 73.955772,594.011108 
	C73.955772,550.068909 73.955772,506.284454 73.955719,462.000000 
z"/>
<path fill="#034CAE" opacity="1.000000" stroke="none" 
	d="
M395.754883,660.185669 
	C395.900177,661.174194 395.900177,661.829895 395.900177,662.759460 
	C325.683197,583.183899 236.745163,544.416809 131.501709,539.603027 
	C131.501709,452.761841 131.501709,365.588287 131.501709,278.121460 
	C143.117722,278.121460 154.697632,278.121460 166.783386,278.121460 
	C166.783386,358.709167 166.783386,439.264252 166.783386,519.861084 
	C177.916855,521.625122 188.617859,523.044617 199.209335,525.044189 
	C261.552460,536.814209 316.240967,563.211060 360.091492,609.989197 
	C374.154938,624.991577 386.215881,641.489746 395.754883,660.185669 
z"/>
<path fill="#044DAE" opacity="1.000000" stroke="none" 
	d="
M550.001831,568.966309 
	C557.483215,568.966309 564.465027,568.966309 571.446777,568.966309 
	C571.786133,569.397278 572.125427,569.828247 572.464722,570.259216 
	C571.381714,571.297180 570.469543,572.889343 569.188293,573.284180 
	C559.997009,576.116821 558.890686,577.451416 558.890625,586.839355 
	C558.890564,610.658691 558.910156,634.478088 558.865906,658.297302 
	C558.860291,661.318726 559.855103,664.837830 555.674072,666.299500 
	C551.609009,667.720581 548.543884,666.123718 545.909851,663.209106 
	C535.747925,651.964478 525.607666,640.700256 515.459229,629.443420 
	C504.641541,617.444275 493.809021,605.458374 483.038177,593.417297 
	C482.303314,592.595764 482.030487,591.360901 481.542816,590.318237 
	C480.988129,590.700684 480.433411,591.083191 479.878723,591.465637 
	C479.878723,597.215698 479.878754,602.965759 479.878754,608.715820 
	C479.878754,621.541626 479.878693,634.367432 479.878754,647.193237 
	C479.878784,657.959290 481.239990,659.528564 491.829254,661.764587 
	C493.249207,662.064392 494.453461,663.385559 495.757599,664.233826 
	C495.488312,664.822754 495.218994,665.411682 494.949707,666.000610 
	C482.850281,666.000610 470.749817,666.065125 458.653320,665.877258 
	C457.691986,665.862305 456.757751,664.099731 455.211273,662.547363 
	C466.658936,660.945618 468.848419,658.606812 468.893463,648.478394 
	C468.993408,625.992065 468.950989,603.505005 468.924011,581.018250 
	C468.917816,575.869873 467.325562,574.648315 460.064056,573.194641 
	C458.558594,572.893311 457.228821,571.714111 455.818085,570.939514 
	C456.043915,570.297913 456.269714,569.656372 456.495514,569.014771 
	C466.752808,569.014771 477.012634,568.907593 487.264069,569.152100 
	C488.528046,569.182251 489.890472,570.958496 490.966003,572.144409 
	C508.980774,592.007019 526.966370,611.896179 544.916199,631.817566 
	C545.867920,632.873779 546.445496,634.267151 547.954346,634.465942 
	C547.954346,616.739258 548.215027,599.006714 547.811401,581.289185 
	C547.672180,575.181213 544.473816,573.313477 536.970398,573.084167 
	C534.420227,573.006165 532.047058,573.098816 533.736145,568.966309 
	C538.902954,568.966309 544.202576,568.966309 550.001831,568.966309 
z"/>
<path fill="#034CAE" opacity="1.000000" stroke="none" 
	d="
M692.013000,666.005920 
	C688.348877,666.005615 685.158020,666.230652 682.028259,665.891846 
	C680.810730,665.760132 679.730957,664.356445 678.897888,662.839661 
	C687.359375,662.359863 693.446960,658.215088 698.223755,652.556519 
	C707.976929,641.002991 717.227356,629.025085 727.028687,616.792969 
	C716.904663,604.190369 707.192810,591.961121 697.311401,579.870483 
	C693.465881,575.165161 687.836243,574.069153 682.158264,573.126160 
	C680.835571,572.906494 679.709290,571.504456 678.492615,570.646423 
	C678.734985,570.086731 678.977295,569.526978 679.219604,568.967285 
	C684.507019,568.967285 689.794495,568.967224 695.081909,568.967346 
	C706.247803,568.967590 717.414185,569.027588 728.579163,568.925720 
	C731.319946,568.900757 732.800781,569.451599 731.724792,572.512878 
	C728.112427,573.202698 724.504517,573.891602 719.459045,574.855042 
	C726.354248,584.013550 732.376709,592.012817 738.950134,600.743958 
	C744.860779,592.968750 750.444885,585.983093 755.589661,578.687561 
	C757.805237,575.545776 756.067322,573.871765 750.284668,573.192566 
	C747.976196,572.921448 744.710815,573.707642 746.489258,568.968689 
	C758.815308,568.968689 771.285156,568.909180 783.752075,569.074463 
	C784.825684,569.088684 785.879578,570.592407 786.743225,572.271790 
	C773.815674,572.680054 766.767151,580.740479 760.214661,589.683716 
	C756.081726,595.324585 751.747864,600.823975 747.349182,606.261414 
	C745.716553,608.279541 745.614929,609.721924 747.269836,611.870178 
	C757.840637,625.591309 768.272705,639.419373 778.731567,653.226562 
	C782.210754,657.819580 786.777283,660.592590 792.412781,661.696777 
	C793.955200,661.998962 795.465027,662.467529 796.989807,662.859802 
	C797.083740,663.306213 797.177673,663.752625 797.271606,664.198975 
	C796.184021,664.797119 795.100281,665.907837 794.008240,665.916077 
	C778.868774,666.030273 763.728088,665.993286 748.672302,665.993286 
	C747.364075,662.856812 748.329407,662.044861 751.266113,661.707947 
	C757.156738,661.032288 758.140686,658.532104 754.582764,653.749390 
	C747.641724,644.419006 740.574280,635.182617 732.996155,625.162903 
	C730.348999,628.589233 728.061035,631.545654 725.778381,634.506226 
	C721.404968,640.178406 716.882935,645.745300 712.742981,651.583191 
	C711.242615,653.698975 710.659241,656.464905 709.657410,658.934204 
	C712.028748,659.788391 714.468384,660.495178 716.746765,661.550171 
	C718.194214,662.220459 719.402039,663.408020 720.717346,664.363647 
	C720.442993,664.911072 720.168701,665.458496 719.894348,666.005920 
	C710.766479,666.005920 701.638550,666.005920 692.013000,666.005920 
z"/>
<path fill="#054EAF" opacity="1.000000" stroke="none" 
	d="
M620.844971,596.996460 
	C620.844910,602.131897 620.844910,606.768066 620.844910,611.830750 
	C628.491638,611.830750 635.780151,612.118958 643.031372,611.723633 
	C647.441345,611.483093 649.442749,608.202820 650.156860,603.947449 
	C650.376221,602.640564 651.657104,601.511780 652.451965,600.301453 
	C652.912903,600.548096 653.373779,600.794739 653.834717,601.041382 
	C653.834717,611.613586 653.834717,622.185791 653.834717,632.757996 
	C653.441162,633.045471 653.047607,633.332886 652.654114,633.620300 
	C651.807129,632.490601 650.407776,631.452087 650.203552,630.216187 
	C648.955933,622.665771 647.002136,620.777588 639.472107,620.699524 
	C633.491760,620.637512 627.510315,620.687012 620.961548,620.687012 
	C620.961548,631.559814 620.754700,642.164856 621.192505,652.743164 
	C621.255554,654.267944 624.349121,656.808594 626.161682,656.921021 
	C633.794678,657.394409 641.486145,657.394348 649.131775,657.039978 
	C654.921692,656.771545 659.119202,651.647644 661.064270,643.974304 
	C661.532776,642.125854 662.643677,640.440186 663.459167,638.679688 
	C664.148071,638.886658 664.836914,639.093567 665.525818,639.300537 
	C664.759888,648.096680 663.993896,656.892822 663.215820,665.828186 
	C636.053589,665.828186 609.419495,665.828186 582.523315,665.828186 
	C581.636963,663.585266 581.298462,662.145447 584.824768,661.869446 
	C601.061890,660.598572 601.054810,660.508789 601.054810,644.211365 
	C601.054810,624.714661 601.056946,605.217896 601.053894,585.721191 
	C601.052551,576.987305 599.064270,574.716125 590.475952,573.018799 
	C589.023804,572.731812 587.762939,571.476746 586.413696,570.668945 
	C587.896179,570.100403 589.376099,569.044495 590.861450,569.036743 
	C611.524109,568.928406 632.187988,569.042053 652.850098,568.892273 
	C656.586792,568.865173 658.237244,569.672180 658.233276,573.814026 
	C658.226929,580.427490 658.890381,587.041626 659.270691,593.655457 
	C658.765137,593.921204 658.259521,594.186951 657.753967,594.452698 
	C656.839355,593.337219 655.552124,592.354675 655.095886,591.075684 
	C654.378479,589.064636 654.395996,586.802429 653.788208,584.739075 
	C652.678467,580.971741 650.436768,577.939575 646.228882,577.820740 
	C637.950989,577.586731 629.661865,577.751831 620.844971,577.751831 
	C620.844971,584.262756 620.844971,590.379944 620.844971,596.996460 
z"/>
<path fill="#044DAE" opacity="1.000000" stroke="none" 
	d="
M833.998413,568.965515 
	C839.971313,568.965515 845.444641,568.965515 850.918030,568.965515 
	C851.226807,569.414673 851.535645,569.863831 851.844421,570.312988 
	C850.753723,571.182495 849.759033,572.628052 848.556763,572.828491 
	C840.424988,574.184509 838.773865,575.963684 838.763123,584.272156 
	C838.744019,599.097290 838.725281,613.922546 838.784546,628.747437 
	C838.797180,631.902039 838.801514,635.121399 839.395142,638.197998 
	C842.377136,653.653259 855.128723,661.525696 872.224304,658.656189 
	C887.695435,656.059326 895.867432,646.582703 895.967468,630.860229 
	C896.058594,616.535461 896.045227,602.209167 895.947327,587.884460 
	C895.875488,577.367249 893.588013,574.826599 883.440125,572.803833 
	C882.335815,572.583740 881.482605,571.103638 880.512939,570.208008 
	C880.807800,569.851501 881.102661,569.494934 881.397522,569.138428 
	C893.354919,569.138428 905.312317,569.138428 917.269714,569.138428 
	C917.571228,569.491150 917.872803,569.843872 918.174316,570.196594 
	C917.187927,571.103699 916.315613,572.608704 915.196899,572.821960 
	C907.287231,574.330017 905.058777,576.815308 905.048096,584.841370 
	C905.029663,598.667053 905.062622,612.492859 905.031799,626.318481 
	C904.960571,658.226074 884.422363,670.015442 858.154724,667.459900 
	C850.087708,666.675049 841.832642,664.015503 834.491760,660.490051 
	C824.116455,655.507324 818.980896,646.314392 818.998779,634.547485 
	C819.024597,617.556946 819.012939,600.566223 818.997009,583.575623 
	C818.990784,576.915161 816.755615,574.340515 810.309143,572.931335 
	C808.934814,572.630859 807.753296,571.448853 806.482910,570.673035 
	C806.709106,570.103882 806.935303,569.534668 807.161438,568.965515 
	C815.940613,568.965515 824.719788,568.965515 833.998413,568.965515 
z"/>
<path fill="#054EAF" opacity="1.000000" stroke="none" 
	d="
M961.187500,572.310425 
	C949.735107,574.476440 945.999146,583.094299 952.711243,592.179626 
	C955.803589,596.365417 960.143311,599.728882 964.264954,603.031616 
	C970.489990,608.019897 977.294739,612.306519 983.346313,617.483704 
	C990.255615,623.394836 994.571716,630.935669 995.067200,640.363953 
	C995.497742,648.558044 992.281616,655.046753 985.923523,659.829712 
	C975.090271,667.979309 962.983948,669.717773 949.969849,666.217102 
	C945.264771,664.951538 940.470215,664.018494 934.723083,662.706970 
	C934.188171,657.587646 933.468262,651.367126 932.960083,645.129333 
	C932.881897,644.169800 933.777954,643.130920 934.223511,642.128784 
	C935.324402,642.643982 936.812805,642.873535 937.446350,643.733154 
	C938.810791,645.584595 939.751587,647.751587 940.837402,649.804443 
	C946.367371,660.259033 959.519897,664.841919 970.447510,660.113342 
	C977.495605,657.063599 980.566956,647.535217 976.101440,639.595947 
	C973.575378,635.105103 969.689270,631.127075 965.696899,627.773865 
	C960.109863,623.081299 953.725647,619.352783 947.912354,614.910950 
	C939.903503,608.791504 933.608215,601.521851 932.808228,590.755554 
	C932.279602,583.641174 934.931641,578.023682 940.330505,573.716736 
	C949.550903,566.360962 959.947876,564.455017 971.351013,567.430298 
	C976.287537,568.718323 981.311401,569.671448 987.336670,571.007568 
	C987.934998,575.847778 988.652100,581.648804 989.369202,587.449829 
	C988.962830,587.804443 988.556458,588.159058 988.150085,588.513672 
	C986.698669,587.501587 984.578552,586.814392 983.903687,585.425110 
	C979.343872,576.038513 971.584778,572.384827 961.187500,572.310425 
z"/>
<path fill="#0F0F0F" opacity="1.000000" stroke="none" 
	d="
M513.332458,722.989868 
	C513.332458,715.692566 513.332458,708.892883 513.332458,702.100647 
	C517.299072,700.501831 519.729553,701.626587 521.984619,704.857117 
	C526.838196,711.809998 532.058411,718.507080 537.821533,726.238464 
	C537.821533,717.607910 537.821533,709.952515 537.821533,701.741638 
	C540.071594,701.593445 541.793701,701.479980 543.859985,701.343872 
	C543.859985,713.241150 543.859985,724.821045 543.859985,736.624939 
	C540.295654,737.872009 537.807739,736.732239 535.487427,733.344116 
	C530.812378,726.517639 525.657410,720.019714 519.807983,712.192017 
	C519.807983,721.148987 519.807983,728.787537 519.807983,736.722900 
	C517.418701,736.722900 515.681152,736.722900 513.332458,736.722900 
	C513.332458,732.355713 513.332458,727.921570 513.332458,722.989868 
z"/>
<path fill="#0B0B0B" opacity="1.000000" stroke="none" 
	d="
M732.890625,730.094604 
	C734.433289,732.432617 735.790833,734.458252 737.237488,736.617004 
	C733.036682,737.610474 729.832397,737.371765 728.337097,733.140076 
	C725.944214,726.367859 721.017456,724.873413 714.269043,726.783020 
	C714.269043,729.810669 714.269043,733.085815 714.269043,736.802063 
	C712.248108,736.895752 710.508850,736.976440 708.420776,737.073242 
	C708.420776,725.303223 708.420776,713.735901 708.420776,701.176819 
	C715.035706,701.517639 721.816589,701.422974 728.451355,702.361389 
	C733.050232,703.011963 735.964172,706.535889 736.706848,711.271606 
	C737.652283,717.299744 735.592407,722.056946 729.791504,725.246399 
	C730.814270,726.838440 731.759888,728.310364 732.890625,730.094604 
M726.429688,720.358765 
	C730.590393,719.088501 731.607788,715.963379 730.956421,712.153198 
	C730.262329,708.094116 727.126038,707.075562 723.563904,706.973694 
	C720.487366,706.885681 717.406250,706.955444 714.426514,706.955444 
	C714.426514,711.954956 714.426514,716.336731 714.426514,720.639648 
	C718.375732,720.639648 722.000549,720.639648 726.429688,720.358765 
z"/>
<path fill="#111111" opacity="1.000000" stroke="none" 
	d="
M664.870850,706.971924 
	C663.788513,709.865784 663.226501,712.737061 662.564148,716.121216 
	C668.767151,716.121216 674.204529,716.121216 680.269531,716.121216 
	C680.360291,718.148376 680.434875,719.813599 680.526367,721.856201 
	C674.593811,721.856201 669.154358,721.856201 663.427917,721.856201 
	C663.427917,725.078186 663.427917,727.973083 663.427917,731.360718 
	C669.737488,731.360718 676.139099,731.360718 682.878296,731.360718 
	C682.979431,733.401123 683.057312,734.972168 683.147766,736.797852 
	C674.466919,736.797852 666.074219,736.797852 657.378601,736.797852 
	C657.378601,725.213989 657.378601,713.654907 657.378601,701.742981 
	C665.514160,701.742981 673.729858,701.742981 682.288696,701.742981 
	C682.288696,703.325195 682.288696,704.875854 682.288696,706.949280 
	C676.601318,706.949280 670.996277,706.949280 664.870850,706.971924 
z"/>
<path fill="#0C0C0C" opacity="1.000000" stroke="none" 
	d="
M763.883911,704.902344 
	C771.145142,699.822693 779.181458,699.973877 786.533936,705.245056 
	C785.901672,706.644409 785.242004,708.104614 784.678162,709.352661 
	C780.652344,708.529175 776.867615,707.400146 773.024719,707.144043 
	C771.491272,707.041870 769.829407,708.867126 768.226013,709.815063 
	C769.332092,711.477356 770.071289,713.806641 771.622437,714.659851 
	C774.635620,716.317444 778.151428,717.032227 781.372925,718.348267 
	C785.090454,719.866821 787.133484,722.630798 787.165955,726.810730 
	C787.200317,731.214722 784.887207,733.996521 781.168701,735.770081 
	C774.811279,738.802124 766.242737,737.134644 759.536499,731.470093 
	C760.211609,730.026550 760.935303,728.479126 761.366638,727.556885 
	C765.866150,728.978821 769.826294,730.811157 773.941833,731.280090 
	C775.930664,731.506775 778.211548,729.170776 780.360168,727.995056 
	C778.822388,726.140381 777.583374,723.839661 775.664368,722.554016 
	C773.672302,721.219543 770.985535,720.962463 768.666748,720.067749 
	C761.144043,717.164917 759.473267,712.156982 763.883911,704.902344 
z"/>
<path fill="#0B0B0B" opacity="1.000000" stroke="none" 
	d="
M462.156097,705.538208 
	C462.157135,711.140564 462.076691,716.298035 462.179596,721.451843 
	C462.313751,728.167786 465.693726,731.822327 471.623199,731.881348 
	C477.613708,731.940918 480.962402,728.341492 481.039948,721.569336 
	C481.114105,715.092651 481.055939,708.614441 481.055939,701.778137 
	C482.985901,701.778137 484.715851,701.778137 486.842804,701.778137 
	C486.842804,709.773376 487.346313,717.893372 486.688141,725.917969 
	C486.132141,732.696716 480.346069,736.817078 472.913574,737.120300 
	C464.254608,737.473572 457.832672,734.007751 457.012238,726.853699 
	C456.076813,718.696899 456.795807,710.350342 456.795807,701.723389 
	C459.104309,701.634888 462.613892,699.592651 462.156097,705.538208 
z"/>
<path fill="#0E0E0E" opacity="1.000000" stroke="none" 
	d="
M602.958740,709.184265 
	C601.949463,706.534668 601.048828,704.255188 600.123047,701.911743 
	C604.395142,700.508301 606.713257,701.510864 608.137756,705.830444 
	C610.722046,713.667053 613.922974,721.300293 617.289978,730.128784 
	C620.716492,721.298096 623.981140,713.622559 626.634216,705.741150 
	C627.994446,701.700256 630.056274,700.536682 634.397766,701.931702 
	C629.874634,713.197083 625.553284,724.451172 620.682495,735.462219 
	C620.081055,736.821777 616.551392,736.885803 614.299561,737.574341 
	C610.348145,727.717041 606.707764,718.635681 602.958740,709.184265 
z"/>
<path fill="#111111" opacity="1.000000" stroke="none" 
	d="
M852.077759,727.950073 
	C852.077759,720.829895 852.077759,714.203247 852.077759,707.039185 
	C848.356567,707.039185 844.805115,707.039185 841.189575,707.039185 
	C841.189575,704.923096 841.189575,703.347717 841.189575,701.583740 
	C850.522034,701.583740 859.609802,701.583740 869.142639,701.583740 
	C869.238831,703.192200 869.332458,704.758606 869.456482,706.832642 
	C865.539917,706.832642 861.967712,706.832642 858.162598,706.832642 
	C858.162598,717.093323 858.162598,726.871399 858.162598,736.839600 
	C856.141541,736.839600 854.361389,736.839600 852.077759,736.839600 
	C852.077759,734.005066 852.077759,731.224304 852.077759,727.950073 
z"/>
<path fill="#0C0C0C" opacity="1.000000" stroke="none" 
	d="
M891.996399,709.109375 
	C890.652039,706.602478 889.455627,704.432495 888.114929,702.000732 
	C891.980286,700.534302 894.289612,701.601562 896.093689,705.132935 
	C898.334351,709.519104 901.048340,713.663391 903.987610,718.639709 
	C906.797791,713.799316 909.519897,709.690491 911.631653,705.288818 
	C913.305908,701.799133 915.533020,700.614136 919.376892,701.782654 
	C915.501648,713.428894 903.937988,722.337952 907.398926,736.775879 
	C905.132935,736.890503 903.390137,736.978699 900.708862,737.114319 
	C903.478333,726.017700 896.896484,718.048279 891.996399,709.109375 
z"/>
<path fill="#151515" opacity="1.000000" stroke="none" 
	d="
M571.580444,736.342896 
	C571.368225,724.648987 571.368225,713.356140 571.368225,701.723083 
	C573.419983,701.723083 575.151306,701.723083 577.145325,701.723083 
	C577.145325,713.377991 577.145325,724.977112 577.145325,737.066528 
	C575.316528,736.956360 573.554626,736.850159 571.580444,736.342896 
z"/>
<path fill="#0B0B0B" opacity="1.000000" stroke="none" 
	d="
M812.093018,704.441284 
	C813.681519,702.860107 815.269531,701.732483 817.854858,699.896606 
	C817.854858,713.380310 817.854858,724.950623 817.854858,736.771729 
	C816.080750,736.771729 814.343445,736.771729 812.092590,736.771729 
	C812.092590,726.105774 812.092590,715.500244 812.093018,704.441284 
z"/>
<path fill="#F8F8F8" opacity="1.000000" stroke="none" 
	d="
M726.027527,720.499207 
	C722.000549,720.639648 718.375732,720.639648 714.426514,720.639648 
	C714.426514,716.336731 714.426514,711.954956 714.426514,706.955444 
	C717.406250,706.955444 720.487366,706.885681 723.563904,706.973694 
	C727.126038,707.075562 730.262329,708.094116 730.956421,712.153198 
	C731.607788,715.963379 730.590393,719.088501 726.027527,720.499207 
z"/>
</svg>